<svg xmlns="http://www.w3.org/2000/svg" xmlns:xlink="http://www.w3.org/1999/xlink" width="383.783" height="346" viewBox="0 0 383.783 346">
  <defs>
    <radialGradient id="radial-gradient" cx="0.085" cy="0.287" r="0.797" gradientTransform="translate(0 -0.027) scale(1 1.161)" gradientUnits="objectBoundingBox">
      <stop offset="0" stop-color="#ecedf1"/>
      <stop offset="1" stop-color="#d0d3db"/>
    </radialGradient>
    <radialGradient id="radial-gradient-197" cx="0.318" cy="0.148" r="1.262" gradientTransform="matrix(0.864, 0.504, -0.318, 0.545, 0.09, -0.093)" gradientUnits="objectBoundingBox">
      <stop offset="0" stop-color="#e5e55f"/>
      <stop offset="1" stop-color="#d6db57"/>
    </radialGradient>
  </defs>
  <g id="Group_57" data-name="Group 57" transform="translate(-1104 -298)">
    <g id="Group_29" data-name="Group 29" transform="translate(1104.332 298.125)" opacity="0.259">
      <g id="Group_3" data-name="Group 3" transform="translate(0 179.64)">
        <circle id="Ellipse_1" data-name="Ellipse 1" cx="6" cy="6" r="6" transform="translate(-0.331 154.235)" fill="url(#radial-gradient)"/>
        <circle id="Ellipse_14" data-name="Ellipse 14" cx="6" cy="6" r="6" transform="translate(-0.331 128.235)" fill="url(#radial-gradient)"/>
        <ellipse id="Ellipse_21" data-name="Ellipse 21" cx="6" cy="6.5" rx="6" ry="6.5" transform="translate(-0.331 103.235)" fill="url(#radial-gradient)"/>
        <ellipse id="Ellipse_28" data-name="Ellipse 28" cx="6" cy="5" rx="6" ry="5" transform="translate(-0.331 78.235)" fill="url(#radial-gradient)"/>
        <circle id="Ellipse_35" data-name="Ellipse 35" cx="6" cy="6" r="6" transform="translate(-0.331 51.235)" fill="url(#radial-gradient)"/>
        <circle id="Ellipse_42" data-name="Ellipse 42" cx="6" cy="6" r="6" transform="translate(-0.331 25.235)" fill="url(#radial-gradient)"/>
        <circle id="Ellipse_49" data-name="Ellipse 49" cx="6" cy="6" r="6" transform="translate(-0.331 0.235)" fill="url(#radial-gradient)"/>
        <circle id="Ellipse_2" data-name="Ellipse 2" cx="6" cy="6" r="6" transform="translate(24.669 154.235)" fill="url(#radial-gradient)"/>
        <circle id="Ellipse_13" data-name="Ellipse 13" cx="6" cy="6" r="6" transform="translate(24.669 128.235)" fill="url(#radial-gradient)"/>
        <ellipse id="Ellipse_20" data-name="Ellipse 20" cx="6" cy="6.5" rx="6" ry="6.5" transform="translate(24.669 103.235)" fill="url(#radial-gradient)"/>
        <ellipse id="Ellipse_27" data-name="Ellipse 27" cx="6" cy="5" rx="6" ry="5" transform="translate(24.669 78.235)" fill="url(#radial-gradient)"/>
        <circle id="Ellipse_34" data-name="Ellipse 34" cx="6" cy="6" r="6" transform="translate(24.669 51.235)" fill="url(#radial-gradient)"/>
        <circle id="Ellipse_41" data-name="Ellipse 41" cx="6" cy="6" r="6" transform="translate(24.669 25.235)" fill="url(#radial-gradient)"/>
        <circle id="Ellipse_48" data-name="Ellipse 48" cx="6" cy="6" r="6" transform="translate(24.669 0.235)" fill="url(#radial-gradient)"/>
        <circle id="Ellipse_7" data-name="Ellipse 7" cx="6" cy="6" r="6" transform="translate(102.669 154.235)" fill="url(#radial-gradient)"/>
        <circle id="Ellipse_10" data-name="Ellipse 10" cx="6" cy="6" r="6" transform="translate(102.669 128.235)" fill="url(#radial-gradient)"/>
        <ellipse id="Ellipse_17" data-name="Ellipse 17" cx="6" cy="6.5" rx="6" ry="6.5" transform="translate(102.669 103.235)" fill="url(#radial-gradient)"/>
        <ellipse id="Ellipse_24" data-name="Ellipse 24" cx="6" cy="5" rx="6" ry="5" transform="translate(102.669 78.235)" fill="url(#radial-gradient)"/>
        <circle id="Ellipse_31" data-name="Ellipse 31" cx="6" cy="6" r="6" transform="translate(102.669 51.235)" fill="url(#radial-gradient)"/>
        <circle id="Ellipse_38" data-name="Ellipse 38" cx="6" cy="6" r="6" transform="translate(102.669 25.235)" fill="url(#radial-gradient)"/>
        <circle id="Ellipse_45" data-name="Ellipse 45" cx="6" cy="6" r="6" transform="translate(102.669 0.235)" fill="url(#radial-gradient)"/>
        <circle id="Ellipse_3" data-name="Ellipse 3" cx="6" cy="6" r="6" transform="translate(51.669 154.235)" fill="url(#radial-gradient)"/>
        <circle id="Ellipse_12" data-name="Ellipse 12" cx="6" cy="6" r="6" transform="translate(51.669 128.235)" fill="url(#radial-gradient)"/>
        <ellipse id="Ellipse_19" data-name="Ellipse 19" cx="6" cy="6.5" rx="6" ry="6.5" transform="translate(51.669 103.235)" fill="url(#radial-gradient)"/>
        <ellipse id="Ellipse_26" data-name="Ellipse 26" cx="6" cy="5" rx="6" ry="5" transform="translate(51.669 78.235)" fill="url(#radial-gradient)"/>
        <circle id="Ellipse_33" data-name="Ellipse 33" cx="6" cy="6" r="6" transform="translate(51.669 51.235)" fill="url(#radial-gradient)"/>
        <circle id="Ellipse_40" data-name="Ellipse 40" cx="6" cy="6" r="6" transform="translate(51.669 25.235)" fill="url(#radial-gradient)"/>
        <circle id="Ellipse_47" data-name="Ellipse 47" cx="6" cy="6" r="6" transform="translate(51.669 0.235)" fill="url(#radial-gradient)"/>
        <circle id="Ellipse_6" data-name="Ellipse 6" cx="6" cy="6" r="6" transform="translate(127.669 154.235)" fill="url(#radial-gradient)"/>
        <circle id="Ellipse_9" data-name="Ellipse 9" cx="6" cy="6" r="6" transform="translate(127.669 128.235)" fill="url(#radial-gradient)"/>
        <ellipse id="Ellipse_16" data-name="Ellipse 16" cx="6" cy="6.5" rx="6" ry="6.5" transform="translate(127.669 103.235)" fill="url(#radial-gradient)"/>
        <ellipse id="Ellipse_23" data-name="Ellipse 23" cx="6" cy="5" rx="6" ry="5" transform="translate(127.669 78.235)" fill="url(#radial-gradient)"/>
        <circle id="Ellipse_30" data-name="Ellipse 30" cx="6" cy="6" r="6" transform="translate(127.669 51.235)" fill="url(#radial-gradient)"/>
        <circle id="Ellipse_37" data-name="Ellipse 37" cx="6" cy="6" r="6" transform="translate(127.669 25.235)" fill="url(#radial-gradient)"/>
        <circle id="Ellipse_44" data-name="Ellipse 44" cx="6" cy="6" r="6" transform="translate(127.669 0.235)" fill="url(#radial-gradient)"/>
        <circle id="Ellipse_4" data-name="Ellipse 4" cx="6" cy="6" r="6" transform="translate(76.669 154.235)" fill="url(#radial-gradient)"/>
        <circle id="Ellipse_11" data-name="Ellipse 11" cx="6" cy="6" r="6" transform="translate(76.669 128.235)" fill="url(#radial-gradient)"/>
        <ellipse id="Ellipse_18" data-name="Ellipse 18" cx="6" cy="6.5" rx="6" ry="6.5" transform="translate(76.669 103.235)" fill="url(#radial-gradient)"/>
        <ellipse id="Ellipse_25" data-name="Ellipse 25" cx="6" cy="5" rx="6" ry="5" transform="translate(76.669 78.235)" fill="url(#radial-gradient)"/>
        <circle id="Ellipse_32" data-name="Ellipse 32" cx="6" cy="6" r="6" transform="translate(76.669 51.235)" fill="url(#radial-gradient)"/>
        <circle id="Ellipse_39" data-name="Ellipse 39" cx="6" cy="6" r="6" transform="translate(76.669 25.235)" fill="url(#radial-gradient)"/>
        <circle id="Ellipse_46" data-name="Ellipse 46" cx="6" cy="6" r="6" transform="translate(76.669 0.235)" fill="url(#radial-gradient)"/>
        <ellipse id="Ellipse_5" data-name="Ellipse 5" cx="5.5" cy="6" rx="5.5" ry="6" transform="translate(153.669 154.235)" fill="url(#radial-gradient)"/>
        <ellipse id="Ellipse_8" data-name="Ellipse 8" cx="5.5" cy="6" rx="5.5" ry="6" transform="translate(153.669 128.235)" fill="url(#radial-gradient)"/>
        <ellipse id="Ellipse_15" data-name="Ellipse 15" cx="5.5" cy="6.5" rx="5.5" ry="6.5" transform="translate(153.669 103.235)" fill="url(#radial-gradient)"/>
        <ellipse id="Ellipse_22" data-name="Ellipse 22" cx="5.5" cy="5" rx="5.5" ry="5" transform="translate(153.669 78.235)" fill="url(#radial-gradient)"/>
        <ellipse id="Ellipse_29" data-name="Ellipse 29" cx="5.5" cy="6" rx="5.5" ry="6" transform="translate(153.669 51.235)" fill="url(#radial-gradient)"/>
        <ellipse id="Ellipse_36" data-name="Ellipse 36" cx="5.5" cy="6" rx="5.5" ry="6" transform="translate(153.669 25.235)" fill="url(#radial-gradient)"/>
        <ellipse id="Ellipse_43" data-name="Ellipse 43" cx="5.5" cy="6" rx="5.5" ry="6" transform="translate(153.669 0.235)" fill="url(#radial-gradient)"/>
      </g>
      <g id="Group_3-2" data-name="Group 3" transform="translate(0 0)">
        <circle id="Ellipse_1-2" data-name="Ellipse 1" cx="6" cy="6" r="6" transform="translate(-0.331 154.875)" fill="url(#radial-gradient)"/>
        <circle id="Ellipse_14-2" data-name="Ellipse 14" cx="6" cy="6" r="6" transform="translate(-0.331 127.875)" fill="url(#radial-gradient)"/>
        <circle id="Ellipse_21-2" data-name="Ellipse 21" cx="6" cy="6" r="6" transform="translate(-0.331 102.875)" fill="url(#radial-gradient)"/>
        <circle id="Ellipse_28-2" data-name="Ellipse 28" cx="6" cy="6" r="6" transform="translate(-0.331 76.875)" fill="url(#radial-gradient)"/>
        <circle id="Ellipse_35-2" data-name="Ellipse 35" cx="6" cy="6" r="6" transform="translate(-0.331 51.875)" fill="url(#radial-gradient)"/>
        <circle id="Ellipse_42-2" data-name="Ellipse 42" cx="6" cy="6" r="6" transform="translate(-0.331 24.875)" fill="url(#radial-gradient)"/>
        <circle id="Ellipse_49-2" data-name="Ellipse 49" cx="6" cy="6" r="6" transform="translate(-0.331 -0.125)" fill="url(#radial-gradient)"/>
        <circle id="Ellipse_2-2" data-name="Ellipse 2" cx="6" cy="6" r="6" transform="translate(24.669 154.875)" fill="url(#radial-gradient)"/>
        <circle id="Ellipse_13-2" data-name="Ellipse 13" cx="6" cy="6" r="6" transform="translate(24.669 127.875)" fill="url(#radial-gradient)"/>
        <circle id="Ellipse_20-2" data-name="Ellipse 20" cx="6" cy="6" r="6" transform="translate(24.669 102.875)" fill="url(#radial-gradient)"/>
        <circle id="Ellipse_27-2" data-name="Ellipse 27" cx="6" cy="6" r="6" transform="translate(24.669 76.875)" fill="url(#radial-gradient)"/>
        <circle id="Ellipse_34-2" data-name="Ellipse 34" cx="6" cy="6" r="6" transform="translate(24.669 51.875)" fill="url(#radial-gradient)"/>
        <circle id="Ellipse_41-2" data-name="Ellipse 41" cx="6" cy="6" r="6" transform="translate(24.669 24.875)" fill="url(#radial-gradient)"/>
        <circle id="Ellipse_48-2" data-name="Ellipse 48" cx="6" cy="6" r="6" transform="translate(24.669 -0.125)" fill="url(#radial-gradient)"/>
        <circle id="Ellipse_7-2" data-name="Ellipse 7" cx="6" cy="6" r="6" transform="translate(102.669 154.875)" fill="url(#radial-gradient)"/>
        <circle id="Ellipse_10-2" data-name="Ellipse 10" cx="6" cy="6" r="6" transform="translate(102.669 127.875)" fill="url(#radial-gradient)"/>
        <circle id="Ellipse_17-2" data-name="Ellipse 17" cx="6" cy="6" r="6" transform="translate(102.669 102.875)" fill="url(#radial-gradient)"/>
        <circle id="Ellipse_24-2" data-name="Ellipse 24" cx="6" cy="6" r="6" transform="translate(102.669 76.875)" fill="url(#radial-gradient)"/>
        <circle id="Ellipse_31-2" data-name="Ellipse 31" cx="6" cy="6" r="6" transform="translate(102.669 51.875)" fill="url(#radial-gradient)"/>
        <circle id="Ellipse_38-2" data-name="Ellipse 38" cx="6" cy="6" r="6" transform="translate(102.669 24.875)" fill="url(#radial-gradient)"/>
        <circle id="Ellipse_45-2" data-name="Ellipse 45" cx="6" cy="6" r="6" transform="translate(102.669 -0.125)" fill="url(#radial-gradient)"/>
        <circle id="Ellipse_3-2" data-name="Ellipse 3" cx="6" cy="6" r="6" transform="translate(51.669 154.875)" fill="url(#radial-gradient)"/>
        <circle id="Ellipse_12-2" data-name="Ellipse 12" cx="6" cy="6" r="6" transform="translate(51.669 127.875)" fill="url(#radial-gradient)"/>
        <circle id="Ellipse_19-2" data-name="Ellipse 19" cx="6" cy="6" r="6" transform="translate(51.669 102.875)" fill="url(#radial-gradient)"/>
        <circle id="Ellipse_26-2" data-name="Ellipse 26" cx="6" cy="6" r="6" transform="translate(51.669 76.875)" fill="url(#radial-gradient)"/>
        <circle id="Ellipse_33-2" data-name="Ellipse 33" cx="6" cy="6" r="6" transform="translate(51.669 51.875)" fill="url(#radial-gradient)"/>
        <circle id="Ellipse_40-2" data-name="Ellipse 40" cx="6" cy="6" r="6" transform="translate(51.669 24.875)" fill="url(#radial-gradient)"/>
        <circle id="Ellipse_47-2" data-name="Ellipse 47" cx="6" cy="6" r="6" transform="translate(51.669 -0.125)" fill="url(#radial-gradient)"/>
        <circle id="Ellipse_6-2" data-name="Ellipse 6" cx="6" cy="6" r="6" transform="translate(127.669 154.875)" fill="url(#radial-gradient)"/>
        <circle id="Ellipse_9-2" data-name="Ellipse 9" cx="6" cy="6" r="6" transform="translate(127.669 127.875)" fill="url(#radial-gradient)"/>
        <circle id="Ellipse_16-2" data-name="Ellipse 16" cx="6" cy="6" r="6" transform="translate(127.669 102.875)" fill="url(#radial-gradient)"/>
        <circle id="Ellipse_23-2" data-name="Ellipse 23" cx="6" cy="6" r="6" transform="translate(127.669 76.875)" fill="url(#radial-gradient)"/>
        <circle id="Ellipse_30-2" data-name="Ellipse 30" cx="6" cy="6" r="6" transform="translate(127.669 51.875)" fill="url(#radial-gradient)"/>
        <circle id="Ellipse_37-2" data-name="Ellipse 37" cx="6" cy="6" r="6" transform="translate(127.669 24.875)" fill="url(#radial-gradient)"/>
        <circle id="Ellipse_44-2" data-name="Ellipse 44" cx="6" cy="6" r="6" transform="translate(127.669 -0.125)" fill="url(#radial-gradient)"/>
        <circle id="Ellipse_4-2" data-name="Ellipse 4" cx="6" cy="6" r="6" transform="translate(76.669 154.875)" fill="url(#radial-gradient)"/>
        <circle id="Ellipse_11-2" data-name="Ellipse 11" cx="6" cy="6" r="6" transform="translate(76.669 127.875)" fill="url(#radial-gradient)"/>
        <circle id="Ellipse_18-2" data-name="Ellipse 18" cx="6" cy="6" r="6" transform="translate(76.669 102.875)" fill="url(#radial-gradient)"/>
        <circle id="Ellipse_25-2" data-name="Ellipse 25" cx="6" cy="6" r="6" transform="translate(76.669 76.875)" fill="url(#radial-gradient)"/>
        <circle id="Ellipse_32-2" data-name="Ellipse 32" cx="6" cy="6" r="6" transform="translate(76.669 51.875)" fill="url(#radial-gradient)"/>
        <circle id="Ellipse_39-2" data-name="Ellipse 39" cx="6" cy="6" r="6" transform="translate(76.669 24.875)" fill="url(#radial-gradient)"/>
        <circle id="Ellipse_46-2" data-name="Ellipse 46" cx="6" cy="6" r="6" transform="translate(76.669 -0.125)" fill="url(#radial-gradient)"/>
        <ellipse id="Ellipse_5-2" data-name="Ellipse 5" cx="5.5" cy="6" rx="5.5" ry="6" transform="translate(153.669 154.875)" fill="url(#radial-gradient)"/>
        <ellipse id="Ellipse_8-2" data-name="Ellipse 8" cx="5.5" cy="6" rx="5.5" ry="6" transform="translate(153.669 127.875)" fill="url(#radial-gradient)"/>
        <ellipse id="Ellipse_15-2" data-name="Ellipse 15" cx="5.5" cy="6" rx="5.5" ry="6" transform="translate(153.669 102.875)" fill="url(#radial-gradient)"/>
        <ellipse id="Ellipse_22-2" data-name="Ellipse 22" cx="5.5" cy="6" rx="5.5" ry="6" transform="translate(153.669 76.875)" fill="url(#radial-gradient)"/>
        <ellipse id="Ellipse_29-2" data-name="Ellipse 29" cx="5.5" cy="6" rx="5.5" ry="6" transform="translate(153.669 51.875)" fill="url(#radial-gradient)"/>
        <ellipse id="Ellipse_36-2" data-name="Ellipse 36" cx="5.5" cy="6" rx="5.5" ry="6" transform="translate(153.669 24.875)" fill="url(#radial-gradient)"/>
        <ellipse id="Ellipse_43-2" data-name="Ellipse 43" cx="5.5" cy="6" rx="5.5" ry="6" transform="translate(153.669 -0.125)" fill="url(#radial-gradient)"/>
      </g>
      <g id="Group_3-3" data-name="Group 3" transform="translate(178.319 179.64)">
        <circle id="Ellipse_1-3" data-name="Ellipse 1" cx="6" cy="6" r="6" transform="translate(0.35 154.235)" fill="url(#radial-gradient)"/>
        <circle id="Ellipse_14-3" data-name="Ellipse 14" cx="6" cy="6" r="6" transform="translate(0.35 128.235)" fill="url(#radial-gradient)"/>
        <ellipse id="Ellipse_21-3" data-name="Ellipse 21" cx="6" cy="6.5" rx="6" ry="6.5" transform="translate(0.35 103.235)" fill="url(#radial-gradient)"/>
        <ellipse id="Ellipse_28-3" data-name="Ellipse 28" cx="6" cy="5" rx="6" ry="5" transform="translate(0.35 78.235)" fill="url(#radial-gradient)"/>
        <circle id="Ellipse_35-3" data-name="Ellipse 35" cx="6" cy="6" r="6" transform="translate(0.35 51.235)" fill="url(#radial-gradient)"/>
        <circle id="Ellipse_42-3" data-name="Ellipse 42" cx="6" cy="6" r="6" transform="translate(0.35 25.235)" fill="url(#radial-gradient)"/>
        <circle id="Ellipse_49-3" data-name="Ellipse 49" cx="6" cy="6" r="6" transform="translate(0.35 0.235)" fill="url(#radial-gradient)"/>
        <circle id="Ellipse_2-3" data-name="Ellipse 2" cx="6" cy="6" r="6" transform="translate(25.35 154.235)" fill="url(#radial-gradient)"/>
        <circle id="Ellipse_13-3" data-name="Ellipse 13" cx="6" cy="6" r="6" transform="translate(25.35 128.235)" fill="url(#radial-gradient)"/>
        <ellipse id="Ellipse_20-3" data-name="Ellipse 20" cx="6" cy="6.5" rx="6" ry="6.5" transform="translate(25.35 103.235)" fill="url(#radial-gradient)"/>
        <ellipse id="Ellipse_27-3" data-name="Ellipse 27" cx="6" cy="5" rx="6" ry="5" transform="translate(25.35 78.235)" fill="url(#radial-gradient)"/>
        <circle id="Ellipse_34-3" data-name="Ellipse 34" cx="6" cy="6" r="6" transform="translate(25.35 51.235)" fill="url(#radial-gradient)"/>
        <circle id="Ellipse_41-3" data-name="Ellipse 41" cx="6" cy="6" r="6" transform="translate(25.35 25.235)" fill="url(#radial-gradient)"/>
        <circle id="Ellipse_48-3" data-name="Ellipse 48" cx="6" cy="6" r="6" transform="translate(25.35 0.235)" fill="url(#radial-gradient)"/>
        <ellipse id="Ellipse_7-3" data-name="Ellipse 7" cx="6.5" cy="6" rx="6.5" ry="6" transform="translate(103.35 154.235)" fill="url(#radial-gradient)"/>
        <ellipse id="Ellipse_10-3" data-name="Ellipse 10" cx="6.5" cy="6" rx="6.5" ry="6" transform="translate(103.35 128.235)" fill="url(#radial-gradient)"/>
        <circle id="Ellipse_17-3" data-name="Ellipse 17" cx="6.5" cy="6.5" r="6.5" transform="translate(103.35 103.235)" fill="url(#radial-gradient)"/>
        <ellipse id="Ellipse_24-3" data-name="Ellipse 24" cx="6.5" cy="5" rx="6.5" ry="5" transform="translate(103.35 78.235)" fill="url(#radial-gradient)"/>
        <ellipse id="Ellipse_31-3" data-name="Ellipse 31" cx="6.5" cy="6" rx="6.5" ry="6" transform="translate(103.35 51.235)" fill="url(#radial-gradient)"/>
        <ellipse id="Ellipse_38-3" data-name="Ellipse 38" cx="6.5" cy="6" rx="6.5" ry="6" transform="translate(103.35 25.235)" fill="url(#radial-gradient)"/>
        <ellipse id="Ellipse_45-3" data-name="Ellipse 45" cx="6.5" cy="6" rx="6.5" ry="6" transform="translate(103.35 0.235)" fill="url(#radial-gradient)"/>
        <circle id="Ellipse_3-3" data-name="Ellipse 3" cx="6" cy="6" r="6" transform="translate(51.35 154.235)" fill="url(#radial-gradient)"/>
        <circle id="Ellipse_12-3" data-name="Ellipse 12" cx="6" cy="6" r="6" transform="translate(51.35 128.235)" fill="url(#radial-gradient)"/>
        <ellipse id="Ellipse_19-3" data-name="Ellipse 19" cx="6" cy="6.5" rx="6" ry="6.5" transform="translate(51.35 103.235)" fill="url(#radial-gradient)"/>
        <ellipse id="Ellipse_26-3" data-name="Ellipse 26" cx="6" cy="5" rx="6" ry="5" transform="translate(51.35 78.235)" fill="url(#radial-gradient)"/>
        <circle id="Ellipse_33-3" data-name="Ellipse 33" cx="6" cy="6" r="6" transform="translate(51.35 51.235)" fill="url(#radial-gradient)"/>
        <circle id="Ellipse_40-3" data-name="Ellipse 40" cx="6" cy="6" r="6" transform="translate(51.35 25.235)" fill="url(#radial-gradient)"/>
        <circle id="Ellipse_47-3" data-name="Ellipse 47" cx="6" cy="6" r="6" transform="translate(51.35 0.235)" fill="url(#radial-gradient)"/>
        <circle id="Ellipse_6-3" data-name="Ellipse 6" cx="6" cy="6" r="6" transform="translate(128.35 154.235)" fill="url(#radial-gradient)"/>
        <circle id="Ellipse_9-3" data-name="Ellipse 9" cx="6" cy="6" r="6" transform="translate(128.35 128.235)" fill="url(#radial-gradient)"/>
        <ellipse id="Ellipse_16-3" data-name="Ellipse 16" cx="6" cy="6.5" rx="6" ry="6.5" transform="translate(128.35 103.235)" fill="url(#radial-gradient)"/>
        <ellipse id="Ellipse_23-3" data-name="Ellipse 23" cx="6" cy="5" rx="6" ry="5" transform="translate(128.35 78.235)" fill="url(#radial-gradient)"/>
        <circle id="Ellipse_30-3" data-name="Ellipse 30" cx="6" cy="6" r="6" transform="translate(128.35 51.235)" fill="url(#radial-gradient)"/>
        <circle id="Ellipse_37-3" data-name="Ellipse 37" cx="6" cy="6" r="6" transform="translate(128.35 25.235)" fill="url(#radial-gradient)"/>
        <circle id="Ellipse_44-3" data-name="Ellipse 44" cx="6" cy="6" r="6" transform="translate(128.35 0.235)" fill="url(#radial-gradient)"/>
        <circle id="Ellipse_4-3" data-name="Ellipse 4" cx="6" cy="6" r="6" transform="translate(76.35 154.235)" fill="url(#radial-gradient)"/>
        <circle id="Ellipse_11-3" data-name="Ellipse 11" cx="6" cy="6" r="6" transform="translate(76.35 128.235)" fill="url(#radial-gradient)"/>
        <ellipse id="Ellipse_18-3" data-name="Ellipse 18" cx="6" cy="6.5" rx="6" ry="6.5" transform="translate(76.35 103.235)" fill="url(#radial-gradient)"/>
        <ellipse id="Ellipse_25-3" data-name="Ellipse 25" cx="6" cy="5" rx="6" ry="5" transform="translate(76.35 78.235)" fill="url(#radial-gradient)"/>
        <circle id="Ellipse_32-3" data-name="Ellipse 32" cx="6" cy="6" r="6" transform="translate(76.35 51.235)" fill="url(#radial-gradient)"/>
        <circle id="Ellipse_39-3" data-name="Ellipse 39" cx="6" cy="6" r="6" transform="translate(76.35 25.235)" fill="url(#radial-gradient)"/>
        <circle id="Ellipse_46-3" data-name="Ellipse 46" cx="6" cy="6" r="6" transform="translate(76.35 0.235)" fill="url(#radial-gradient)"/>
        <circle id="Ellipse_5-3" data-name="Ellipse 5" cx="6" cy="6" r="6" transform="translate(153.35 154.235)" fill="url(#radial-gradient)"/>
        <circle id="Ellipse_8-3" data-name="Ellipse 8" cx="6" cy="6" r="6" transform="translate(153.35 128.235)" fill="url(#radial-gradient)"/>
        <ellipse id="Ellipse_15-3" data-name="Ellipse 15" cx="6" cy="6.5" rx="6" ry="6.5" transform="translate(153.35 103.235)" fill="url(#radial-gradient)"/>
        <ellipse id="Ellipse_22-3" data-name="Ellipse 22" cx="6" cy="5" rx="6" ry="5" transform="translate(153.35 78.235)" fill="url(#radial-gradient)"/>
        <circle id="Ellipse_29-3" data-name="Ellipse 29" cx="6" cy="6" r="6" transform="translate(153.35 51.235)" fill="url(#radial-gradient)"/>
        <circle id="Ellipse_36-3" data-name="Ellipse 36" cx="6" cy="6" r="6" transform="translate(153.35 25.235)" fill="url(#radial-gradient)"/>
        <circle id="Ellipse_43-3" data-name="Ellipse 43" cx="6" cy="6" r="6" transform="translate(153.35 0.235)" fill="url(#radial-gradient)"/>
      </g>
      <g id="Group_3-4" data-name="Group 3" transform="translate(178.319 0)">
        <circle id="Ellipse_1-4" data-name="Ellipse 1" cx="6" cy="6" r="6" transform="translate(0.35 154.875)" fill="url(#radial-gradient)"/>
        <circle id="Ellipse_14-4" data-name="Ellipse 14" cx="6" cy="6" r="6" transform="translate(0.35 127.875)" fill="url(#radial-gradient)"/>
        <circle id="Ellipse_21-4" data-name="Ellipse 21" cx="6" cy="6" r="6" transform="translate(0.35 102.875)" fill="url(#radial-gradient)"/>
        <circle id="Ellipse_28-4" data-name="Ellipse 28" cx="6" cy="6" r="6" transform="translate(0.35 76.875)" fill="url(#radial-gradient)"/>
        <circle id="Ellipse_35-4" data-name="Ellipse 35" cx="6" cy="6" r="6" transform="translate(0.35 51.875)" fill="url(#radial-gradient)"/>
        <circle id="Ellipse_42-4" data-name="Ellipse 42" cx="6" cy="6" r="6" transform="translate(0.35 24.875)" fill="url(#radial-gradient)"/>
        <circle id="Ellipse_49-4" data-name="Ellipse 49" cx="6" cy="6" r="6" transform="translate(0.35 -0.125)" fill="url(#radial-gradient)"/>
        <circle id="Ellipse_2-4" data-name="Ellipse 2" cx="6" cy="6" r="6" transform="translate(25.35 154.875)" fill="url(#radial-gradient)"/>
        <circle id="Ellipse_13-4" data-name="Ellipse 13" cx="6" cy="6" r="6" transform="translate(25.35 127.875)" fill="url(#radial-gradient)"/>
        <circle id="Ellipse_20-4" data-name="Ellipse 20" cx="6" cy="6" r="6" transform="translate(25.35 102.875)" fill="url(#radial-gradient)"/>
        <circle id="Ellipse_27-4" data-name="Ellipse 27" cx="6" cy="6" r="6" transform="translate(25.35 76.875)" fill="url(#radial-gradient)"/>
        <circle id="Ellipse_34-4" data-name="Ellipse 34" cx="6" cy="6" r="6" transform="translate(25.35 51.875)" fill="url(#radial-gradient)"/>
        <circle id="Ellipse_41-4" data-name="Ellipse 41" cx="6" cy="6" r="6" transform="translate(25.35 24.875)" fill="url(#radial-gradient)"/>
        <circle id="Ellipse_48-4" data-name="Ellipse 48" cx="6" cy="6" r="6" transform="translate(25.35 -0.125)" fill="url(#radial-gradient)"/>
        <ellipse id="Ellipse_7-4" data-name="Ellipse 7" cx="6.5" cy="6" rx="6.5" ry="6" transform="translate(103.35 154.875)" fill="url(#radial-gradient)"/>
        <ellipse id="Ellipse_10-4" data-name="Ellipse 10" cx="6.5" cy="6" rx="6.5" ry="6" transform="translate(103.35 127.875)" fill="url(#radial-gradient)"/>
        <ellipse id="Ellipse_17-4" data-name="Ellipse 17" cx="6.5" cy="6" rx="6.5" ry="6" transform="translate(103.35 102.875)" fill="url(#radial-gradient)"/>
        <ellipse id="Ellipse_24-4" data-name="Ellipse 24" cx="6.5" cy="6" rx="6.5" ry="6" transform="translate(103.35 76.875)" fill="url(#radial-gradient)"/>
        <ellipse id="Ellipse_31-4" data-name="Ellipse 31" cx="6.5" cy="6" rx="6.5" ry="6" transform="translate(103.35 51.875)" fill="url(#radial-gradient)"/>
        <ellipse id="Ellipse_38-4" data-name="Ellipse 38" cx="6.5" cy="6" rx="6.5" ry="6" transform="translate(103.35 24.875)" fill="url(#radial-gradient)"/>
        <ellipse id="Ellipse_45-4" data-name="Ellipse 45" cx="6.5" cy="6" rx="6.5" ry="6" transform="translate(103.35 -0.125)" fill="url(#radial-gradient)"/>
        <circle id="Ellipse_3-4" data-name="Ellipse 3" cx="6" cy="6" r="6" transform="translate(51.35 154.875)" fill="url(#radial-gradient)"/>
        <circle id="Ellipse_12-4" data-name="Ellipse 12" cx="6" cy="6" r="6" transform="translate(51.35 127.875)" fill="url(#radial-gradient)"/>
        <circle id="Ellipse_19-4" data-name="Ellipse 19" cx="6" cy="6" r="6" transform="translate(51.35 102.875)" fill="url(#radial-gradient)"/>
        <circle id="Ellipse_26-4" data-name="Ellipse 26" cx="6" cy="6" r="6" transform="translate(51.35 76.875)" fill="url(#radial-gradient)"/>
        <circle id="Ellipse_33-4" data-name="Ellipse 33" cx="6" cy="6" r="6" transform="translate(51.35 51.875)" fill="url(#radial-gradient)"/>
        <circle id="Ellipse_40-4" data-name="Ellipse 40" cx="6" cy="6" r="6" transform="translate(51.35 24.875)" fill="url(#radial-gradient)"/>
        <circle id="Ellipse_47-4" data-name="Ellipse 47" cx="6" cy="6" r="6" transform="translate(51.35 -0.125)" fill="url(#radial-gradient)"/>
        <circle id="Ellipse_6-4" data-name="Ellipse 6" cx="6" cy="6" r="6" transform="translate(128.35 154.875)" fill="url(#radial-gradient)"/>
        <circle id="Ellipse_9-4" data-name="Ellipse 9" cx="6" cy="6" r="6" transform="translate(128.35 127.875)" fill="url(#radial-gradient)"/>
        <circle id="Ellipse_16-4" data-name="Ellipse 16" cx="6" cy="6" r="6" transform="translate(128.35 102.875)" fill="url(#radial-gradient)"/>
        <circle id="Ellipse_23-4" data-name="Ellipse 23" cx="6" cy="6" r="6" transform="translate(128.35 76.875)" fill="url(#radial-gradient)"/>
        <circle id="Ellipse_30-4" data-name="Ellipse 30" cx="6" cy="6" r="6" transform="translate(128.35 51.875)" fill="url(#radial-gradient)"/>
        <circle id="Ellipse_37-4" data-name="Ellipse 37" cx="6" cy="6" r="6" transform="translate(128.35 24.875)" fill="url(#radial-gradient)"/>
        <circle id="Ellipse_44-4" data-name="Ellipse 44" cx="6" cy="6" r="6" transform="translate(128.35 -0.125)" fill="url(#radial-gradient)"/>
        <circle id="Ellipse_4-4" data-name="Ellipse 4" cx="6" cy="6" r="6" transform="translate(76.35 154.875)" fill="url(#radial-gradient)"/>
        <circle id="Ellipse_11-4" data-name="Ellipse 11" cx="6" cy="6" r="6" transform="translate(76.35 127.875)" fill="url(#radial-gradient)"/>
        <circle id="Ellipse_18-4" data-name="Ellipse 18" cx="6" cy="6" r="6" transform="translate(76.35 102.875)" fill="url(#radial-gradient)"/>
        <circle id="Ellipse_25-4" data-name="Ellipse 25" cx="6" cy="6" r="6" transform="translate(76.35 76.875)" fill="url(#radial-gradient)"/>
        <circle id="Ellipse_32-4" data-name="Ellipse 32" cx="6" cy="6" r="6" transform="translate(76.35 51.875)" fill="url(#radial-gradient)"/>
        <circle id="Ellipse_39-4" data-name="Ellipse 39" cx="6" cy="6" r="6" transform="translate(76.35 24.875)" fill="url(#radial-gradient)"/>
        <circle id="Ellipse_46-4" data-name="Ellipse 46" cx="6" cy="6" r="6" transform="translate(76.35 -0.125)" fill="url(#radial-gradient)"/>
        <circle id="Ellipse_5-4" data-name="Ellipse 5" cx="6" cy="6" r="6" transform="translate(153.35 154.875)" fill="url(#radial-gradient)"/>
        <circle id="Ellipse_8-4" data-name="Ellipse 8" cx="6" cy="6" r="6" transform="translate(153.35 127.875)" fill="url(#radial-gradient)"/>
        <circle id="Ellipse_15-4" data-name="Ellipse 15" cx="6" cy="6" r="6" transform="translate(153.35 102.875)" fill="url(#radial-gradient)"/>
        <circle id="Ellipse_22-4" data-name="Ellipse 22" cx="6" cy="6" r="6" transform="translate(153.35 76.875)" fill="url(#radial-gradient)"/>
        <circle id="Ellipse_29-4" data-name="Ellipse 29" cx="6" cy="6" r="6" transform="translate(153.35 51.875)" fill="url(#radial-gradient)"/>
        <circle id="Ellipse_36-4" data-name="Ellipse 36" cx="6" cy="6" r="6" transform="translate(153.35 24.875)" fill="url(#radial-gradient)"/>
        <circle id="Ellipse_43-4" data-name="Ellipse 43" cx="6" cy="6" r="6" transform="translate(153.35 -0.125)" fill="url(#radial-gradient)"/>
      </g>
    </g>
    <path id="Union_4" data-name="Union 4" d="M-8990.312-2162.8h-23.979v-130.62a45.121,45.121,0,0,1-26.719-21.31v0s0,0,0,0,0,0,0-.005-.01-.016-.018-.03-.039-.071-.072-.122c-.059-.112-.148-.272-.268-.481-.236-.424-.582-1.041-1.025-1.833-.885-1.579-2.152-3.838-3.684-6.568-3.057-5.453-7.16-12.771-11.342-20.228-7.512-13.4-15.277-27.258-17.674-31.54-4.488,0-17.484-.008-21.74-.093a4.739,4.739,0,0,1-4.234-2.542c-.729-1.324-2.137-3.833-3.707-6.641-1.937-3.458-4.121-7.362-5.594-10.018a4.691,4.691,0,0,1,.016-4.711,4.763,4.763,0,0,1,4.086-2.455h44.021a4.733,4.733,0,0,1,4.225,2.525c2.555,4.589,12.621,22.528,22.066,39.347,4.732,8.433,9.311,16.58,12.7,22.62,1.7,3.02,3.1,5.513,4.072,7.25.49.87.871,1.55,1.133,2.012.129.231.23.41.3.53.031.06.055.1.072.133s.016.027.021.035a.013.013,0,0,1,0,.008s0,0,0,0a18.875,18.875,0,0,0,16.385,9.517,18.867,18.867,0,0,0,16.381-9.515v0s0-.006.006-.008l.018-.035c.016-.03.045-.076.076-.133.066-.12.168-.3.295-.531.262-.462.641-1.141,1.129-2.011.975-1.737,2.371-4.23,4.064-7.253,3.385-6.038,7.953-14.187,12.682-22.617,9.453-16.857,19.559-34.862,22.135-39.4l.008-.017a4.8,4.8,0,0,1,4.188-2.455h19.438a4.673,4.673,0,0,1,4.086,2.36l-4.059,2.368,4.059-2.368a4.685,4.685,0,0,1,.02,4.7c-4.242,7.609-15.49,27.663-25.672,45.812-5.09,9.074-9.918,17.676-13.471,24-1.775,3.167-3.232,5.766-4.25,7.571l-1.172,2.09c-.135.239-.238.424-.309.547-.033.062-.059.108-.078.138s-.018.027-.02.035a.012.012,0,0,1-.006.011h0a45.413,45.413,0,0,1-25.957,21.063V-2162.8Zm0-132.857h0Zm-31.582-29.455,1.957-1.127-.008,0Zm.84-.491,1.109-.632C-9020.4-2325.976-9020.764-2325.769-9021.055-2325.6Zm-54.67-51.062Zm156.637-19.594-1.764-1Zm-1.768-1-.482-.272Zm-188.854-1.908-.648-.381Z" transform="translate(10403.906 2780.793)" fill="url(#radial-gradient-197)"/>
  </g>
</svg>
