<svg width="69" height="53" viewBox="0 0 69 53" fill="none" xmlns="http://www.w3.org/2000/svg">
<rect opacity="0.2" y="0.680298" width="47.0151" height="47.0151"/>
<g clip-path="url(#clip0)">
<path fill-rule="evenodd" clip-rule="evenodd" d="M44.8798 47.3946C44.8798 47.5378 44.7985 47.6809 44.6764 47.7422C44.5544 47.824 44.3917 47.824 44.2697 47.7422C41.341 46.1066 28.8536 39.1349 28.8536 39.1349C26.2707 37.6833 24.6641 34.9436 24.6641 31.9791C24.6641 29.0146 26.2707 26.2749 28.8536 24.8233C28.8536 24.8233 39.897 18.6489 40.7512 18.1787C40.7919 18.1582 40.8123 18.1173 40.8123 18.0969C40.8123 17.6267 40.8123 14.5804 40.8123 13.7012C40.8123 13.5581 40.8936 13.415 41.0156 13.3536C41.6054 13.0265 43.3341 12.0656 44.2697 11.534C44.3917 11.4727 44.5544 11.4727 44.6764 11.534C44.7985 11.6158 44.8798 11.7385 44.8798 11.8816C44.8798 13.1901 44.8798 19.3645 44.8798 20.305C44.8798 20.4481 44.7985 20.5912 44.6764 20.673C42.9274 21.6543 30.8467 28.4012 30.8467 28.4012C29.5451 29.1168 28.7316 30.4866 28.7316 31.9791C28.7316 33.4716 29.5248 34.8414 30.8264 35.557C30.8264 35.557 42.9274 42.3038 44.6561 43.2852C44.7781 43.367 44.8595 43.4896 44.8595 43.6532C44.8798 44.3279 44.8798 46.3315 44.8798 47.3946Z" fill="white"/>
<path fill-rule="evenodd" clip-rule="evenodd" d="M48.7837 16.3979C48.7837 16.2548 48.865 16.1117 48.9871 16.0503C49.1091 15.9686 49.2718 15.9686 49.3938 16.0503C52.3225 17.686 64.8099 24.6577 64.8099 24.6577C67.3927 26.1093 68.9994 28.8489 68.9994 31.8135C68.9994 34.778 67.3927 37.5176 64.8099 38.9692C64.8099 38.9692 53.7664 45.1436 52.9123 45.6139C52.8716 45.6343 52.8512 45.6752 52.8512 45.6957C52.8512 46.1659 52.8512 49.2122 52.8512 50.0913C52.8512 50.2345 52.7699 50.3776 52.6479 50.4389C52.0581 50.766 50.3294 51.727 49.3938 52.2585C49.2718 52.3199 49.1091 52.3199 48.9871 52.2585C48.865 52.1767 48.7837 52.0541 48.7837 51.911C48.7837 50.6025 48.7837 44.4281 48.7837 43.4876C48.7837 43.3445 48.865 43.2014 48.9871 43.1196C50.7361 42.1382 62.8168 35.3914 62.8168 35.3914C64.1184 34.6758 64.9115 33.306 64.9115 31.8135C64.9115 30.321 64.1184 28.9512 62.8168 28.2356C62.8168 28.2356 50.7158 21.4887 48.9871 20.5074C48.865 20.4256 48.7837 20.3029 48.7837 20.1394C48.7837 19.4647 48.7837 17.4611 48.7837 16.3979Z" fill="white"/>
</g>
<defs>
<clipPath id="clip0">
<rect width="44.3363" height="40.8492" fill="white" transform="translate(24.6641 11.4706)"/>
</clipPath>
</defs>
</svg>
