<svg width="66" height="65" viewBox="0 0 66 65" fill="none" xmlns="http://www.w3.org/2000/svg">
<rect opacity="0.2" x="16.8623" y="16.0184" width="48.9816" height="48.9816"/>
<g clip-path="url(#clip0)">
<path fill-rule="evenodd" clip-rule="evenodd" d="M31.1998 3.17078H33.4856L31.5581 7.11127H29.2722L31.1998 3.17078ZM26.9523 7.12833H24.547L26.4576 3.17078H28.8628L26.9523 7.12833ZM19.7878 7.12833L21.7154 3.17078H24.1206L22.193 7.12833H19.9925H19.7878ZM17.4678 7.14539H15.0626L16.9902 3.17078H19.3954L17.4678 7.14539ZM10.3203 7.14539L12.2479 3.17078H14.6532L12.7256 7.14539H11.9238H10.3203ZM9.92799 3.17078L7.98333 7.14539H7.94922C7.24982 7.14539 6.56749 7.33303 5.93633 7.69125C4.72518 8.40771 3.97461 9.7212 3.97461 11.12V37.4241C3.97461 38.8399 4.72518 40.1363 5.93633 40.8528C7.14747 41.5692 8.66567 41.5863 9.89388 40.904L33.5539 27.7519C34.8162 27.0525 35.6009 25.722 35.6009 24.272C35.6009 22.8221 34.8162 21.4915 33.5539 20.7921L32.3598 20.1268L34.3045 16.6469L35.4985 17.3122C38.0232 18.711 39.5926 21.3892 39.5926 24.272C39.5926 27.172 38.0232 29.8331 35.4985 31.2319L11.8385 44.4009C9.36506 45.7656 6.36279 45.7315 3.92343 44.2986C1.48408 42.8657 0 40.2558 0 37.4241C0 30.0889 0 18.4551 0 11.12C0 8.32241 1.50114 5.69542 3.92343 4.26251C5.13458 3.54606 6.48219 3.18783 7.84687 3.17078H9.92799Z" fill="white"/>
</g>
<defs>
<clipPath id="clip0">
<rect width="39.6096" height="42.2366" fill="white" transform="translate(0 3.17078)"/>
</clipPath>
</defs>
</svg>
