<svg width="65" height="59" viewBox="0 0 65 59" fill="none" xmlns="http://www.w3.org/2000/svg">
<g clip-path="url(#clip0)">
<path fill-rule="evenodd" clip-rule="evenodd" d="M43.2253 57.6041C43.2253 57.7457 43.1443 57.8874 43.0229 57.9481C42.9015 58.029 42.7396 58.029 42.6182 57.9481C39.7041 56.3291 27.2787 49.4284 27.2787 49.4284C24.7086 47.9916 23.1099 45.2798 23.1099 42.3455C23.1099 39.4111 24.7086 36.6994 27.2787 35.2626C27.2787 35.2626 38.2673 29.1511 39.1172 28.6856C39.1577 28.6654 39.1779 28.6249 39.1779 28.6047C39.1779 28.1392 39.1779 25.1239 39.1779 24.2537C39.1779 24.1121 39.2589 23.9704 39.3803 23.9097C39.9672 23.5859 41.6873 22.6348 42.6182 22.1086C42.7396 22.0479 42.9015 22.0479 43.0229 22.1086C43.1443 22.1896 43.2253 22.311 43.2253 22.4527C43.2253 23.7478 43.2253 29.8391 43.2253 30.7902C43.2253 30.9319 43.1443 31.0736 43.0229 31.1545C41.2826 32.1259 29.2619 38.804 29.2619 38.804C27.9667 39.5123 27.1572 40.8682 27.1572 42.3455C27.1572 43.8228 27.9465 45.1786 29.2416 45.8869C29.2416 45.8869 41.2826 52.5651 43.0027 53.5365C43.1241 53.6174 43.2051 53.7388 43.2051 53.9007C43.2253 54.5685 43.2253 56.5518 43.2253 57.6041Z" fill="white"/>
<path fill-rule="evenodd" clip-rule="evenodd" d="M51.7647 35.7074C51.5624 35.8288 51.3195 35.7479 51.2184 35.5658C50.7934 34.817 49.7815 33.0766 49.3566 32.3279C49.2351 32.1255 49.3161 31.8827 49.4982 31.7815C51.1779 30.8101 58.3822 26.6615 60.0619 25.6902C60.2642 25.5688 60.5071 25.6497 60.6082 25.8318C61.0332 26.5806 62.0451 28.321 62.47 29.0697C62.5915 29.2721 62.5105 29.5149 62.3284 29.6161C60.6487 30.5875 53.4444 34.7361 51.7647 35.7074Z" fill="white"/>
<path fill-rule="evenodd" clip-rule="evenodd" d="M49.4984 52.848C49.296 52.7266 49.2353 52.4837 49.3567 52.3016C49.7817 51.5528 50.7935 49.8125 51.2185 49.0637C51.3399 48.8613 51.5828 48.8006 51.7649 48.922C53.4446 49.8934 60.6489 54.042 62.3286 55.0133C62.5309 55.1348 62.5916 55.3776 62.4702 55.5597C62.0452 56.3085 61.0334 58.0489 60.6084 58.7976C60.487 59 60.2442 59.0607 60.062 58.9393C58.3824 57.9882 51.178 53.8194 49.4984 52.848Z" fill="white"/>
<path fill-rule="evenodd" clip-rule="evenodd" d="M52.392 44.5711C52.1694 44.5711 51.9873 44.389 51.9873 44.1664C51.9873 43.2962 51.9873 41.2928 51.9873 40.4428C51.9873 40.2202 52.1694 40.0381 52.392 40.0381C54.3348 40.0381 62.6521 40.0381 64.5746 40.0381C64.7972 40.0381 64.9794 40.2202 64.9794 40.4428C64.9794 41.313 64.9794 43.3165 64.9794 44.1664C64.9794 44.389 64.7972 44.5711 64.5746 44.5711C62.6521 44.5711 54.3348 44.5711 52.392 44.5711Z" fill="white"/>
</g>
<rect opacity="0.2" x="0.327148" width="44.8299" height="44.8299"/>
<defs>
<clipPath id="clip0">
<rect width="41.8903" height="36.9525" fill="white" transform="translate(23.1099 22.0475)"/>
</clipPath>
</defs>
</svg>
