<svg xmlns="http://www.w3.org/2000/svg" width="94" height="57.892" viewBox="0 0 94 57.892">
  <g id="Group_54" data-name="Group 54" transform="translate(-1198 -864)">
    <g id="noun_Arrow_26660" transform="translate(1137.358 798.108)">
      <path id="Path_175" data-name="Path 175" d="M153.175,108.74a2.515,2.515,0,1,1-3.561,0,2.516,2.516,0,0,1,3.561,0Z" transform="translate(-32.998 -0.002)" fill="#ccc"/>
      <path id="Path_176" data-name="Path 176" d="M139.543,122.365a2.515,2.515,0,1,1-3.555,0,2.511,2.511,0,0,1,3.555,0Z" transform="translate(-24.749 -8.251)" fill="#ccc"/>
      <path id="Path_177" data-name="Path 177" d="M125.919,135.993a2.515,2.515,0,1,1-3.556,0,2.516,2.516,0,0,1,3.556,0Z" transform="translate(-16.499 -16.501)" fill="#ccc"/>
      <path id="Path_179" data-name="Path 179" d="M112.289,122.365a2.516,2.516,0,1,1-3.557,0,2.517,2.517,0,0,1,3.557,0Z" transform="translate(-8.247 -8.251)" fill="#ccc"/>
      <path id="Path_180" data-name="Path 180" d="M98.663,108.739a2.513,2.513,0,1,1-3.553,0,2.511,2.511,0,0,1,3.553,0Z" fill="#ccc"/>
    </g>
    <text id="learn_more" data-name="learn more" transform="translate(1198 882)" fill="#ccc" font-size="17" font-family="Poppins-Regular, Poppins"><tspan x="0" y="0">learn more</tspan></text>
  </g>
</svg>
