<svg xmlns="http://www.w3.org/2000/svg" width="211.999" height="188.395" viewBox="0 0 211.999 188.395">
  <g id="Group_318" data-name="Group 318" transform="translate(0)">
    <path id="Path_635" data-name="Path 635" d="M739.048,657.449l2.786-10.345a34.566,34.566,0,0,1,16.625-.488c-8.932,4.5-10.634,16.625-17.606,23.8a20.792,20.792,0,0,1-16.968,6.073l-7.187,2.468a34.841,34.841,0,0,1,13.292-25.969,33.653,33.653,0,0,1,7.284-4.269C737.9,653.048,739.048,657.449,739.048,657.449Z" transform="translate(-574.517 -490.916)" fill="#f2f2f2"/>
    <path id="Path_636" data-name="Path 636" d="M295.847,592.225l-4.7-17.46a58.341,58.341,0,0,0-28.059-.823c15.076,7.6,17.948,28.059,29.714,40.165a35.093,35.093,0,0,0,28.638,10.25l12.129,4.165a58.8,58.8,0,0,0-22.433-43.829,56.8,56.8,0,0,0-12.294-7.2C297.782,584.8,295.847,592.225,295.847,592.225Z" transform="translate(-261.546 -440.402)" fill="#f2f2f2"/>
    <path id="Path_637" data-name="Path 637" d="M553.648,190.947h0V162.594a16.41,16.41,0,0,0-16.41-16.41H477.169a16.41,16.41,0,0,0-16.41,16.41V318.139a16.41,16.41,0,0,0,16.41,16.41h60.069a16.41,16.41,0,0,0,16.41-16.41V211.129h0a1.035,1.035,0,0,0,1.035-1.035V191.982a1.035,1.035,0,0,0-1.035-1.035Z" transform="translate(-397.931 -146.184)" fill="#3f3d56"/>
    <path id="Path_638" data-name="Path 638" d="M560.232,172.207v155.32a12.247,12.247,0,0,1-12.121,12.248,1.078,1.078,0,0,1-.133.006H487.617a12.254,12.254,0,0,1-12.253-12.252V172.207a12.254,12.254,0,0,1,12.252-12.253h7.326a5.826,5.826,0,0,0,5.392,8.024h34.413a5.831,5.831,0,0,0,5.386-8.024h7.845a12.254,12.254,0,0,1,12.253,12.252Z" transform="translate(-408.008 -155.684)" fill="#fff"/>
    <path id="Path_639" data-name="Path 639" d="M458.721,314.362a1.4,1.4,0,0,1-1.4-1.4v-9.5a1.4,1.4,0,0,1,2.794,0v9.5A1.4,1.4,0,0,1,458.721,314.362Z" transform="translate(-395.561 -253.738)" fill="#3f3d56"/>
    <path id="Path_640" data-name="Path 640" d="M457.82,254.891a1.4,1.4,0,0,1-1.4-1.4V244a1.4,1.4,0,1,1,2.794,0v9.5A1.4,1.4,0,0,1,457.82,254.891Z" transform="translate(-394.939 -212.706)" fill="#3f3d56"/>
    <path id="Path_641" data-name="Path 641" d="M580.771,162a1.4,1.4,0,0,1,1.4-1.4h9.5a1.4,1.4,0,1,1,0,2.794h-9.5a1.4,1.4,0,0,1-1.4-1.4Z" transform="translate(-480.733 -156.131)" fill="#fff"/>
    <path id="Path_642" data-name="Path 642" d="M458.721,366.624a1.4,1.4,0,0,1-1.4-1.4v-9.5a1.4,1.4,0,0,1,2.794,0v9.5A1.4,1.4,0,0,1,458.721,366.624Z" transform="translate(-395.561 -289.796)" fill="#3f3d56"/>
    <circle id="Ellipse_24" data-name="Ellipse 24" cx="1.397" cy="1.397" r="1.397" transform="translate(114.844 4.47)" fill="#fff"/>
    <path id="Path_643" data-name="Path 643" d="M332.955,542.07h3.76l1.788-14.5h-5.549Z" transform="translate(-229.723 -363.998)" fill="#9e616a"/>
    <path id="Path_644" data-name="Path 644" d="M587.981,712.826h1.058l4.131-1.68,2.214,1.68h0a4.719,4.719,0,0,1,4.718,4.718v.154H587.982Z" transform="translate(-485.708 -535.982)" fill="#2f2e41"/>
    <path id="Path_645" data-name="Path 645" d="M389.289,542.07h3.76l1.788-14.5h-5.549Z" transform="translate(-268.591 -363.998)" fill="#9e616a"/>
    <path id="Path_646" data-name="Path 646" d="M644.315,712.826h1.058l4.131-1.68,2.214,1.68h0a4.719,4.719,0,0,1,4.718,4.718v.154H644.315Z" transform="translate(-524.576 -535.982)" fill="#2f2e41"/>
    <path id="Path_647" data-name="Path 647" d="M591.369,464.572l-29.538.771.514,14.384s-.514,3.853.514,4.88,1.541,1.027,1.027,2.825,2.2,4.735,1.871,5.064a13.291,13.291,0,0,0-1.1,2.128l2.569,14.641s1.8,25.429,2.312,25.942,1.027,0,.514,1.284-1.027.771-.514,1.284a18.933,18.933,0,0,1,1.284,1.541h6.21s.468-2.569.468-2.825.514-1.8.514-2.055-.454-.711-.454-.711a8.455,8.455,0,0,1-.317-1.6c0-.514-1.541-20.292-1.541-20.292l3.082-25.685,7.449,25.172s0,22.089.514,22.6.514.257.257,1.284-1.284.771-.514,1.541,1.027-.514.771.771L587,538.8l7.706.11s1.027-2.165.514-2.936-.483-.56.144-1.821.884-1.518.627-1.775-.257-1.623-.257-1.623l-1.284-24.576s-.257-25.942-.257-26.713a2.562,2.562,0,0,1,.213-1.156v-1.046l-.984-3.706Z" transform="translate(-467.665 -365.857)" fill="#2f2e41"/>
    <circle id="Ellipse_25" data-name="Ellipse 25" cx="7.963" cy="7.963" r="7.963" transform="translate(92.631 31.203)" fill="#ffeac9"/>
    <path id="Path_648" data-name="Path 648" d="M557.928,253.991l-.322-.258a1.862,1.862,0,0,0-1.2-.405.954.954,0,0,0-.651.434.379.379,0,0,1-.388.165c-.758-.119-2.125-2.361-2.815-4.613-.425-1.389-.926-3.9.454-5.246.107-.607,1.208-6.079,6.047-6.231,4.979-.158,8.293.847,9.093,2.753.136.324.273.706.408,1.134a1.165,1.165,0,0,1-.3,1.206,1.217,1.217,0,0,1-1.109.316,2.254,2.254,0,0,1-.19.708,3.022,3.022,0,0,1-2.789,1.568,6.347,6.347,0,0,1-2.181-.421l2.015,1.55-4.814-.6,1.577.843-.316.15a4.851,4.851,0,0,0-2.823,5.212Z" transform="translate(-460.952 -209.409)" fill="#2f2e41"/>
    <path id="Path_649" data-name="Path 649" d="M575.469,346.672c1.12-1.935.053-4.73.053-4.73s2.9-4.286,2.187-6.113L574.3,309.38a9.161,9.161,0,0,0-3.556-4.268c-.683-.39-4.268-.237-5.054-.23l-2.553-1.092c-.148.542-2.934-5.1-2.948-4.543a31.741,31.741,0,0,0-5.69.711c-4.8.81-2.383,5.15-2.079,5.663a2.516,2.516,0,0,0-.364.051,14.13,14.13,0,0,0-2.76,1.963l-3.816,3.389c-5.751,4.513-4.463,11.555-4.463,11.555l8.386,8.439-3.674,16.932s1.561,2.514.754,3.642,7.113.8,7.113.8c5.466,2.436,24.724.377,24.724.377C578.048,352.074,575.469,346.672,575.469,346.672Z" transform="translate(-453.217 -251.763)" fill="#e6e6e6"/>
    <path id="Path_650" data-name="Path 650" d="M258.487,752.173h211.26a.369.369,0,0,0,0-.738H258.487a.369.369,0,1,0,0,.738Z" transform="translate(-258.118 -563.779)" fill="#cacaca"/>
    <path id="Path_651" data-name="Path 651" d="M544.006,557.092q0,2.414-.152,4.787a.918.918,0,0,1-.133.006h-60.36a12.257,12.257,0,0,1-11.887-9.27,11.56,11.56,0,0,1-.264-1.405,12.034,12.034,0,0,1-.1-1.578V480.414a76.671,76.671,0,0,1,13.785,1.947c.443.1.884.211,1.321.322.028.006.056.016.084.022.443.112.884.229,1.321.35a76.374,76.374,0,0,1,25.811,12.709c.443.332.884.673,1.321,1.017l.084.065q1.1.865,2.161,1.773c.158.133.316.27.471.409.381.329.763.664,1.135,1a76.934,76.934,0,0,1,19.161,26.683c.146.332.285.667.425,1l.167.409c.053.124.1.248.152.372A76.6,76.6,0,0,1,544.006,557.092Z" transform="translate(-405.071 -376.787)" fill="#3f3d56"/>
    <path id="Path_652" data-name="Path 652" d="M519.093,555.26a22.082,22.082,0,0,1,22.088-22.085h.112l-.167-.409c-.14-.335-.279-.67-.425-1H519.093V504.08H520.4c-.155-.14-.313-.276-.471-.409q-1.065-.907-2.161-1.773l-.084-.065v.837H490.557V488.106c-.437-.121-.878-.239-1.321-.35-.028-.006-.056-.016-.084-.022v14.935H475.367v1.411h13.785v27.684H475.367v1.411h13.785V555.26H475.47a11.572,11.572,0,0,0,.264,1.4h13.419v9.27h1.4v-9.27h27.132v9.27h1.4v-9.27h23.672v-1.4Zm-1.4,0H490.557V533.175h27.132Zm0-23.5H490.557v-.552a27.132,27.132,0,0,1,27.132-27.132Z" transform="translate(-408.01 -381.838)" opacity="0.2"/>
    <path id="Path_653" data-name="Path 653" d="M557.177,471.734a2.868,2.868,0,0,1,.64-4.351L554.2,453.162l4.946,1.9,2.749,13.429a2.884,2.884,0,0,1-4.717,3.248Z" transform="translate(-462.401 -357.985)" fill="#ffeac9"/>
    <path id="Path_654" data-name="Path 654" d="M540.369,365.862l-.447,5.679s-.555,6.239-.41,7.393.416,8.2.416,8.2l4.708,9.314,5.335-1.423-.319-4.369.319,4.014.711-3.556-1.778-6.046,1.067-2.134-.538-7.163Z" transform="translate(-452.251 -297.752)" fill="#e6e6e6"/>
    <path id="Path_655" data-name="Path 655" d="M760.165,486.3a3.79,3.79,0,0,0-2.488-1.325,3.891,3.891,0,0,0-.415-.023l-71.5-.067A3.784,3.784,0,0,0,683,486.076a3.959,3.959,0,0,0-1.045,2.733l-.011,11.615a14.391,14.391,0,0,0,1.336,6.094,16.221,16.221,0,0,1-2.438,5.225,3.243,3.243,0,0,0,2.876,5.085,21.946,21.946,0,0,0,2.249-.256,15.171,15.171,0,0,0,6.062-2.361,14.491,14.491,0,0,0,4.342.668l50.276.047a14.3,14.3,0,0,0,10.2-4.227,14.726,14.726,0,0,0,4.206-10.409l.011-11.4A3.966,3.966,0,0,0,760.165,486.3Z" transform="translate(-549.377 -379.875)" fill="#3e53d2"/>
    <path id="Path_656" data-name="Path 656" d="M786.864,514.93l-39.962-.037a.869.869,0,0,1,0-1.739l39.962.037a.869.869,0,0,1,0,1.739Z" transform="translate(-594.757 -399.376)" fill="#fff"/>
    <path id="Path_657" data-name="Path 657" d="M786.848,532.143l-39.962-.037a.869.869,0,0,1,0-1.739l39.962.037a.87.87,0,0,1,0,1.739Z" transform="translate(-594.746 -411.252)" fill="#fff"/>
    <path id="Path_658" data-name="Path 658" d="M751.527,549.323l-4.657,0a.869.869,0,1,1,0-1.739l4.657,0a.869.869,0,0,1,0,1.739Z" transform="translate(-594.735 -423.129)" fill="#fff"/>
    <path id="Path_659" data-name="Path 659" d="M259.314,341.3a3.79,3.79,0,0,1,2.488-1.325,3.876,3.876,0,0,1,.415-.023l71.5-.067a3.784,3.784,0,0,1,2.765,1.187,3.96,3.96,0,0,1,1.045,2.733l.011,11.615a14.392,14.392,0,0,1-1.336,6.093,16.216,16.216,0,0,0,2.438,5.225,3.243,3.243,0,0,1-2.876,5.085,21.934,21.934,0,0,1-2.249-.256,15.173,15.173,0,0,1-6.062-2.361,14.486,14.486,0,0,1-4.342.668l-50.276.047a14.3,14.3,0,0,1-10.2-4.227,14.727,14.727,0,0,1-4.206-10.409l-.011-11.4A3.966,3.966,0,0,1,259.314,341.3Z" transform="translate(-258.322 -279.831)" fill="#3e53d2"/>
    <path id="Path_660" data-name="Path 660" d="M318.765,369.061a.871.871,0,0,1,.869-.87l39.962-.037a.869.869,0,1,1,0,1.739l-39.962.037A.87.87,0,0,1,318.765,369.061Z" transform="translate(-299.962 -299.333)" fill="#fff"/>
    <path id="Path_661" data-name="Path 661" d="M318.781,386.275a.871.871,0,0,1,.869-.87l39.962-.037a.869.869,0,0,1,0,1.739l-39.962.037a.87.87,0,0,1-.87-.869Z" transform="translate(-299.973 -311.209)" fill="#fff"/>
    <path id="Path_662" data-name="Path 662" d="M432.666,403.455a.871.871,0,0,1,.869-.87l4.657,0a.869.869,0,1,1,0,1.739l-4.657,0a.871.871,0,0,1-.87-.869Z" transform="translate(-378.548 -323.085)" fill="#fff"/>
    <path id="Path_663" data-name="Path 663" d="M709.863,257a3.048,3.048,0,0,0-1.078,4.547l-6.079,8.964,5.628.073,4.91-8.524a3.064,3.064,0,0,0-3.38-5.061Z" transform="translate(-564.863 -222.412)" fill="#ffeac9"/>
    <path id="Path_664" data-name="Path 664" d="M655.6,281.3l-9.365,17.221-.083.005c-.069,0-3.048.2-6.688.4-.614.033-.975,1.122-1.616,1.155-.441.022-2.07,2.069-2.515,2.09-3.967.189-6.242,2-7.751,1.86-2.046-.17-4.771-5.8-6.258-7.214l-.035-.037-.005-.051a4.565,4.565,0,0,1,3.106-4.791,32.337,32.337,0,0,1,14.782-1.234l2.819.424,8.557-11.493Z" transform="translate(-508.671 -238.263)" fill="#e6e6e6"/>
    <path id="Path_665" data-name="Path 665" d="M717.165,174.3a3.79,3.79,0,0,0-2.488-1.325,3.883,3.883,0,0,0-.415-.023l-71.5-.067A3.784,3.784,0,0,0,640,174.076a3.959,3.959,0,0,0-1.045,2.733l-.011,11.615a14.391,14.391,0,0,0,1.336,6.094,16.217,16.217,0,0,1-2.438,5.225,3.242,3.242,0,0,0,2.876,5.085,21.955,21.955,0,0,0,2.249-.256,15.172,15.172,0,0,0,6.062-2.361,14.488,14.488,0,0,0,4.342.668l50.276.047a14.3,14.3,0,0,0,10.2-4.227,14.726,14.726,0,0,0,4.206-10.409l.011-11.4a3.967,3.967,0,0,0-.9-2.584Z" transform="translate(-519.709 -164.609)" fill="#3e53d2"/>
    <path id="Path_666" data-name="Path 666" d="M743.864,202.93l-39.962-.037a.869.869,0,1,1,0-1.739l39.962.037a.869.869,0,0,1,0,1.739Z" transform="translate(-565.089 -184.111)" fill="#fff"/>
    <path id="Path_667" data-name="Path 667" d="M743.848,220.143l-39.962-.037a.869.869,0,0,1,0-1.739l39.962.037a.869.869,0,0,1,0,1.739Z" transform="translate(-565.078 -195.987)" fill="#fff"/>
    <path id="Path_668" data-name="Path 668" d="M708.527,237.323l-4.657,0a.869.869,0,0,1,0-1.739l4.657,0a.869.869,0,0,1,0,1.739Z" transform="translate(-565.067 -207.863)" fill="#fff"/>
  </g>
</svg>
