<svg id="Group_319" data-name="Group 319" xmlns="http://www.w3.org/2000/svg" width="309.351" height="188.394" viewBox="0 0 309.351 188.394">
  <path id="Path_438" data-name="Path 438" d="M171.671,641.8a8.037,8.037,0,0,0,7.761-1.367c2.718-2.282,3.571-6.04,4.264-9.52l2.051-10.3-4.294,2.957c-3.088,2.126-6.246,4.321-8.384,7.4s-3.071,7.285-1.354,10.617" transform="translate(-158.601 -469.788)" fill="#e6e6e6"/>
  <path id="Path_439" data-name="Path 439" d="M173.68,672.652a51.644,51.644,0,0,1-.717-11.906,18.728,18.728,0,0,1,3.611-9.818,16.331,16.331,0,0,1,4.19-3.8c.419-.264.8.4.387.663a15.527,15.527,0,0,0-6.142,7.41,24.888,24.888,0,0,0-1.322,10.721c.139,2.185.435,4.355.732,6.523a.4.4,0,0,1-.268.472.386.386,0,0,1-.472-.268Z" transform="translate(-159.947 -487.46)" fill="#f2f2f2"/>
  <path id="Path_442" data-name="Path 442" d="M187.1,692.215a5.917,5.917,0,0,0,5.155,2.662c2.61-.124,4.786-1.945,6.744-3.674l5.793-5.115-3.834-.184a23,23,0,0,0-8.211.6c-2.626.851-5.048,2.9-5.528,5.614" transform="translate(-169.472 -513.343)" fill="#e6e6e6"/>
  <path id="Path_443" data-name="Path 443" d="M170.67,707.047c2.6-4.6,5.62-9.721,11.013-11.357a12.293,12.293,0,0,1,4.632-.478c.492.042.369.8-.122.758a11.417,11.417,0,0,0-7.392,1.956,19.213,19.213,0,0,0-5.081,5.483c-.841,1.281-1.6,2.617-2.349,3.951C171.131,707.786,170.426,707.479,170.67,707.047Z" transform="translate(-158.465 -519.593)" fill="#f2f2f2"/>
  <rect id="Rectangle_62" data-name="Rectangle 62" width="215.207" height="102.119" transform="translate(58.17 5.9)" fill="#e6e6e6"/>
  <rect id="Rectangle_75" data-name="Rectangle 75" width="202.899" height="85.201" transform="translate(64.324 14.657)" fill="#fff"/>
  <path id="Rectangle_80" data-name="Rectangle 80" d="M0,0H215.207V9.143H0Z" transform="translate(58.078)" fill="#3e53d2"/>
  <circle id="Ellipse_90" data-name="Ellipse 90" cx="1.695" cy="1.695" r="1.695" transform="translate(63.178 2.534)" fill="#fff"/>
  <circle id="Ellipse_91" data-name="Ellipse 91" cx="1.695" cy="1.695" r="1.695" transform="translate(69.61 2.534)" fill="#fff"/>
  <circle id="Ellipse_92" data-name="Ellipse 92" cx="1.695" cy="1.695" r="1.695" transform="translate(76.042 2.534)" fill="#fff"/>
  <path id="Path_669" data-name="Path 669" d="M472.167,339.274H574.715V321.7a13.918,13.918,0,0,0-4.269-9.913l-.028-.027c-1.831-1.838-7.952-6.5-14.286-6.106a11.433,11.433,0,0,0-8.513,4.792c-7.169,9.253-16.587,6.13-21.562,3.444a25.68,25.68,0,0,0-13.311-3.3,26.132,26.132,0,0,0-21.391,12.088c-2.442,3.644-7.753,8.591-19.188,11.5Z" transform="translate(-359.922 -259.351)" fill="#e4e4e4" style="isolation: isolate"/>
  <path id="Path_670" data-name="Path 670" d="M580.233,302.529H472.081a.338.338,0,0,1-.338-.338V250.354a.338.338,0,1,1,.677,0v51.5H580.233a.338.338,0,0,1,0,.677Z" transform="translate(-359.638 -222.197)" fill="#3f3d56"/>
  <rect id="Rectangle_124" data-name="Rectangle 124" width="0.664" height="19.458" transform="translate(132.351 60.398)" fill="#3f3d56"/>
  <rect id="Rectangle_125" data-name="Rectangle 125" width="0.664" height="28.545" transform="translate(152.225 51.31)" fill="#3f3d56"/>
  <rect id="Rectangle_126" data-name="Rectangle 126" width="0.664" height="22.571" transform="translate(172.14 57.285)" fill="#3f3d56"/>
  <rect id="Rectangle_127" data-name="Rectangle 127" width="0.664" height="33.524" transform="translate(192.056 46.332)" fill="#3f3d56"/>
  <rect id="Rectangle_128" data-name="Rectangle 128" width="0.664" height="25.89" transform="translate(211.971 53.966)" fill="#3f3d56"/>
  <circle id="Ellipse_26" data-name="Ellipse 26" cx="2.031" cy="2.031" r="2.031" transform="translate(150.567 49.737)" fill="#3e53d2"/>
  <circle id="Ellipse_27" data-name="Ellipse 27" cx="2.031" cy="2.031" r="2.031" transform="translate(190.398 44.426)" fill="#3e53d2"/>
  <circle id="Ellipse_28" data-name="Ellipse 28" cx="2.031" cy="2.031" r="2.031" transform="translate(170.483 55.38)" fill="#3e53d2"/>
  <circle id="Ellipse_29" data-name="Ellipse 29" cx="2.031" cy="2.031" r="2.031" transform="translate(130.652 58.367)" fill="#3e53d2"/>
  <circle id="Ellipse_30" data-name="Ellipse 30" cx="2.031" cy="2.031" r="2.031" transform="translate(210.313 51.729)" fill="#3e53d2"/>
  <path id="Path_671" data-name="Path 671" d="M136.912,523.877h4.069l1.936-15.7h-6.006Z" transform="translate(-91.467 -339.505)" fill="#ffeac9"/>
  <path id="Path_672" data-name="Path 672" d="M267.785,717.673H275.8a5.107,5.107,0,0,1,5.107,5.107v.166H267.786Z" transform="translate(-223.379 -534.629)" fill="#2f2e41"/>
  <path id="Path_673" data-name="Path 673" d="M194.912,523.877h4.069l1.936-15.7h-6.006Z" transform="translate(-130.216 -339.505)" fill="#ffeac9"/>
  <path id="Path_674" data-name="Path 674" d="M325.785,717.673H333.8a5.107,5.107,0,0,1,5.107,5.107v.166H325.786Z" transform="translate(-262.128 -534.629)" fill="#2f2e41"/>
  <path id="Path_675" data-name="Path 675" d="M322.264,430.62a3.566,3.566,0,0,0-.834-5.4l-6.622-31.794-7.215,2.843,8.778,30.359a3.585,3.585,0,0,0,5.893,4Z" transform="translate(-249.974 -318.005)" fill="#ffeac9"/>
  <path id="Path_676" data-name="Path 676" d="M250.037,482.879l-3,3.045s-3.216,11.784,2.938,26.318l4.116,42.137,7.405.558,2.211-49.023,10.2,16.273-1.782,32.577,8.186-.188,3.7-36.1-10.1-37.668Z" transform="translate(-208.957 -376.386)" fill="#2f2e41"/>
  <path id="Path_677" data-name="Path 677" d="M261.808,406.133a114.835,114.835,0,0,1-13.509-.892l-.18-.024,4.47-19.645L251.05,360.3l14.534-.5a5.341,5.341,0,0,1,5.478,4.569l2.975,20.166,2.752,17.891-.037.054C274.774,405.377,268.163,406.133,261.808,406.133Z" transform="translate(-210.24 -295.539)" fill="#3e53d2"/>
  <path id="Path_678" data-name="Path 678" d="M296.752,363.288l2.953-3.7s5.177-3.54,6.815,4.046,4.683,19.9,4.683,19.9l-10.123.82Z" transform="translate(-242.731 -294.848)" fill="#3e53d2"/>
  <path id="Path_679" data-name="Path 679" d="M210.659,431.621a3.566,3.566,0,0,1,.834-5.4l6.622-31.794,7.215,2.843-8.778,30.359a3.585,3.585,0,0,1-5.893,4Z" transform="translate(-184.622 -318.673)" fill="#ffeac9"/>
  <path id="Path_680" data-name="Path 680" d="M238.4,364.288l-2.953-3.7s-5.177-3.54-6.815,4.046-4.683,19.9-4.683,19.9l10.123.82Z" transform="translate(-194.092 -295.516)" fill="#3e53d2"/>
  <path id="Path_681" data-name="Path 681" d="M263.223,306.579H243.972a1.5,1.5,0,0,1-1.494-1.494v-8.3a11.119,11.119,0,1,1,22.239,0v8.3a1.5,1.5,0,0,1-1.494,1.494Z" transform="translate(-206.472 -246.016)" fill="#2f2e41"/>
  <circle id="Ellipse_31" data-name="Ellipse 31" cx="8.152" cy="8.152" r="8.152" transform="translate(41.099 43.758)" fill="#ffeac9"/>
  <path id="Path_682" data-name="Path 682" d="M278.655,303.63H266.883l-.121-1.69-.6,1.69h-1.813l-.239-3.35-1.2,3.35H259.4v-.166a8.806,8.806,0,0,1,8.8-8.8h1.66a8.806,8.806,0,0,1,8.8,8.8Z" transform="translate(-217.779 -252.029)" fill="#2f2e41"/>
  <path id="Path_683" data-name="Path 683" d="M263.766,321.553a1.526,1.526,0,0,1-.264-.023l-8.62-1.521V305.763h9.489l-.235.274c-3.268,3.812-.806,9.993.953,13.338a1.472,1.472,0,0,1-.117,1.562,1.488,1.488,0,0,1-1.205.616Z" transform="translate(-214.759 -259.441)" fill="#2f2e41"/>
  <path id="Path_684" data-name="Path 684" d="M852.236,523.877h-4.069l-1.936-15.7h6.006Z" transform="translate(-565.349 -339.505)" fill="#ffeac9"/>
  <path id="Path_685" data-name="Path 685" d="M975.04,722.946H961.919v-.166a5.107,5.107,0,0,1,5.107-5.107h8.015Z" transform="translate(-687.115 -534.629)" fill="#2f2e41"/>
  <path id="Path_686" data-name="Path 686" d="M808.236,523.877h-4.069l-1.936-15.7h6.006Z" transform="translate(-535.953 -339.505)" fill="#ffeac9"/>
  <path id="Path_687" data-name="Path 687" d="M931.04,722.946H917.919v-.166a5.107,5.107,0,0,1,5.107-5.107h8.015Z" transform="translate(-657.72 -534.629)" fill="#2f2e41"/>
  <path id="Path_688" data-name="Path 688" d="M810.045,378.124a3.783,3.783,0,0,0,5.787.4l8.052,3.144,3.1-4.427-11.433-4.281a3.8,3.8,0,0,0-5.51,5.167Z" transform="translate(-585.155 -303.736)" fill="#ffeac9"/>
  <path id="Path_689" data-name="Path 689" d="M798.831,304.925l-10.6,3.458,3.542,75.079,8.182.2,4.187-52.947.951,52.738,10.117.558,3.729-79.089Z" transform="translate(-526.599 -203.714)" fill="#2f2e41"/>
  <path id="Path_690" data-name="Path 690" d="M925.677,325.894l27.209-5.912,3.026,23.429-2.52,11.194,1.009,17.012s-21.515,10.708-32.173,1.993c0,0,8.567-22.5,3.6-33.034Z" transform="translate(-660.599 -268.941)" fill="#3f3d56"/>
  <path id="Path_691" data-name="Path 691" d="M873.337,341.091l-4.712-3.314s-.278-.385-4.205,4.205-11.893,11.893-11.893,11.893L839.25,348.9l-2.419,8.937,15.43,7.191,21.846-14.59Z" transform="translate(-603.546 -280.824)" fill="#3f3d56"/>
  <path id="Path_692" data-name="Path 692" d="M1008.2,468.169a3.783,3.783,0,0,0,1.468-5.612l4.589-7.325-3.771-3.875-6.336,10.436a3.8,3.8,0,0,0,4.05,6.376Z" transform="translate(-714.396 -356.71)" fill="#ffeac9"/>
  <path id="Path_693" data-name="Path 693" d="M1001.807,324.339l4.244-4.615s4.729-1.647,8.592,6.862,8.178,25.769,8.178,25.769l-10.089,19.433-7.835-3.5,7.835-16.069-8.291-11.9Z" transform="translate(-713.763 -268.683)" fill="#3f3d56"/>
  <circle id="Ellipse_32" data-name="Ellipse 32" cx="8.832" cy="8.832" r="8.832" transform="translate(264.623 37.856) rotate(-28.663)" fill="#ffeac9"/>
  <path id="Path_694" data-name="Path 694" d="M956.449,259.7l.428-.862-2.154-1.07s-2.377-3.867-6.678-2.78-6.236,1.737-6.236,1.737L939.66,257.8l1.079,1.073-1.935.65,1.293.642-1.5.865.81,4.432s1.345-3.361,3.93-2.077,7.314-.664,7.314-.664l4.109,7.951s.848-2.787,2.359-2.044C957.114,268.633,960.974,262.484,956.449,259.7Z" transform="translate(-671.531 -225.389)" fill="#2f2e41"/>
  <path id="Path_695" data-name="Path 695" d="M233.576,732.457H134.332a.332.332,0,1,1,0-.664h99.245a.332.332,0,1,1,0,.664Z" transform="translate(-134 -544.063)" fill="#cacaca"/>
  <path id="Path_696" data-name="Path 696" d="M911.342,732.457h-76.01a.332.332,0,1,1,0-.664h76.01a.332.332,0,1,1,0,.664Z" transform="translate(-602.323 -544.063)" fill="#cacaca"/>
</svg>
