<svg xmlns="http://www.w3.org/2000/svg" width="291.1" height="183.561" viewBox="0 0 291.1 183.561">
  <g id="Group_317" data-name="Group 317" transform="translate(0)">
    <path id="Path_567" data-name="Path 567" d="M631.64,143.713A47.983,47.983,0,0,1,693.3,158.261l-.48.341a47.325,47.325,0,0,0-77.2,54.757l-.48.341a47.938,47.938,0,0,1,16.508-69.986Z" transform="translate(-458.907 -138.082)" fill="#e6e6e6"/>
    <path id="Path_568" data-name="Path 568" d="M895.4,207.528l-68.927-5.362a4.053,4.053,0,0,1-3.722-4.35l2.988-33.489a4.053,4.053,0,0,1,4.35-3.722l68.927,5.362a4.053,4.053,0,0,1,3.722,4.35l-2.988,33.489A4.053,4.053,0,0,1,895.4,207.528Z" transform="translate(-611.645 -153.969)" fill="#e6e6e6"/>
    <path id="Path_569" data-name="Path 569" d="M888.669,222.03q-.785,0-1.575-.061L842.548,218.5a6.8,6.8,0,0,1-6.255-7.31l1.016-13.057a6.811,6.811,0,0,1,7.31-6.255l57.6,4.481a6.811,6.811,0,0,1,6.255,7.31A19.9,19.9,0,0,1,888.669,222.03Z" transform="translate(-621.2 -176.037)" fill="#fff"/>
    <path id="Path_570" data-name="Path 570" d="M918.291,227.6,861.823,223.2a.9.9,0,0,1,.139-1.792L918.43,225.8a.9.9,0,1,1-.139,1.792Z" transform="translate(-638.648 -196.89)" fill="#e6e6e6"/>
    <path id="Path_571" data-name="Path 571" d="M894.184,237.823l-33.3-2.59a.9.9,0,0,1,.139-1.792l33.3,2.59a.9.9,0,0,1-.139,1.792Z" transform="translate(-637.987 -205.38)" fill="#e6e6e6"/>
    <path id="Path_572" data-name="Path 572" d="M900.858,250.446l-40.906-3.182a.9.9,0,0,1,.139-1.792L901,248.654a.9.9,0,1,1-.139,1.792Z" transform="translate(-637.327 -213.871)" fill="#e6e6e6"/>
    <path id="Path_573" data-name="Path 573" d="M879.72,362.028l-68.927-5.362a4.053,4.053,0,0,1-3.722-4.35l2.988-33.489a4.053,4.053,0,0,1,4.35-3.722l68.927,5.362a4.053,4.053,0,0,1,3.722,4.35l-2.988,33.489A4.053,4.053,0,0,1,879.72,362.028Z" transform="translate(-600.583 -263.008)" fill="#e6e6e6"/>
    <path id="Path_574" data-name="Path 574" d="M872.976,376.529q-.774,0-1.557-.061L826.873,373a6.8,6.8,0,0,1-6.255-7.31l1.016-13.057a6.8,6.8,0,0,1,7.31-6.255l57.6,4.481a6.8,6.8,0,0,1,6.255,7.31,19.927,19.927,0,0,1-19.825,18.357Z" transform="translate(-610.138 -285.075)" fill="#fff"/>
    <path id="Path_575" data-name="Path 575" d="M902.616,382.1,846.148,377.7a.9.9,0,0,1,.139-1.792l56.468,4.393a.9.9,0,0,1-.139,1.792Z" transform="translate(-627.585 -305.929)" fill="#e6e6e6"/>
    <path id="Path_576" data-name="Path 576" d="M878.508,392.323l-33.3-2.59a.9.9,0,1,1,.139-1.792l33.3,2.59a.9.9,0,0,1-.14,1.792Z" transform="translate(-626.924 -314.419)" fill="#e6e6e6"/>
    <path id="Path_577" data-name="Path 577" d="M885.183,404.946l-40.906-3.182a.9.9,0,1,1,.139-1.792l40.906,3.182a.9.9,0,0,1-.139,1.792Z" transform="translate(-626.264 -322.91)" fill="#e6e6e6"/>
    <path id="Path_578" data-name="Path 578" d="M454.756,359.566a16.5,16.5,0,1,1,30.2-13.325l-.539.238a15.914,15.914,0,1,0-29.12,12.85Z" transform="translate(-350.949 -278.043)" fill="#e6e6e6"/>
    <path id="Path_579" data-name="Path 579" d="M983.162,687.92c6.738-3.193,11.757-9.617,10.974-16.677a36.03,36.03,0,0,1-22.772,7.563c-3.309-.026-7.015-.362-9.42,1.495a6.329,6.329,0,0,0-2.256,4.818,19.9,19.9,0,0,0,.8,5.506l-.134.433C968.264,691.562,976.423,691.113,983.162,687.92Z" transform="translate(-708.293 -514.363)" fill="#f2f2f2"/>
    <path id="Path_580" data-name="Path 580" d="M996.023,670.975a26.153,26.153,0,0,1-12.74,11.8,13.485,13.485,0,0,1-3.886,1.142,8.784,8.784,0,0,1-4.042-.528,18.524,18.524,0,0,0-3.718-1.182,4.758,4.758,0,0,0-3.6.969,9.723,9.723,0,0,0-2.556,3.5,9.551,9.551,0,0,1-2.842,3.89c-.17.118.067.363.237.245,2.445-1.69,2.8-4.747,4.741-6.794a4.572,4.572,0,0,1,3.676-1.536,14.365,14.365,0,0,1,3.794,1.137,9.427,9.427,0,0,0,3.943.647,12.647,12.647,0,0,0,3.933-1,27.143,27.143,0,0,0,7.442-4.63,25.377,25.377,0,0,0,5.947-7.55c.09-.176-.244-.289-.334-.115Z" transform="translate(-710.345 -514.112)" fill="#fff"/>
    <path id="Path_581" data-name="Path 581" d="M1039.225,708.25a5.277,5.277,0,0,0,5.932,1.508c.2-.083.036-.37-.16-.287a4.885,4.885,0,0,1-5.516-1.413C1039.344,707.891,1039.089,708.084,1039.225,708.25Z" transform="translate(-764.407 -540.3)" fill="#fff"/>
    <path id="Path_582" data-name="Path 582" d="M1007.16,701.851a7.1,7.1,0,0,1,3.051-4.947c.17-.118-.067-.363-.237-.245a7.377,7.377,0,0,0-3.163,5.154C1006.787,702.01,1007.136,702.047,1007.16,701.851Z" transform="translate(-741.558 -532.278)" fill="#fff"/>
    <path id="Path_583" data-name="Path 583" d="M1061.012,683.767a2.4,2.4,0,0,1-.925-2.144c.027-.2-.322-.233-.349-.037a2.686,2.686,0,0,0,1.017,2.374.2.2,0,0,0,.246.026.143.143,0,0,0,.01-.218Z" transform="translate(-778.903 -521.571)" fill="#fff"/>
    <path id="Path_584" data-name="Path 584" d="M959.252,620.513c-.021.122-.042.244-.065.367a26.642,26.642,0,0,1-1.316,4.793c-.043.121-.089.243-.136.362a28.887,28.887,0,0,1-6.626,10,30.371,30.371,0,0,1-3.789,3.169c-1.878,1.329-4.045,2.627-5.233,4.417a4.77,4.77,0,0,0-.338.578l5.354,10.832c.026.02.048.041.074.062l.192.44.225-.138c.043-.026.085-.054.129-.08s.057-.036.084-.051l.026-.017c.027-.015.05-.031.074-.045q.638-.4,1.272-.814s0,0,0,0a44.735,44.735,0,0,0,8.713-7.21c.075-.082.152-.166.224-.253a27.029,27.029,0,0,0,2.951-3.97,23.2,23.2,0,0,0,1.254-2.376,19.182,19.182,0,0,0,1.669-6.677,17.487,17.487,0,0,0-4.479-13.1C959.429,620.7,959.342,620.607,959.252,620.513Z" transform="translate(-695.641 -478.56)" fill="#f2f2f2"/>
    <path id="Path_585" data-name="Path 585" d="M970.11,620.3a24.392,24.392,0,0,1-1.547,16.881,10.6,10.6,0,0,1-2.136,3.063,7.15,7.15,0,0,1-3.384,1.731,16.089,16.089,0,0,0-3.583,1,3.777,3.777,0,0,0-2.036,2.761,9.964,9.964,0,0,0,.456,4.347,9.79,9.79,0,0,1,.505,4.832c-.048.192.3.272.343.08.687-2.752-1.118-5.535-1.049-8.319a3.74,3.74,0,0,1,1.712-3.285,12.386,12.386,0,0,1,3.61-1.081,7.75,7.75,0,0,0,3.39-1.577,9.89,9.89,0,0,0,2.268-2.969,23.134,23.134,0,0,0,2.437-7.94,25.545,25.545,0,0,0-.658-9.61c-.052-.2-.379-.114-.327.083Z" transform="translate(-706.636 -478.268)" fill="#fff"/>
    <path id="Path_586" data-name="Path 586" d="M998.323,667.457a4.561,4.561,0,0,0,5.462-1.919c.091-.176-.223-.333-.314-.157a4.226,4.226,0,0,1-5.086,1.776C998.168,667.088,998.108,667.389,998.323,667.457Z" transform="translate(-735.473 -510.171)" fill="#fff"/>
    <path id="Path_587" data-name="Path 587" d="M975.088,679.72a7.533,7.533,0,0,1-1.064-5.841c.047-.192-.3-.272-.343-.08a7.84,7.84,0,0,0,1.121,6.077C974.917,680.056,975.2,679.9,975.088,679.72Z" transform="translate(-718.04 -516.089)" fill="#fff"/>
    <path id="Path_588" data-name="Path 588" d="M998.068,639.319a2.96,2.96,0,0,1-2.144-1.32c-.113-.181-.4-.024-.286.156a3.316,3.316,0,0,0,2.369,1.465c.095.011.183-.022.2-.11A.172.172,0,0,0,998.068,639.319Z" transform="translate(-733.655 -490.844)" fill="#fff"/>
    <path id="Path_589" data-name="Path 589" d="M996.457,388.872l-4.1-21.8-8.04-10.582-5.958,3.9c.842,4.566,7.211,13.091,7.211,13.091l5.645,16.862c-.023.088-.043.176-.059.267a3.145,3.145,0,1,0,5.3-1.73Z" transform="translate(-721.481 -292.222)" fill="#ffeac9"/>
    <path id="Path_590" data-name="Path 590" d="M960.234,331.286l6.746-5.475.013-.029c1.262-2.859-1.54-7.761-4.112-11.37a5.766,5.766,0,0,0-7.716-1.559h0a5.779,5.779,0,0,0-2.687,5.477l.568,5.462Z" transform="translate(-703.192 -260.823)" fill="#3f3d56"/>
    <path id="Path_591" data-name="Path 591" d="M776.652,566.7h-4.488l-2.135-17.312h6.624Z" transform="translate(-543.451 -387.73)" fill="#ffeac9"/>
    <path id="Path_592" data-name="Path 592" d="M867.062,736.511H865.8l-4.932-2.006-2.644,2.006h0a5.633,5.633,0,0,0-5.633,5.633v.183h14.472Z" transform="translate(-632.716 -559.01)" fill="#2f2e41"/>
    <path id="Path_593" data-name="Path 593" d="M844.335,566.7h-4.488l-2.135-17.312h6.624Z" transform="translate(-591.219 -387.73)" fill="#ffeac9"/>
    <path id="Path_594" data-name="Path 594" d="M934.745,736.511h-1.263l-4.932-2.006-2.644,2.006h0a5.633,5.633,0,0,0-5.633,5.633v.183h14.472Z" transform="translate(-680.484 -559.01)" fill="#2f2e41"/>
    <path id="Path_595" data-name="Path 595" d="M899.576,488.478a47.647,47.647,0,0,1-.786,12.316c-1.31,6.027-1.31,23-1.31,23L894.6,556.872l-8.648-.786-2.358-55.292L875.205,519.4l.786,2.62-1.047.655s.785,5.11.261,5.11a6.261,6.261,0,0,0-1.834.786l1.048,26.991-8.91-.262-3.145-38,3.407-21.75.262-4.193,1.179.048.6-1.752,1.1-3.014Z" transform="translate(-639.615 -384.081)" fill="#2f2e41"/>
    <path id="Path_596" data-name="Path 596" d="M911.342,352.781l.047-.065c2.494-3.492-1.257-11.883-1.823-13.1l2.383-.773-.537-4.562-.254-2.034,1.821-1.821.005-.045,1.048-9.172,1.524-6.092a13.374,13.374,0,0,0-3.8-12.961l-3.523-3.322-4.281-6.335h-6.9l-2.367,4.471a10.063,10.063,0,0,0-7.786,10.274l.536,11.727-2.1,14.6v2.642l-2.364,2.627.516,2.581-1.8.771-.794,3.706c-.329.434-2.5,3.327-2.5,4.118,0,.119.088.234.276.361,1.479,1,9.651,3.042,13.268,1.6,3.853-1.541,19.169.771,19.323.794Z" transform="translate(-650.928 -247.063)" fill="#3f3d56"/>
    <path id="Path_597" data-name="Path 597" d="M786.324,759.888a.349.349,0,0,0,.348.35h82.476a.35.35,0,1,0,0-.7H786.674a.349.349,0,0,0-.35.348Z" transform="translate(-585.949 -576.677)" fill="#ccc"/>
    <circle id="Ellipse_18" data-name="Ellipse 18" cx="9.144" cy="9.144" r="9.144" transform="translate(239.541 25.105)" fill="#ffeac9"/>
    <path id="Path_598" data-name="Path 598" d="M919.769,235.561a24.874,24.874,0,0,0,4.221-.4,12.614,12.614,0,0,0,5.251-4.06h0a12.218,12.218,0,0,0,1.188-3.788,11.116,11.116,0,0,0-2.171-8.772,3.513,3.513,0,0,0-1.449-1.174c-.051-.019-.1-.035-.157-.048a4.333,4.333,0,0,1-2.189-1.278,3.578,3.578,0,0,0-.368-.359,5.337,5.337,0,0,0-2.255-1.06c-1.333-.32-3.239.081-5.665,1.193a5.989,5.989,0,0,1-3.615.2.339.339,0,0,0-.317.118,2.4,2.4,0,0,1-1.611.691c-.37.026-.746.549-1.2,1.231-.1.155-.223.335-.31.445l-.017-.207-.2.237a2.908,2.908,0,0,0,1.435,4.7,5.673,5.673,0,0,0,1.145.152c.234.015.476.03.708.065a4.384,4.384,0,0,1,3.33,2.76,1.147,1.147,0,0,0,1.744.512,1.894,1.894,0,0,1,1.718-.359,1.258,1.258,0,0,1,.572.616,1.638,1.638,0,0,0,.64.709c.952.46,1.072,2.6.781,4.4-.281,1.733-.891,3-1.485,3.074-.457.059-.509.093-.54.175l-.028.073.053.067A1.872,1.872,0,0,0,919.769,235.561Z" transform="translate(-671.961 -192.021)" fill="#2f2e41"/>
    <circle id="Ellipse_19" data-name="Ellipse 19" cx="18.181" cy="18.181" r="18.181" transform="translate(129.14 54.307)" fill="#3e53d2"/>
    <path id="Path_599" data-name="Path 599" d="M866.852,366.041l-6-3.835c-3.819,2.641-8.98,11.947-8.98,11.947l-13.062,12.068A3.143,3.143,0,1,0,842.3,390.4l18.2-12.682Z" transform="translate(-621.15 -296.258)" fill="#ffeac9"/>
    <path id="Path_600" data-name="Path 600" d="M915.218,334.679l3.994-9.586-1.445-5.3a5.779,5.779,0,0,0-4.485-4.136h0a5.766,5.766,0,0,0-6.631,4.243c-1.094,4.295-1.934,9.878.276,12.088l.022.022Z" transform="translate(-670.087 -263.34)" fill="#3f3d56"/>
    <path id="Path_601" data-name="Path 601" d="M118.011,694.962c-7.819-4.013-13.491-11.768-12.305-20.056,6.939,5.992,16.532,9.52,26.544,9.76,3.9.094,8.278-.165,11.041,2.113a7.46,7.46,0,0,1,2.478,5.761A23.459,23.459,0,0,1,144.623,699l.142.515C135.426,699.808,125.83,698.975,118.011,694.962Z" transform="translate(-105.489 -516.948)" fill="#f2f2f2"/>
    <path id="Path_602" data-name="Path 602" d="M105.758,674.6a30.824,30.824,0,0,0,14.567,14.382,15.887,15.887,0,0,0,4.535,1.49,10.354,10.354,0,0,0,4.781-.472,21.844,21.844,0,0,1,4.424-1.253,5.609,5.609,0,0,1,4.2,1.276,11.457,11.457,0,0,1,2.88,4.22,11.26,11.26,0,0,0,3.2,4.689c.2.145-.092.424-.288.28-2.817-2.083-3.119-5.7-5.332-8.18a5.389,5.389,0,0,0-4.273-1.947,16.931,16.931,0,0,0-4.512,1.2,11.111,11.111,0,0,1-4.669.615,14.9,14.9,0,0,1-4.6-1.325,31.987,31.987,0,0,1-8.594-5.733,29.906,29.906,0,0,1-6.724-9.116C105.261,674.509,105.659,674.387,105.758,674.6Z" transform="translate(-105.345 -516.653)" fill="#fff"/>
    <path id="Path_603" data-name="Path 603" d="M131.678,719.889a6.219,6.219,0,0,1-7.045,1.555c-.228-.1-.029-.437.2-.332a5.757,5.757,0,0,0,6.551-1.458C131.552,719.461,131.845,719.7,131.678,719.889Z" transform="translate(-118.887 -548.478)" fill="#fff"/>
    <path id="Path_604" data-name="Path 604" d="M177.172,713.271a8.362,8.362,0,0,0-3.41-5.942c-.2-.146.093-.425.288-.28a8.7,8.7,0,0,1,3.534,6.19C177.6,713.473,177.193,713.5,177.172,713.271Z" transform="translate(-153.584 -539.604)" fill="#fff"/>
    <path id="Path_605" data-name="Path 605" d="M120.218,690.232a2.827,2.827,0,0,0,1.17-2.491c-.024-.232.388-.262.412-.031a3.165,3.165,0,0,1-1.287,2.758.235.235,0,0,1-.291.022.168.168,0,0,1,0-.258Z" transform="translate(-115.8 -525.872)" fill="#fff"/>
    <path id="Path_606" data-name="Path 606" d="M182.355,617.966c.02.144.04.289.063.435a31.406,31.406,0,0,0,1.371,5.7c.046.144.1.289.147.431a34.047,34.047,0,0,0,7.432,12.029,35.788,35.788,0,0,0,4.345,3.875c2.162,1.635,4.667,3.246,6,5.4a5.6,5.6,0,0,1,.376.694l-6.711,12.56c-.031.023-.059.047-.09.07l-.243.511-.26-.171c-.05-.032-.1-.067-.149-.1-.033-.022-.066-.045-.1-.063l-.03-.021c-.031-.018-.058-.039-.086-.056q-.737-.5-1.468-1.006s0,0,0-.005a52.728,52.728,0,0,1-9.994-8.819c-.085-.1-.173-.2-.255-.306a31.848,31.848,0,0,1-3.328-4.786,27.4,27.4,0,0,1-1.389-2.846,22.609,22.609,0,0,1-1.717-7.928,20.609,20.609,0,0,1,5.765-15.27C182.141,618.178,182.245,618.073,182.355,617.966Z" transform="translate(-155.391 -476.762)" fill="#f2f2f2"/>
    <path id="Path_607" data-name="Path 607" d="M193.594,617.711a28.75,28.75,0,0,0,1.192,19.944,12.486,12.486,0,0,0,2.4,3.689,8.428,8.428,0,0,0,3.922,2.165,18.975,18.975,0,0,1,4.184,1.314,4.452,4.452,0,0,1,2.3,3.328,11.745,11.745,0,0,1-.7,5.1c-.563,1.864-1.181,3.8-.775,5.673.049.228-.358.309-.407.082-.706-3.268,1.524-6.478,1.547-9.76a4.408,4.408,0,0,0-1.894-3.934,14.6,14.6,0,0,0-4.213-1.408,9.133,9.133,0,0,1-3.934-1.984,11.658,11.658,0,0,1-2.561-3.582,27.265,27.265,0,0,1-2.574-9.444,30.107,30.107,0,0,1,1.134-11.3c.068-.231.45-.12.383.11Z" transform="translate(-166.471 -476.415)" fill="#fff"/>
    <path id="Path_608" data-name="Path 608" d="M182.783,672.891a5.375,5.375,0,0,1-6.363-2.465c-.1-.21.276-.384.376-.173a4.98,4.98,0,0,0,5.925,2.282c.258-.072.318.285.061.357Z" transform="translate(-155.494 -513.596)" fill="#fff"/>
    <path id="Path_609" data-name="Path 609" d="M220.423,688.658a8.879,8.879,0,0,0,1.472-6.841c-.048-.228.359-.309.407-.081a9.241,9.241,0,0,1-1.548,7.117C220.612,689.06,220.282,688.865,220.423,688.658Z" transform="translate(-186.538 -521.672)" fill="#fff"/>
    <path id="Path_610" data-name="Path 610" d="M192.528,640.222a3.488,3.488,0,0,0,2.575-1.475c.14-.209.47-.013.331.195a3.909,3.909,0,0,1-2.845,1.637c-.112.01-.215-.033-.234-.137A.2.2,0,0,1,192.528,640.222Z" transform="translate(-166.752 -491.365)" fill="#fff"/>
    <path id="Path_611" data-name="Path 611" d="M172.025,265.948l.589,5.463-.347,7.163,15.866-1.885,1.491-10.741-1.9.019Z" transform="translate(-121.407 -187.694)" fill="#ffeac9"/>
    <path id="Path_612" data-name="Path 612" d="M144.057,570.913h3.469l1.651-13.38h-5.12Z" transform="translate(-101.669 -393.481)" fill="#ffeac9"/>
    <path id="Path_613" data-name="Path 613" d="M243.878,732.219l5.542-.331v2.374l5.269,3.639a1.483,1.483,0,0,1-.843,2.7h-6.6l-1.137-2.349-.444,2.349h-2.488Z" transform="translate(-202.622 -557.163)" fill="#2f2e41"/>
    <path id="Path_614" data-name="Path 614" d="M210.278,570.913h3.469l1.651-13.38h-5.12Z" transform="translate(-148.405 -393.481)" fill="#ffeac9"/>
    <path id="Path_615" data-name="Path 615" d="M310.1,732.219l5.542-.331v2.374l5.269,3.639a1.483,1.483,0,0,1-.843,2.7h-6.6l-1.137-2.349-.444,2.349H309.4Z" transform="translate(-249.358 -557.163)" fill="#2f2e41"/>
    <path id="Path_616" data-name="Path 616" d="M242.116,517.3h.038l.667-21.755a5.689,5.689,0,0,1,.075-5.376l.1-.173-.248-1.148a7.312,7.312,0,0,1,.418-4.4l.622-20.294c-2.223-14.41,8.373-23.808,8.373-23.808H268.03l3.408,11.709a234.706,234.706,0,0,1-1.731,64.06l.1.049a.824.824,0,0,1,.336,1.086c-.165.479-.584.768-.935.647l-8.383-.292a.823.823,0,0,1-.336-1.086c.165-.479.584-.768.935-.647l.57.288-1.216-20.993.135-3.835-.278-4.35-1.285-19.567-4.864,24.062-4.968,26.064a.914.914,0,0,1-.616,1.591h-6.784a.917.917,0,0,1,0-1.833Z" transform="translate(-201.225 -351.405)" fill="#2f2e41"/>
    <circle id="Ellipse_20" data-name="Ellipse 20" cx="8.514" cy="8.514" r="8.514" transform="translate(44.874 33.272)" fill="#ffeac9"/>
    <path id="Path_617" data-name="Path 617" d="M148.652,289.071a27.721,27.721,0,0,1,4.864-7.589,18.733,18.733,0,0,0-2.845,9.083,14.35,14.35,0,0,0,1.943,1.016,18.614,18.614,0,0,0,6.365,1.43,27.776,27.776,0,0,1,5.964-10.6,18.777,18.777,0,0,0-2.86,10.557,29.4,29.4,0,0,0,7.162-1.535,21.087,21.087,0,0,0,9.25-5.757,19.729,19.729,0,0,0,4.3-10.924,58.708,58.708,0,0,0-.368-11.891c-.185-1.884,1.384-4.052,1.2-5.936H183.5a12.494,12.494,0,0,1-2.069-3.629,4.23,4.23,0,0,1,.627-3.969,4.313,4.313,0,0,1,1.893-1.174c.068-.086.142-.17.219-.253a17.608,17.608,0,0,1,4.864-3.638,7.269,7.269,0,0,0-2.6,3.271q1.7-.375,3.41-.747a16.419,16.419,0,0,1,1.2-1.149,12.608,12.608,0,0,1,1.535-1.066,4.9,4.9,0,0,0-1.325,1.89,5.64,5.64,0,0,0,3.682-2.177c1.26-2.079-.238-4.883-2.329-6.125a8.332,8.332,0,0,0-9.676,1.066c-3.024-2.227-7.329-2.19-10.693-.525a15.634,15.634,0,0,0-5.578,4.852,21.823,21.823,0,0,1,2.526-.176,7.748,7.748,0,0,0-3.308,1.31,22.778,22.778,0,0,0-1.2,2.1q-.357.709-.673,1.436A69.723,69.723,0,0,0,161,257.4a43.674,43.674,0,0,1-4.021,10.486,23.551,23.551,0,0,1-12.987,10.362A12.84,12.84,0,0,0,148.652,289.071Z" transform="translate(-132.572 -207.949)" fill="#2f2e41"/>
    <path id="Path_619" data-name="Path 619" d="M357.44,388.232a2.828,2.828,0,0,1-3.823-2.048l-22.04-13.336,4.028-4.648L356,382.77a2.844,2.844,0,0,1,1.436,5.462Z" transform="translate(-265.01 -300.489)" fill="#ffeac9"/>
    <path id="Path_620" data-name="Path 620" d="M306.122,351.148s-1.053,1.06,1.59,2.8c2.116,1.4,11.553,8.289,14.9,9.379a2.222,2.222,0,0,0,1.481,2.286l3.029-6.656c-.656-1.522-1.7-1.169-2.256-.824l-3.658-2.751-8.983-8.97-5.353,3.955Z" transform="translate(-246.898 -285.113)" fill="#3e53d2"/>
    <path id="Path_621" data-name="Path 621" d="M271.779,245.149a11.857,11.857,0,0,0-1.427,10.42" transform="translate(-221.365 -213.645)" fill="#fd6584"/>
    <path id="Path_622" data-name="Path 622" d="M129.876,759.888a.349.349,0,0,0,.35.35H212.7a.35.35,0,1,0,0-.7H130.226a.349.349,0,0,0-.35.35Z" transform="translate(-122.658 -576.677)" fill="#ccc"/>
    <path id="Path_3114" data-name="Path 3114" d="M235.348,433.879a.823.823,0,0,0-.5,1.048l11.49,33.118a.823.823,0,0,0,1.048.5l66.859-23.458a.823.823,0,0,0,.5-1.048l-11.49-33.117a.823.823,0,0,0-1.048-.5Z" transform="translate(-196.707 -330.254)" fill="#e6e6e6"/>
    <path id="Path_623" data-name="Path 623" d="M263.773,487.265a6.37,6.37,0,0,1-6-4.24l-6.31-17.854a6.359,6.359,0,0,1,3.876-8.115l33.791-11.943a25.323,25.323,0,0,1,32.278,15.419,6.359,6.359,0,0,1-3.876,8.115l-.049-.139.049.139L265.886,486.9a6.338,6.338,0,0,1-2.113.364Z" transform="translate(-208.209 -353.751)" fill="#fff"/>
    <path id="Path_3117" data-name="Path 3117" d="M370.823,466.57l-30.257,10.616c-.426.15-.955-.25-1.18-.893s-.063-1.285.364-1.434l30.257-10.616c.426-.15.955.25,1.18.893S371.25,466.421,370.823,466.57Z" transform="translate(-270.449 -368.249)" fill="#e6e6e6"/>
    <path id="Path_3118" data-name="Path 3118" d="M378.777,489.24,348.52,499.855c-.426.15-.955-.25-1.18-.893s-.063-1.285.364-1.434l30.257-10.616c.426-.15.955.25,1.18.893S379.2,489.09,378.777,489.24Z" transform="translate(-276.062 -384.249)" fill="#e6e6e6"/>
    <path id="Path_3124" data-name="Path 3124" d="M364.949,583.573" transform="translate(-288.561 -452.489)" fill="#e6e6e6"/>
    <path id="Path_624" data-name="Path 624" d="M291.745,507.6a8.116,8.116,0,0,1,.466,2.853,7.9,7.9,0,0,1-.131,1.325,8.152,8.152,0,0,1-13.338,4.714q-.165-.141-.321-.291a8.151,8.151,0,1,1,13.324-8.6Z" transform="translate(-225.722 -395.038)" fill="#e4e4e4"/>
    <circle id="Ellipse_21" data-name="Ellipse 21" cx="1.558" cy="1.558" r="1.558" transform="translate(57.12 113.41)" fill="#fd6584"/>
    <path id="Path_625" data-name="Path 625" d="M284.445,528.944c.4-.928.873-2.345,1.968-1.829.541.235,1.51.947,1.9.118l3.081-6.449a1,1,0,0,1,1.361-.454l5.477,2.865a7.893,7.893,0,0,1-.131,1.325l-13.338,4.714Z" transform="translate(-231.745 -407.777)" fill="#3f3d56"/>
    <path id="Path_626" data-name="Path 626" d="M269.79,414.28a2.828,2.828,0,0,1-1.39-4.108l-6.972-24.8,6.117-.639,4.93,24.577a2.844,2.844,0,0,1-2.685,4.969Z" transform="translate(-215.501 -312.158)" fill="#ffeac9"/>
    <path id="Path_627" data-name="Path 627" d="M255.62,340.5s-1.493.054-.755,3.132c.591,2.464,2.761,17.925,4.458,21.007a2.222,2.222,0,0,0-.482,2.681l6.761-2.789c.562-1.559.127-2.974-.512-3.1l-.79-4.509L263.135,341.8l-6.437-1.356Z" transform="translate(-210.724 -280.9)" fill="#3e53d2"/>
    <path id="Path_628" data-name="Path 628" d="M437.621,523.951l-9.35.387a1.324,1.324,0,0,1-1.06-.458,1.3,1.3,0,0,1-.3-1.091,25.462,25.462,0,0,0-.611-11.756,1.316,1.316,0,0,1,.65-1.538c3.83-1.99,7.418-2.091,10.665-.3a1.332,1.332,0,0,1,.668.9,41.65,41.65,0,0,1,.6,12.662A1.322,1.322,0,0,1,437.621,523.951Z" transform="translate(-331.823 -399.1)" fill="#3e53d2"/>
    <path id="Path_629" data-name="Path 629" d="M444.733,538.375l-7.149.3a.671.671,0,0,1-.056-1.341l7.149-.3a.671.671,0,0,1,.055,1.341Z" transform="translate(-339.33 -419.643)" fill="#fff"/>
    <path id="Path_630" data-name="Path 630" d="M444.4,530.382l-7.149.3a.671.671,0,0,1-.056-1.341l7.149-.3a.671.671,0,1,1,.056,1.341Z" transform="translate(-339.097 -414.002)" fill="#fff"/>
    <path id="Path_631" data-name="Path 631" d="M1021.033,273.6l-9.279-1.217a1.324,1.324,0,0,1-.966-.632,1.3,1.3,0,0,1-.108-1.126,25.463,25.463,0,0,0,1.408-11.687,1.316,1.316,0,0,1,.9-1.4c4.114-1.306,7.666-.792,10.559,1.528a1.332,1.332,0,0,1,.5,1,41.65,41.65,0,0,1-1.573,12.578,1.321,1.321,0,0,1-1.449.959Z" transform="translate(-744.231 -221.887)" fill="#3e53d2"/>
    <path id="Path_632" data-name="Path 632" d="M1029.872,287.659l-7.095-.931a.671.671,0,1,1,.175-1.331l7.095.931a.671.671,0,0,1-.175,1.331Z" transform="translate(-752.415 -242.046)" fill="#fff"/>
    <path id="Path_633" data-name="Path 633" d="M1030.913,279.727l-7.094-.931a.671.671,0,0,1,.174-1.331l7.095.931a.671.671,0,1,1-.175,1.331Z" transform="translate(-753.149 -236.448)" fill="#fff"/>
    <path id="Path_634" data-name="Path 634" d="M591.084,360.821h-3.09v-3.09a2.8,2.8,0,1,0-5.591,0v3.09h-3.09a2.8,2.8,0,1,0,0,5.591h3.09v3.09a2.8,2.8,0,1,0,5.591,0v-3.09h3.09a2.8,2.8,0,1,0,0-5.591Z" transform="translate(-437.878 -291.127)" fill="#fff"/>
    <circle id="Ellipse_22" data-name="Ellipse 22" cx="2.946" cy="2.946" r="2.946" transform="translate(250.314 6.624)" fill="#3f3d56"/>
    <circle id="Ellipse_23" data-name="Ellipse 23" cx="2.946" cy="2.946" r="2.946" transform="translate(69.353 89.896)" fill="#3f3d56"/>
    <path id="Path_618" data-name="Path 618" d="M274.409,318.81l-1.653-.621-2.084-3.369-7.422.607-1.8,3.613-4.346,3.319,1.9,10.01,2.953,12.159,19.767-2.471L281.7,332.9s3.572-7.231-2.2-9.941Z" transform="translate(-212.447 -262.816)" fill="#3e53d2"/>
  </g>
</svg>
