<svg xmlns="http://www.w3.org/2000/svg" xmlns:xlink="http://www.w3.org/1999/xlink" width="1307.256" height="1146" viewBox="0 0 1307.256 1146">
  <defs>
    <radialGradient id="radial-gradient" cx="0.109" cy="0.236" r="1.334" gradientTransform="matrix(0.999, 0.036, -0.033, 0.92, 0.008, 0.015)" gradientUnits="objectBoundingBox">
      <stop offset="0" stop-color="#fdfdfd"/>
      <stop offset="1" stop-color="#f8f7f7"/>
    </radialGradient>
    <radialGradient id="radial-gradient-4" cx="0.543" cy="0.692" r="0.492" gradientTransform="matrix(0.992, 0.123, -0.154, 1.237, 0.115, -0.229)" gradientUnits="objectBoundingBox">
      <stop offset="0" stop-color="#fff"/>
      <stop offset="1" stop-color="#f4f4f4"/>
    </radialGradient>
    <filter id="Polygon_18" x="117.082" y="204.755" width="966.678" height="924.68" filterUnits="userSpaceOnUse">
      <feOffset dx="-13" dy="-13" input="SourceAlpha"/>
      <feGaussianBlur stdDeviation="6.5" result="blur"/>
      <feFlood flood-color="#fff"/>
      <feComposite operator="in" in2="blur"/>
      <feComposite in="SourceGraphic"/>
    </filter>
  </defs>
  <g id="Group_351" data-name="Group 351" transform="translate(-276.5 -9230.626)">
    <path id="Subtraction_1" data-name="Subtraction 1" d="M-2295.522-8311.835c-.381,0-.7,0-1-.01a53.474,53.474,0,0,1-50.993-40.944,53.472,53.472,0,0,1,26.773-59.663,164.6,164.6,0,0,1-23.739-54.251,165.459,165.459,0,0,1-4.15-28.657,166.271,166.271,0,0,1,.888-28.76,166.275,166.275,0,0,1,5.844-28.174,165.405,165.405,0,0,1,10.719-26.9,164.6,164.6,0,0,1,35.736-47.219,166.149,166.149,0,0,1,25.119-19.029,164.818,164.818,0,0,1,27.549-13.627,165.518,165.518,0,0,1,29.183-8.2A166.233,166.233,0,0,1-2183.57-8670a164.908,164.908,0,0,1,54.062,9.074,164.746,164.746,0,0,1,49.4,27.328,164.623,164.623,0,0,1,38.8,44.73,165.483,165.483,0,0,1,12.488,26.125,166.23,166.23,0,0,1,7.709,27.72,166.206,166.206,0,0,1,2.8,28.637,165.516,165.516,0,0,1-2.23,28.87,164.633,164.633,0,0,1-20.07,55.713,165.5,165.5,0,0,1-27.061,34.938,164.885,164.885,0,0,1-34.277,25.872,165.866,165.866,0,0,1-81.7,21.589h-.022a164.861,164.861,0,0,1-30.337-2.824,166.319,166.319,0,0,1-30.04-8.649,53.309,53.309,0,0,1-7.41,15.854,53.439,53.439,0,0,1-11.783,12.337,53.444,53.444,0,0,1-15.056,8A53.288,53.288,0,0,1-2295.522-8311.835Zm106.048-134.976a21.949,21.949,0,0,0-15.281,6.05A20.292,20.292,0,0,0-2211.1-8426a20.31,20.31,0,0,0,6.3,14.8,21.98,21.98,0,0,0,15.319,6.014,22.146,22.146,0,0,0,15.373-6.014,20.248,20.248,0,0,0,6.354-14.8,20.25,20.25,0,0,0-6.354-14.8A22.149,22.149,0,0,0-2189.474-8446.811Zm2.528-121.758a31.115,31.115,0,0,1,19.237,6.163,19.648,19.648,0,0,1,7.944,15.562,21.862,21.862,0,0,1-5.722,15.471c-3.512,3.985-8.88,7.963-18.53,13.729a63.727,63.727,0,0,0-11.682,8.539,39.22,39.22,0,0,0-7.742,9.9,37.379,37.379,0,0,0-3.991,11.8,56.853,56.853,0,0,0-.429,14.222l.032.984a7.951,7.951,0,0,0,2.434,5.464,7.941,7.941,0,0,0,5.545,2.239h19.372a7.99,7.99,0,0,0,7.982-7.98c0-6.67,1.6-11.708,5.178-16.332,3.526-4.554,9.19-8.959,18.364-14.286,9.629-5.671,16.567-11.906,21.208-19.059,4.836-7.454,7.187-15.895,7.187-25.806a46.864,46.864,0,0,0-4.666-20.749,47.339,47.339,0,0,0-13.106-16.192,61.525,61.525,0,0,0-20.21-10.529,86.646,86.646,0,0,0-25.98-3.757,92.061,92.061,0,0,0-20.026,2.094,68.282,68.282,0,0,0-16.666,5.98,54.845,54.845,0,0,0-13.079,9.424,50.3,50.3,0,0,0-9.264,12.415,16.882,16.882,0,0,0-1.994,8.8,17.511,17.511,0,0,0,2.507,8.18,17.549,17.549,0,0,0,15.145,8.58h.183a17.809,17.809,0,0,0,9.531-2.76,17.8,17.8,0,0,0,6.585-7.433,24.2,24.2,0,0,1,9.593-10.743A29.229,29.229,0,0,1-2186.947-8568.568Z" transform="translate(3602.052 17900.625)" fill="url(#radial-gradient)"/>
    <path id="Subtraction_2" data-name="Subtraction 2" d="M-2304.53-8372.163c-.316,0-.579,0-.828-.008a44.467,44.467,0,0,1-42.4-34.048,44.464,44.464,0,0,1,22.264-49.613,136.879,136.879,0,0,1-19.74-45.113,137.583,137.583,0,0,1-3.451-23.83,138.271,138.271,0,0,1,.738-23.916,138.265,138.265,0,0,1,4.86-23.428,137.506,137.506,0,0,1,8.913-22.367,136.857,136.857,0,0,1,29.717-39.266,138.119,138.119,0,0,1,20.888-15.824,137.11,137.11,0,0,1,22.909-11.332,137.667,137.667,0,0,1,24.267-6.814,138.3,138.3,0,0,1,24.961-2.276,137.117,137.117,0,0,1,44.956,7.546,137,137,0,0,1,41.077,22.725,136.9,136.9,0,0,1,32.269,37.2,137.561,137.561,0,0,1,10.385,21.725,138.193,138.193,0,0,1,6.41,23.05,138.2,138.2,0,0,1,2.331,23.813,137.626,137.626,0,0,1-1.855,24.008,136.9,136.9,0,0,1-16.689,46.328,137.612,137.612,0,0,1-22.5,29.053,137.11,137.11,0,0,1-28.5,21.514,137.917,137.917,0,0,1-67.942,17.953h-.018a137.073,137.073,0,0,1-25.227-2.349,138.261,138.261,0,0,1-24.98-7.192,44.349,44.349,0,0,1-6.162,13.184,44.448,44.448,0,0,1-9.8,10.259,44.451,44.451,0,0,1-12.52,6.653A44.279,44.279,0,0,1-2304.53-8372.163Zm88.186-112.241a18.253,18.253,0,0,0-12.708,5.031,16.874,16.874,0,0,0-5.272,12.277,16.887,16.887,0,0,0,5.241,12.309,18.28,18.28,0,0,0,12.739,5,18.417,18.417,0,0,0,12.783-5,16.836,16.836,0,0,0,5.284-12.309,16.84,16.84,0,0,0-5.284-12.309A18.424,18.424,0,0,0-2216.344-8484.4Zm2.1-101.248a25.871,25.871,0,0,1,16,5.125,16.337,16.337,0,0,1,6.606,12.939,18.181,18.181,0,0,1-4.758,12.865c-2.92,3.314-7.385,6.621-15.409,11.417a52.961,52.961,0,0,0-9.715,7.1,32.62,32.62,0,0,0-6.438,8.234,31.084,31.084,0,0,0-3.319,9.811,47.289,47.289,0,0,0-.357,11.826l.027.818a6.611,6.611,0,0,0,2.024,4.544,6.6,6.6,0,0,0,4.611,1.862h16.109a6.644,6.644,0,0,0,6.637-6.637c0-5.547,1.328-9.736,4.306-13.58,2.932-3.787,7.642-7.451,15.271-11.881,8.008-4.715,13.776-9.9,17.636-15.848a38.2,38.2,0,0,0,5.976-21.459,38.965,38.965,0,0,0-3.88-17.254,39.359,39.359,0,0,0-10.9-13.466,51.194,51.194,0,0,0-16.806-8.756,72.057,72.057,0,0,0-21.6-3.124,76.523,76.523,0,0,0-16.653,1.741,56.757,56.757,0,0,0-13.859,4.974,45.6,45.6,0,0,0-10.876,7.836,41.81,41.81,0,0,0-7.7,10.324,14.035,14.035,0,0,0-1.658,7.317,14.559,14.559,0,0,0,2.085,6.8,14.591,14.591,0,0,0,12.594,7.135h.153a14.814,14.814,0,0,0,7.926-2.295,14.8,14.8,0,0,0,5.476-6.181,20.127,20.127,0,0,1,7.978-8.934A24.3,24.3,0,0,1-2214.242-8585.652Z" transform="translate(2625.5 18748.789)" fill="url(#radial-gradient)"/>
    <path id="Subtraction_3" data-name="Subtraction 3" d="M-2329.271-8537.868c-.14,0-.257,0-.367,0a19.728,19.728,0,0,1-18.812-15.105,19.724,19.724,0,0,1,9.877-22.01,60.726,60.726,0,0,1-8.758-20.015,61.071,61.071,0,0,1-1.531-10.571,61.368,61.368,0,0,1,.328-10.61,61.331,61.331,0,0,1,2.156-10.394,61.019,61.019,0,0,1,3.954-9.923,60.727,60.727,0,0,1,13.184-17.42,61.3,61.3,0,0,1,9.267-7.02,60.751,60.751,0,0,1,10.163-5.027,61.012,61.012,0,0,1,10.766-3.023,61.341,61.341,0,0,1,11.074-1.01,60.831,60.831,0,0,1,19.944,3.348,60.786,60.786,0,0,1,18.223,10.081,60.752,60.752,0,0,1,14.316,16.5,61.018,61.018,0,0,1,4.607,9.639,61.267,61.267,0,0,1,2.844,10.226A61.317,61.317,0,0,1-2227-8609.64a61.068,61.068,0,0,1-.823,10.65,60.725,60.725,0,0,1-7.4,20.553,61.062,61.062,0,0,1-9.983,12.89,60.858,60.858,0,0,1-12.645,9.544,61.187,61.187,0,0,1-30.142,7.965h-.008a60.812,60.812,0,0,1-11.192-1.042,61.4,61.4,0,0,1-11.082-3.191,19.672,19.672,0,0,1-2.733,5.85,19.715,19.715,0,0,1-4.347,4.551,19.72,19.72,0,0,1-5.554,2.951A19.62,19.62,0,0,1-2329.271-8537.868Zm39.122-49.794a8.1,8.1,0,0,0-5.637,2.231,7.486,7.486,0,0,0-2.339,5.447,7.489,7.489,0,0,0,2.325,5.46,8.108,8.108,0,0,0,5.651,2.219,8.17,8.17,0,0,0,5.671-2.219,7.468,7.468,0,0,0,2.344-5.46,7.471,7.471,0,0,0-2.344-5.461A8.174,8.174,0,0,0-2290.149-8587.662Zm.933-44.918a11.482,11.482,0,0,1,7.1,2.273,7.248,7.248,0,0,1,2.931,5.74,8.065,8.065,0,0,1-2.111,5.708c-1.3,1.471-3.276,2.938-6.836,5.065a23.494,23.494,0,0,0-4.31,3.149,14.476,14.476,0,0,0-2.856,3.653,13.792,13.792,0,0,0-1.472,4.353,20.976,20.976,0,0,0-.158,5.246l.012.363a2.931,2.931,0,0,0,.9,2.016,2.928,2.928,0,0,0,2.045.826h7.147a2.947,2.947,0,0,0,2.945-2.944,9.215,9.215,0,0,1,1.91-6.024c1.3-1.68,3.39-3.306,6.775-5.271a22.729,22.729,0,0,0,7.824-7.031,16.945,16.945,0,0,0,2.651-9.52,17.287,17.287,0,0,0-1.721-7.654,17.468,17.468,0,0,0-4.835-5.975,22.728,22.728,0,0,0-7.456-3.884,31.981,31.981,0,0,0-9.584-1.386,33.938,33.938,0,0,0-7.388.772,25.186,25.186,0,0,0-6.148,2.206,20.227,20.227,0,0,0-4.825,3.477,18.554,18.554,0,0,0-3.418,4.58,6.224,6.224,0,0,0-.736,3.246,6.455,6.455,0,0,0,.925,3.018,6.473,6.473,0,0,0,5.587,3.165h.068a6.572,6.572,0,0,0,3.516-1.019,6.559,6.559,0,0,0,2.429-2.741,8.926,8.926,0,0,1,3.539-3.964A10.781,10.781,0,0,1-2289.216-8632.58Z" transform="translate(3740 18744.516)" fill="url(#radial-gradient)"/>
    <g transform="matrix(1, 0, 0, 1, 276.5, 9230.63)" filter="url(#Polygon_18)">
      <path id="Polygon_18-2" data-name="Polygon 18" d="M295.45,108.821c30.419-49.744,102.67-49.744,133.089,0l222.87,364.463c31.783,51.975-5.622,118.692-66.544,118.692H139.125c-60.922,0-98.327-66.717-66.544-118.692Z" transform="matrix(-0.85, -0.53, 0.53, -0.85, 763.56, 1122.93)" fill="url(#radial-gradient-4)"/>
    </g>
  </g>
</svg>
