<svg xmlns="http://www.w3.org/2000/svg" xmlns:xlink="http://www.w3.org/1999/xlink" width="1218" height="1162.875" viewBox="0 0 1218 1162.875">
  <defs>
    <radialGradient id="radial-gradient" cx="0.703" cy="0.898" r="0.951" gradientTransform="matrix(0.995, 0.098, -0.127, 1.286, 0.125, -0.33)" gradientUnits="objectBoundingBox">
      <stop offset="0" stop-color="#fff"/>
      <stop offset="1" stop-color="#f2f2f2"/>
    </radialGradient>
    <radialGradient id="radial-gradient-2" cx="0.543" cy="0.692" r="0.492" gradientTransform="matrix(0.992, 0.123, -0.154, 1.237, 0.115, -0.229)" gradientUnits="objectBoundingBox">
      <stop offset="0" stop-color="#fff"/>
      <stop offset="1" stop-color="#f4f4f4"/>
    </radialGradient>
    <filter id="Polygon_28" x="129.582" y="78.234" width="966.677" height="924.68" filterUnits="userSpaceOnUse">
      <feOffset dx="-13" dy="-13" input="SourceAlpha"/>
      <feGaussianBlur stdDeviation="6.5" result="blur"/>
      <feFlood flood-color="#fff"/>
      <feComposite operator="in" in2="blur"/>
      <feComposite in="SourceGraphic"/>
    </filter>
  </defs>
  <g id="Group_356" data-name="Group 356" transform="translate(8922 -9227.146)">
    <path id="Polygon_27" data-name="Polygon 27" d="M368.63,174.406c48.747-79.722,164.54-79.722,213.287,0L834.241,587.06c50.931,83.293-9.013,190.209-106.643,190.209H222.95c-97.631,0-157.574-106.916-106.643-190.209Z" transform="matrix(-0.848, -0.53, 0.53, -0.848, -8115.89, 10390.021)" fill="url(#radial-gradient)"/>
    <g transform="matrix(1, 0, 0, 1, -8922, 9227.15)" filter="url(#Polygon_28)">
      <path id="Polygon_28-2" data-name="Polygon 28" d="M295.45,108.821c30.419-49.744,102.67-49.744,133.089,0l222.87,364.463c31.783,51.975-5.622,118.692-66.544,118.692H139.125c-60.922,0-98.327-66.717-66.544-118.692Z" transform="matrix(-0.85, -0.53, 0.53, -0.85, 776.06, 996.41)" fill="url(#radial-gradient-2)"/>
    </g>
  </g>
</svg>
