<svg xmlns="http://www.w3.org/2000/svg" xmlns:xlink="http://www.w3.org/1999/xlink" width="330.703" height="358.164" viewBox="0 0 330.703 358.164">
  <defs>
    <radialGradient id="radial-gradient" cx="0.109" cy="0.236" r="1.334" gradientTransform="matrix(0.999, 0.036, -0.033, 0.92, 0.008, 0.015)" gradientUnits="objectBoundingBox">
      <stop offset="0" stop-color="#fdfdfd"/>
      <stop offset="1" stop-color="#f8f7f7"/>
    </radialGradient>
  </defs>
  <path id="Subtraction_1" data-name="Subtraction 1" d="M-2295.522-8311.835c-.381,0-.7,0-1-.01a53.474,53.474,0,0,1-50.993-40.944,53.472,53.472,0,0,1,26.773-59.663,164.6,164.6,0,0,1-23.739-54.251,165.459,165.459,0,0,1-4.15-28.657,166.271,166.271,0,0,1,.888-28.76,166.275,166.275,0,0,1,5.844-28.174,165.405,165.405,0,0,1,10.719-26.9,164.6,164.6,0,0,1,35.736-47.219,166.149,166.149,0,0,1,25.119-19.029,164.818,164.818,0,0,1,27.549-13.627,165.518,165.518,0,0,1,29.183-8.2A166.233,166.233,0,0,1-2183.57-8670a164.908,164.908,0,0,1,54.062,9.074,164.746,164.746,0,0,1,49.4,27.328,164.623,164.623,0,0,1,38.8,44.73,165.483,165.483,0,0,1,12.488,26.125,166.23,166.23,0,0,1,7.709,27.72,166.206,166.206,0,0,1,2.8,28.637,165.516,165.516,0,0,1-2.23,28.87,164.633,164.633,0,0,1-20.07,55.713,165.5,165.5,0,0,1-27.061,34.938,164.885,164.885,0,0,1-34.277,25.872,165.866,165.866,0,0,1-81.7,21.589h-.022a164.861,164.861,0,0,1-30.337-2.824,166.319,166.319,0,0,1-30.04-8.649,53.309,53.309,0,0,1-7.41,15.854,53.439,53.439,0,0,1-11.783,12.337,53.444,53.444,0,0,1-15.056,8A53.288,53.288,0,0,1-2295.522-8311.835Zm106.048-134.976a21.949,21.949,0,0,0-15.281,6.05A20.292,20.292,0,0,0-2211.1-8426a20.31,20.31,0,0,0,6.3,14.8,21.98,21.98,0,0,0,15.319,6.014,22.146,22.146,0,0,0,15.373-6.014,20.248,20.248,0,0,0,6.354-14.8,20.25,20.25,0,0,0-6.354-14.8A22.149,22.149,0,0,0-2189.474-8446.811Zm2.528-121.758a31.115,31.115,0,0,1,19.237,6.163,19.648,19.648,0,0,1,7.944,15.562,21.862,21.862,0,0,1-5.722,15.471c-3.512,3.985-8.88,7.963-18.53,13.729a63.727,63.727,0,0,0-11.682,8.539,39.22,39.22,0,0,0-7.742,9.9,37.379,37.379,0,0,0-3.991,11.8,56.853,56.853,0,0,0-.429,14.222l.032.984a7.951,7.951,0,0,0,2.434,5.464,7.941,7.941,0,0,0,5.545,2.239h19.372a7.99,7.99,0,0,0,7.982-7.98c0-6.67,1.6-11.708,5.178-16.332,3.526-4.554,9.19-8.959,18.364-14.286,9.629-5.671,16.567-11.906,21.208-19.059,4.836-7.454,7.187-15.895,7.187-25.806a46.864,46.864,0,0,0-4.666-20.749,47.339,47.339,0,0,0-13.106-16.192,61.525,61.525,0,0,0-20.21-10.529,86.646,86.646,0,0,0-25.98-3.757,92.061,92.061,0,0,0-20.026,2.094,68.282,68.282,0,0,0-16.666,5.98,54.845,54.845,0,0,0-13.079,9.424,50.3,50.3,0,0,0-9.264,12.415,16.882,16.882,0,0,0-1.994,8.8,17.511,17.511,0,0,0,2.507,8.18,17.549,17.549,0,0,0,15.145,8.58h.183a17.809,17.809,0,0,0,9.531-2.76,17.8,17.8,0,0,0,6.585-7.433,24.2,24.2,0,0,1,9.593-10.743A29.229,29.229,0,0,1-2186.947-8568.568Z" transform="translate(2349 8669.999)" fill="url(#radial-gradient)"/>
</svg>
