<svg xmlns="http://www.w3.org/2000/svg" width="42.449" height="43.37" viewBox="0 0 42.449 43.37">
  <g id="Group_276" data-name="Group 276" transform="translate(-683.919 -1373.337)">
    <path id="Path_528" data-name="Path 528" d="M6.009,53.341a25.124,25.124,0,0,0-.343-4.1h-20.42v8.15H-3.062A10.067,10.067,0,0,1-7.4,63.858v5.421H-.424C3.66,65.5,6.009,59.937,6.009,53.341Z" transform="translate(720.358 1342.169)" fill="#4285f4"/>
    <path id="Path_529" data-name="Path 529" d="M-6.11,71.076A20.656,20.656,0,0,0,8.22,65.817L1.244,60.4a13.082,13.082,0,0,1-7.355,2.1,12.951,12.951,0,0,1-12.162-8.963h-7.192v5.584A21.652,21.652,0,0,0-6.11,71.076Z" transform="translate(711.714 1345.631)" fill="#34a853"/>
    <path id="Path_530" data-name="Path 530" d="M-17.231,59.719a12.583,12.583,0,0,1-.687-4.138,13.073,13.073,0,0,1,.687-4.138V45.859h-7.192a21.433,21.433,0,0,0-2.331,9.722A21.433,21.433,0,0,0-24.423,65.3Z" transform="translate(710.673 1339.441)" fill="#fbbc05"/>
    <path id="Path_531" data-name="Path 531" d="M-6.11,47.823A11.765,11.765,0,0,1,2.2,51.075l6.18-6.18A20.732,20.732,0,0,0-6.11,39.239,21.652,21.652,0,0,0-25.464,51.2l7.192,5.584A12.951,12.951,0,0,1-6.11,47.823Z" transform="translate(711.714 1334.098)" fill="#ea4335"/>
  </g>
</svg>
