<svg xmlns="http://www.w3.org/2000/svg" width="44.994" height="44.993" viewBox="0 0 44.994 44.993">
  <path id="Icon_awesome-linkedin-in" data-name="Icon awesome-linkedin-in" d="M10.071,44.994H.743V14.954h9.328ZM5.4,10.857A5.428,5.428,0,1,1,10.8,5.4,5.448,5.448,0,0,1,5.4,10.857ZM44.984,44.994H35.676V30.371c0-3.485-.07-7.954-4.85-7.954-4.85,0-5.593,3.786-5.593,7.7V44.994H15.915V14.954h8.947v4.1h.131A9.8,9.8,0,0,1,33.818,14.2c9.441,0,11.176,6.217,11.176,14.292v16.5Z" transform="translate(0 -0.001)" fill="#0e76a8"/>
</svg>
