<svg xmlns="http://www.w3.org/2000/svg" xmlns:xlink="http://www.w3.org/1999/xlink" width="441.755" height="401.042" viewBox="0 0 441.755 401.042">
  <defs>
    <radialGradient id="radial-gradient" cx="0.391" cy="0.131" r="1.479" gradientTransform="matrix(0.73, 0.684, -0.589, 0.628, 0.183, -0.218)" gradientUnits="objectBoundingBox">
      <stop offset="0" stop-color="#4c65ff"/>
      <stop offset="1" stop-color="#263380"/>
    </radialGradient>
  </defs>
  <g id="Group_310" data-name="Group 310" transform="translate(-77.752)">
    <path id="Path_544" data-name="Path 544" d="M963.462,652.908c-2.184-17.557-13.065-34.857-29.809-40.57a81.516,81.516,0,0,1,0,55.967c-2.573,6.96-6.159,14.433-3.739,21.447,1.506,4.365,5.19,7.7,9.307,9.792s8.688,3.083,13.2,4.058l.888.735C960.471,688.159,965.646,670.465,963.462,652.908Z" transform="translate(-452.762 -304.979)" fill="#f0f0f0"/>
    <path id="Path_545" data-name="Path 545" d="M935.706,612.476a69.675,69.675,0,0,1,17.321,39.213,30.007,30.007,0,0,1-.341,9.395,17.21,17.21,0,0,1-4.28,7.982c-1.929,2.12-4.148,4.064-5.528,6.616a10.537,10.537,0,0,0-.515,8.6c1.219,3.5,3.621,6.344,6.066,9.049,2.716,3,5.584,6.079,6.738,10.06.14.482.88.237.74-.244-2.008-6.926-8.732-10.86-11.938-17.1-1.5-2.911-2.124-6.29-.722-9.363,1.227-2.687,3.513-4.694,5.485-6.823a18.363,18.363,0,0,0,4.476-7.649,27.739,27.739,0,0,0,.7-9.347,67.6,67.6,0,0,0-4.937-20.542,70.914,70.914,0,0,0-12.751-20.433C935.889,611.518,935.375,612.105,935.706,612.476Z" transform="translate(-454.982 -304.786)" fill="#fff"/>
    <path id="Path_546" data-name="Path 546" d="M961.5,659.381a10.453,10.453,0,0,0,7.957-10.95.39.39,0,0,0-.779.039,9.679,9.679,0,0,1-7.422,10.171C960.765,658.757,961.012,659.5,961.5,659.381Z" transform="translate(-463.662 -317.197)" fill="#fff"/>
    <path id="Path_547" data-name="Path 547" d="M951.692,691.228a20.148,20.148,0,0,1-9-11.6c-.141-.482-.882-.237-.74.244a20.958,20.958,0,0,0,9.387,12.056C951.774,692.181,952.122,691.483,951.692,691.228Z" transform="translate(-457.148 -327.894)" fill="#fff"/>
    <path id="Path_548" data-name="Path 548" d="M946.985,632.568a5.917,5.917,0,0,1-5.607-.285c-.429-.262-.777.436-.351.7a6.63,6.63,0,0,0,6.2.329.4.4,0,0,0,.248-.492.392.392,0,0,0-.492-.248Z" transform="translate(-456.771 -311.779)" fill="#fff"/>
    <path id="Path_549" data-name="Path 549" d="M858.461,659.018c.263.171.526.342.79.52a77.919,77.919,0,0,1,9.964,7.779c.244.217.487.441.724.665A82.152,82.152,0,0,1,887.78,692.4a79.774,79.774,0,0,1,4.37,11.306c1.613,5.351,2.935,11.28,6.127,15.657a13.664,13.664,0,0,0,1.066,1.316h28.845c.065-.033.131-.059.2-.092l1.152.053c-.046-.2-.1-.415-.145-.619-.026-.118-.059-.237-.085-.355-.02-.079-.04-.158-.053-.23-.006-.026-.013-.053-.02-.072-.013-.072-.033-.138-.046-.2q-.434-1.767-.895-3.534c0-.007,0-.007-.006-.013a117.309,117.309,0,0,0-9.872-25.917c-.132-.244-.263-.494-.408-.737a76.136,76.136,0,0,0-6.838-10.372,67.276,67.276,0,0,0-4.482-5.127,55.961,55.961,0,0,0-14-10.49c-10.346-5.462-22.323-7.555-33.38-4.219C859.021,658.841,858.744,658.926,858.461,659.018Z" transform="translate(-428.61 -320.3)" fill="#f0f0f0"/>
    <path id="Path_550" data-name="Path 550" d="M858.384,660.136a69.676,69.676,0,0,1,37.439,20.881,30.007,30.007,0,0,1,5.384,7.707,17.208,17.208,0,0,1,1.388,8.95c-.264,2.854-.865,5.742-.431,8.611a10.538,10.538,0,0,0,4.768,7.178c3.077,2.057,6.71,2.886,10.292,3.573,3.976.763,8.118,1.492,11.436,3.975.4.3.845-.341.444-.641-5.774-4.321-13.51-3.414-19.826-6.465-2.947-1.423-5.483-3.743-6.213-7.041-.638-2.884-.021-5.863.271-8.75a18.364,18.364,0,0,0-1.031-8.8,27.738,27.738,0,0,0-5.068-7.885A67.6,67.6,0,0,0,880.927,668a70.915,70.915,0,0,0-22.483-8.638c-.491-.1-.548.681-.06.778Z" transform="translate(-428.467 -321.052)" fill="#fff"/>
    <path id="Path_551" data-name="Path 551" d="M910.389,679.64a10.453,10.453,0,0,0-.24-13.534c-.333-.375-.932.124-.6.5a9.68,9.68,0,0,1,.2,12.59c-.32.387.323.828.641.444Z" transform="translate(-446.043 -323.316)" fill="#fff"/>
    <path id="Path_552" data-name="Path 552" d="M918.556,713.371a20.148,20.148,0,0,1-14.17-3.848c-.4-.3-.847.342-.444.641a20.957,20.957,0,0,0,14.754,3.974c.5-.056.358-.823-.139-.767Z" transform="translate(-444.104 -338.178)" fill="#fff"/>
    <path id="Path_553" data-name="Path 553" d="M879.479,667.668a5.917,5.917,0,0,1-4.649,3.149c-.5.049-.358.816.139.767a6.631,6.631,0,0,0,5.15-3.472.4.4,0,0,0-.1-.543A.392.392,0,0,0,879.479,667.668Z" transform="translate(-434.099 -323.839)" fill="#fff"/>
    <path id="Path_554" data-name="Path 554" d="M642.894,176.406a7.6,7.6,0,0,0,2.292,11.432l-4.446,26.653,12.834-5.7,2.255-24.437a7.645,7.645,0,0,0-12.934-7.952Z" transform="translate(-354.174 -154.95)" fill="#ffeac9"/>
    <path id="Path_555" data-name="Path 555" d="M606.1,571.855H595.607l-4.992-40.478H606.1Z" transform="translate(-201.92 -181.668)" fill="#ffeac9"/>
    <path id="Path_556" data-name="Path 556" d="M805.944,746.587H772.106v-.428a13.171,13.171,0,0,1,13.17-13.171h20.669Z" transform="translate(-399.086 -346.227)" fill="#2f2e41"/>
    <path id="Path_557" data-name="Path 557" d="M499.1,571.855H488.607l-4.992-40.478H499.1Z" transform="translate(-165.339 -181.668)" fill="#ffeac9"/>
    <path id="Path_558" data-name="Path 558" d="M698.944,746.587H665.106v-.428a13.171,13.171,0,0,1,13.17-13.171h20.669Z" transform="translate(-362.505 -346.227)" fill="#2f2e41"/>
    <path id="Path_559" data-name="Path 559" d="M698.8,451.188l-3.923,5.159s-.355,2.409-6.305,22.038l-3.264,147.534h19.744l26.391-118.044,27.39,120.412,17.115,1.01-.8-136.862s2.162-28.156-5.5-33.385S698.8,451.188,698.8,451.188Z" transform="translate(-369.412 -249.885)" fill="#2f2e41"/>
    <circle id="Ellipse_16" data-name="Ellipse 16" cx="20.718" cy="20.718" r="20.718" transform="translate(335.148 35.889)" fill="#ffeac9"/>
    <path id="Path_560" data-name="Path 560" d="M754.51,217.231l-.342-.684c-.529-1.058-4.91-9.855-5.46-12.117l-5.513.648-14.357,0,1.995-2.992-5.274.688a12.1,12.1,0,0,0-5.375,2.026,8.234,8.234,0,0,0-2.438,2.514c-1.884,3.226-4.763,8.5-4.792,8.557l-.275.5-2.392-4.024c-.031-.156-3-15.618,6.925-20.862a15.966,15.966,0,0,1,15.177-8.662,6.533,6.533,0,0,1,4.442-2.208c2.353-.123,4.8,1.113,7.249,3.69,3.259,3.422,7.722,8.108,10.421,13.311l.745,1.062a8.372,8.372,0,0,1,1.49,5.2,17.355,17.355,0,0,1-.591,8.853Z" transform="translate(-377.802 -157.381)" fill="#2f2e41"/>
    <path id="Path_561" data-name="Path 561" d="M746.034,268.729l11.464,6.336,22.519,6.305L773.3,340.3l1.223,58.049s-38.119,26.113-74.67-4.384V320.9l2.162-39.53s8.747-2.485,13.151,1.8l8.353-10.85Z" transform="translate(-374.383 -187.506)" fill="#e4e4e4"/>
    <path id="Path_562" data-name="Path 562" d="M476.1,118.585l-5.051-5.429L443.213,110l2.612-42.751L430.649,56.426,419.5,116.611,471,152.686Z" transform="translate(-143.419 -19.291)" fill="#e4e4e4"/>
    <path id="Path_563" data-name="Path 563" d="M796.473,476.836a7.6,7.6,0,0,1,7.384-9.023l8.57-25.626,8.665,11.049-9.466,22.641a7.645,7.645,0,0,1-15.153.959Z" transform="translate(-407.371 -246.808)" fill="#ffeac9"/>
    <path id="Path_564" data-name="Path 564" d="M806.416,294.684l8.461-6.746s8.651,4.772,11.283,13.327,7.239,57.256,7.239,57.256l-12.5,62.521-13.984-9.7,6.744-49.533-11.846-36.2Z" transform="translate(-409.241 -194.073)" fill="#e4e4e4"/>
    <rect id="Rectangle_121" data-name="Rectangle 121" width="213.364" height="51.848" transform="translate(77.752)" fill="#e6e6e6"/>
    <path id="Path_565" data-name="Path 565" d="M331.958,194.47H534.125V153.819H331.958Z" transform="translate(-248.608 -148.22)" fill="#fff"/>
    <circle id="Ellipse_17" data-name="Ellipse 17" cx="15.487" cy="15.487" r="15.487" transform="translate(106.369 10.437)" fill="url(#radial-gradient)"/>
    <rect id="Rectangle_122" data-name="Rectangle 122" width="103.607" height="3.367" transform="translate(158.891 19.864)" fill="url(#radial-gradient)"/>
    <rect id="Rectangle_123" data-name="Rectangle 123" width="103.607" height="3.367" transform="translate(158.891 28.617)" fill="url(#radial-gradient)"/>
    <path id="Path_566" data-name="Path 566" d="M863.092,754H612.349a.658.658,0,1,1,0-1.316H863.092a.658.658,0,0,1,0,1.316Z" transform="translate(-344.243 -352.963)" fill="#cacaca"/>
  </g>
</svg>
