<svg id="Group_310" data-name="Group 310" xmlns="http://www.w3.org/2000/svg" xmlns:xlink="http://www.w3.org/1999/xlink" width="416.185" height="321.281" viewBox="0 0 416.185 321.281">
  <defs>
    <radialGradient id="radial-gradient" cx="0.391" cy="0.131" r="1.479" gradientTransform="matrix(0.73, 0.684, -0.589, 0.628, 0.183, -0.218)" gradientUnits="objectBoundingBox">
      <stop offset="0" stop-color="#4c65ff"/>
      <stop offset="1" stop-color="#263380"/>
    </radialGradient>
  </defs>
  <path id="Path_544" data-name="Path 544" d="M956.63,644.839c-1.749-14.065-10.466-27.924-23.88-32.5a65.3,65.3,0,0,1,0,44.836c-2.061,5.576-4.934,11.562-3,17.182,1.206,3.5,4.158,6.172,7.456,7.844a43.359,43.359,0,0,0,10.576,3.251l.711.589C954.233,673.079,958.379,658.9,956.63,644.839Z" transform="translate(-547.5 -366.108)" fill="#f0f0f0"/>
  <path id="Path_545" data-name="Path 545" d="M935.685,612.336a55.817,55.817,0,0,1,13.876,31.414,24.04,24.04,0,0,1-.273,7.526,13.787,13.787,0,0,1-3.429,6.394c-1.545,1.7-3.323,3.256-4.429,5.3a8.442,8.442,0,0,0-.412,6.891,21.933,21.933,0,0,0,4.86,7.249c2.175,2.406,4.473,4.87,5.4,8.059.112.386.705.19.593-.2-1.609-5.549-6.995-8.7-9.564-13.7a8.549,8.549,0,0,1-.578-7.5c.983-2.153,2.814-3.761,4.394-5.466a14.712,14.712,0,0,0,3.586-6.127,22.22,22.22,0,0,0,.562-7.488,54.153,54.153,0,0,0-3.955-16.457,56.809,56.809,0,0,0-10.215-16.37C935.831,611.568,935.42,612.039,935.685,612.336Z" transform="translate(-550.569 -365.841)" fill="#fff"/>
  <path id="Path_546" data-name="Path 546" d="M961.4,657.133a8.374,8.374,0,0,0,6.375-8.773.313.313,0,0,0-.624.031,7.754,7.754,0,0,1-5.946,8.148C960.809,656.632,961.007,657.225,961.4,657.133Z" transform="translate(-562.572 -383.004)" fill="#fff"/>
  <path id="Path_547" data-name="Path 547" d="M949.752,688.868a16.141,16.141,0,0,1-7.208-9.3c-.113-.386-.706-.19-.593.2a16.789,16.789,0,0,0,7.52,9.658C949.818,689.632,950.1,689.073,949.752,688.868Z" transform="translate(-553.565 -397.796)" fill="#fff"/>
  <path id="Path_548" data-name="Path 548" d="M945.761,632.5a4.741,4.741,0,0,1-4.492-.228c-.344-.21-.622.35-.281.558a5.312,5.312,0,0,0,4.969.263.323.323,0,0,0,.2-.395.314.314,0,0,0-.394-.2Z" transform="translate(-553.043 -375.51)" fill="#fff"/>
  <path id="Path_549" data-name="Path 549" d="M858.461,658.647c.211.137.422.274.633.416a62.428,62.428,0,0,1,7.982,6.232c.2.174.39.353.58.533a65.812,65.812,0,0,1,14.293,19.565,63.919,63.919,0,0,1,3.5,9.058c1.292,4.286,2.352,9.037,4.909,12.543a10.952,10.952,0,0,0,.854,1.055h23.108c.052-.026.105-.047.158-.074l.923.042c-.037-.163-.079-.332-.116-.5-.021-.095-.047-.19-.068-.285-.016-.063-.032-.126-.042-.184-.005-.021-.011-.042-.016-.058-.011-.058-.026-.111-.037-.163q-.348-1.416-.717-2.831c0-.005,0-.005-.005-.011a93.976,93.976,0,0,0-7.908-20.762c-.106-.2-.211-.4-.327-.591a60.991,60.991,0,0,0-5.478-8.309,53.92,53.92,0,0,0-3.59-4.107,44.833,44.833,0,0,0-11.219-8.4c-8.288-4.376-17.884-6.053-26.741-3.38C858.909,658.5,858.688,658.573,858.461,658.647Z" transform="translate(-514.1 -387.295)" fill="#f0f0f0"/>
  <path id="Path_550" data-name="Path 550" d="M858.316,659.98a55.818,55.818,0,0,1,29.993,16.728,24.04,24.04,0,0,1,4.313,6.174,13.786,13.786,0,0,1,1.112,7.17c-.212,2.286-.693,4.6-.345,6.9a8.441,8.441,0,0,0,3.82,5.751,21.931,21.931,0,0,0,8.245,2.862c3.185.611,6.5,1.2,9.162,3.185.322.241.677-.273.356-.514-4.625-3.462-10.823-2.735-15.883-5.179a8.549,8.549,0,0,1-4.977-5.641c-.511-2.31-.017-4.7.217-7.01a14.712,14.712,0,0,0-.826-7.051,22.221,22.221,0,0,0-4.06-6.317,54.153,54.153,0,0,0-13.066-10.758,56.809,56.809,0,0,0-18.011-6.92c-.393-.078-.439.545-.048.623Z" transform="translate(-513.904 -388.334)" fill="#fff"/>
  <path id="Path_551" data-name="Path 551" d="M910.2,676.921a8.374,8.374,0,0,0-.192-10.842c-.267-.3-.747.1-.48.4a7.754,7.754,0,0,1,.158,10.086c-.256.31.259.664.513.356Z" transform="translate(-538.208 -391.465)" fill="#fff"/>
  <path id="Path_552" data-name="Path 552" d="M915.618,712.59a16.141,16.141,0,0,1-11.352-3.083c-.323-.24-.678.274-.356.514a16.789,16.789,0,0,0,11.819,3.184c.4-.045.286-.659-.112-.615Z" transform="translate(-535.527 -412.018)" fill="#fff"/>
  <path id="Path_553" data-name="Path 553" d="M878.492,667.635a4.74,4.74,0,0,1-3.724,2.522c-.4.039-.286.654.112.615a5.312,5.312,0,0,0,4.126-2.781.323.323,0,0,0-.079-.435A.314.314,0,0,0,878.492,667.635Z" transform="translate(-521.692 -392.188)" fill="#fff"/>
  <path id="Path_554" data-name="Path 554" d="M642.465,175.829a6.091,6.091,0,0,0,1.836,9.158l-3.562,21.352,10.282-4.563,1.806-19.577a6.124,6.124,0,0,0-10.362-6.371Z" transform="translate(-411.168 -158.64)" fill="#ffeac9"/>
  <path id="Path_555" data-name="Path 555" d="M603.022,563.8h-8.407l-4-32.428h12.408Z" transform="translate(-279.226 -251.219)" fill="#ffeac9"/>
  <path id="Path_556" data-name="Path 556" d="M799.214,743.883H772.106v-.343a10.552,10.552,0,0,1,10.551-10.551h16.558Z" transform="translate(-473.274 -423.148)" fill="#2f2e41"/>
  <path id="Path_557" data-name="Path 557" d="M496.022,563.8h-8.407l-4-32.428h12.408Z" transform="translate(-228.639 -251.219)" fill="#ffeac9"/>
  <path id="Path_558" data-name="Path 558" d="M692.214,743.883H665.106v-.343a10.552,10.552,0,0,1,10.551-10.551h16.558Z" transform="translate(-422.688 -423.148)" fill="#2f2e41"/>
  <path id="Path_559" data-name="Path 559" d="M696.117,451.188l-3.143,4.133s-.284,1.93-5.051,17.655l-2.615,118.192h15.817L722.268,496.6l21.942,96.464,13.711.809-.645-109.642s1.732-22.556-4.407-26.745S696.117,451.188,696.117,451.188Z" transform="translate(-432.239 -289.921)" fill="#2f2e41"/>
  <circle id="Ellipse_16" data-name="Ellipse 16" cx="16.597" cy="16.597" r="16.597" transform="translate(268.492 28.751)" fill="#ffeac9"/>
  <path id="Path_560" data-name="Path 560" d="M745.628,209.948l-.274-.548c-.424-.848-3.933-7.9-4.374-9.707l-4.417.52-11.5,0,1.6-2.4-4.225.551a9.7,9.7,0,0,0-4.306,1.623A6.6,6.6,0,0,0,716.175,202c-1.509,2.585-3.815,6.812-3.839,6.855l-.221.4-1.916-3.223c-.025-.125-2.4-12.512,5.548-16.712a12.79,12.79,0,0,1,12.158-6.939,5.234,5.234,0,0,1,3.558-1.769c1.885-.1,3.842.892,5.808,2.956,2.611,2.741,6.186,6.5,8.349,10.663l.6.851a6.707,6.707,0,0,1,1.193,4.165,13.9,13.9,0,0,1-.474,7.093Z" transform="translate(-443.841 -162.001)" fill="#2f2e41"/>
  <path id="Path_561" data-name="Path 561" d="M736.849,268.729l9.184,5.076,18.041,5.051-5.385,47.211.98,46.5s-30.538,20.92-59.82-3.512V310.524l1.732-31.668s7.007-1.991,10.535,1.443l6.692-8.692Z" transform="translate(-439.113 -203.66)" fill="#e4e4e4"/>
  <path id="Path_562" data-name="Path 562" d="M464.842,106.223l-4.046-4.35-22.3-2.526L440.589,65.1l-12.157-8.673L419.5,104.641l41.26,28.9Z" transform="translate(-198.327 -26.677)" fill="#e4e4e4"/>
  <path id="Path_563" data-name="Path 563" d="M796.446,469.945a6.091,6.091,0,0,1,5.916-7.228l6.865-20.53,6.942,8.851-7.584,18.138a6.124,6.124,0,0,1-12.139.768Z" transform="translate(-484.731 -285.666)" fill="#ffeac9"/>
  <path id="Path_564" data-name="Path 564" d="M805.5,293.342l6.778-5.4s6.93,3.823,9.039,10.677,5.8,45.869,5.8,45.869L817.1,394.57,805.9,386.8l5.4-39.681-9.49-29Z" transform="translate(-487.317 -212.741)" fill="#e4e4e4"/>
  <rect id="Rectangle_121" data-name="Rectangle 121" width="170.929" height="41.536" transform="translate(62.288)" fill="#e6e6e6"/>
  <path id="Path_565" data-name="Path 565" d="M331.958,186.385H493.917V153.819H331.958Z" transform="translate(-265.185 -149.334)" fill="#fff"/>
  <circle id="Ellipse_17" data-name="Ellipse 17" cx="12.407" cy="12.407" r="12.407" transform="translate(85.214 8.361)" fill="url(#radial-gradient)"/>
  <rect id="Rectangle_122" data-name="Rectangle 122" width="83.001" height="2.697" transform="translate(127.29 15.913)" fill="url(#radial-gradient)"/>
  <rect id="Rectangle_123" data-name="Rectangle 123" width="83.001" height="2.697" transform="translate(127.29 22.926)" fill="url(#radial-gradient)"/>
  <path id="Rectangle_1" data-name="Rectangle 1" d="M205.309,265.054,349.935,275.6v37.973l-144.626-2.686Z" transform="translate(-205.309 -201.922)" fill="#e6e6e6"/>
  <path id="Path_1" data-name="Path 1" d="M213.95,310.765l136.913,3.349V284.2L213.95,275.021Z" transform="translate(-209.394 -206.634)" fill="#fff"/>
  <path id="Ellipse_1" data-name="Ellipse 1" d="M260.344,286.6a10.885,10.885,0,0,1,4.511,1.306,12.556,12.556,0,0,1,3.646,3.007,14.2,14.2,0,0,1,2.439,4.256,14.882,14.882,0,0,1,.891,5.085,14.2,14.2,0,0,1-.891,5A12.612,12.612,0,0,1,268.5,309.3a11.012,11.012,0,0,1-3.646,2.673,10.232,10.232,0,0,1-4.511.893,10.8,10.8,0,0,1-4.561-1.172,12.443,12.443,0,0,1-3.763-2.958,14.143,14.143,0,0,1-2.557-4.319,14.877,14.877,0,0,1-.941-5.219,14.179,14.179,0,0,1,.941-5.136,12.535,12.535,0,0,1,2.557-4.083,10.935,10.935,0,0,1,3.763-2.614A10.226,10.226,0,0,1,260.344,286.6Z" transform="translate(-225.738 -212.101)" fill="#e6e6e6"/>
  <path id="Rectangle_2" data-name="Rectangle 2" d="M322.037,304.444l66.636,3.473v2.524L322.037,307.2Z" transform="translate(-260.495 -220.545)" fill="#e6e6e6"/>
  <path id="Rectangle_3" data-name="Rectangle 3" d="M322.037,318.051l66.636,2.861v2.524l-66.636-2.625Z" transform="translate(-260.495 -226.978)" fill="#e6e6e6"/>
  <path id="Rectangle_4" data-name="Rectangle 4" d="M205.309,408.959l144.626-2.685v37.973L205.309,454.8Z" transform="translate(-205.309 -268.687)" fill="#e6e6e6"/>
  <path id="Path_2" data-name="Path 2" d="M213.95,453.286,350.863,444.1V414.2L213.95,417.545Z" transform="translate(-209.394 -272.433)" fill="#fff"/>
  <path id="Ellipse_2" data-name="Ellipse 2" d="M248.527,439.992a14.858,14.858,0,0,1,1.152-5.177,13.971,13.971,0,0,1,2.724-4.187,12.232,12.232,0,0,1,3.87-2.766,10.673,10.673,0,0,1,4.593-.939,10.251,10.251,0,0,1,4.459,1.123,11.168,11.168,0,0,1,3.527,2.859,12.822,12.822,0,0,1,2.271,4.16,14.346,14.346,0,0,1,.69,5.051,14.867,14.867,0,0,1-1.09,5.045,14.038,14.038,0,0,1-2.6,4.14,12.346,12.346,0,0,1-3.758,2.826,10.749,10.749,0,0,1-4.553,1.077,10.236,10.236,0,0,1-4.521-.992,11.086,11.086,0,0,1-3.646-2.81,12.75,12.75,0,0,1-2.384-4.22A14.328,14.328,0,0,1,248.527,439.992Z" transform="translate(-225.735 -278.448)" fill="#e6e6e6"/>
  <path id="Rectangle_5" data-name="Rectangle 5" d="M322.037,437.722l66.636-2.626v2.524l-66.636,2.861Z" transform="translate(-260.495 -282.314)" fill="#e6e6e6"/>
  <path id="Rectangle_6" data-name="Rectangle 6" d="M322.037,450.78l66.636-3.237v2.524l-66.636,3.473Z" transform="translate(-260.495 -288.198)" fill="#e6e6e6"/>
  <path id="Path_566" data-name="Path 566" d="M813.092,753.742H612.218a.527.527,0,0,1,0-1.054H813.092a.527.527,0,0,1,0,1.054Z" transform="translate(-397.435 -432.462)" fill="#cacaca"/>
</svg>
