<svg xmlns="http://www.w3.org/2000/svg" width="400.788" height="341.049" viewBox="0 0 400.788 341.049">
  <g id="Group_344" data-name="Group 344" transform="translate(59.681 5.621)">
    <path id="Path_817" data-name="Path 817" d="M546.223,176.578a163.289,163.289,0,0,0-10.732-16.842q-4.118-5.672-8.7-10.965h-.008a164.47,164.47,0,0,0-17.989-17.805q-1.979-1.68-4.011-3.292a163.39,163.39,0,0,0-40.268-23.53s-34.889-9.536-66.094-9.338-58.726,10.131-58.726,10.131A163.823,163.823,0,0,0,244.8,297.309a160.9,160.9,0,0,0,5.425,16.9q1.147,3.011,2.42,5.968c.409.96.826,1.912,1.258,2.86.554,1.239,1.132,2.474,1.724,3.693q.688,1.44,1.415,2.86.935,1.864,1.931,3.7c.512.96,1.04,1.912,1.575,2.86A164.25,164.25,0,0,0,293.211,377q5.557,5.041,11.566,9.558a163.614,163.614,0,0,0,196.575,0q3.269-2.455,6.4-5.074,2.082-1.732,4.095-3.529c.355-.317.711-.635,1.063-.956a164.266,164.266,0,0,0,30.61-37.32,160.523,160.523,0,0,0,8.289-15.737q.981-2.133,1.9-4.305a161.335,161.335,0,0,0,7.1-20.413q.442-1.612.853-3.235v0c.046-.187.1-.379.142-.566.283-1.139.554-2.286.814-3.433v0q1.262-5.546,2.13-11.225c.073-.486.145-.971.214-1.457.027-.176.054-.352.073-.528v0q.619-4.387,1.006-8.84.6-6.991.6-14.143a162.832,162.832,0,0,0-20.424-79.213Z" transform="translate(-257.581 -100.424)" fill="#f2f2f2"/>
    <path id="Path_783" data-name="Path 783" d="M728.11,371.618c-4.452,2.073-4.525,11.356-3.129,14.364l2.53,5.445,16.125-7.492-2.53-5.445C739.707,375.483,732.565,369.552,728.11,371.618Z" transform="translate(-499.807 -236.026)" fill="#3f3d56"/>
    <path id="Path_784" data-name="Path 784" d="M624.824,502.772a1.763,1.763,0,0,1-.744-3.363l83.276-38.691a1.763,1.763,0,1,1,1.486,3.2h0l-83.276,38.691a1.752,1.752,0,0,1-.742.165Z" transform="translate(-439.855 -289.008)" fill="#3f3d56"/>
    <rect id="Rectangle_147" data-name="Rectangle 147" width="26.248" height="88.62" transform="translate(226.308 162.441) rotate(-24.92)" fill="#e6e6e6"/>
    <path id="Path_785" data-name="Path 785" d="M562.181,161.892c-4.452,2.073-4.525,11.356-3.129,14.364l2.53,5.445,16.125-7.492-2.53-5.445C573.778,165.757,566.636,159.826,562.181,161.892Z" transform="translate(-401.43 -111.681)" fill="#3f3d56"/>
    <rect id="Rectangle_148" data-name="Rectangle 148" width="26.248" height="179.135" transform="translate(165.107 90.73) rotate(-24.92)" fill="#e6e6e6"/>
    <path id="Path_788" data-name="Path 788" d="M545.061,394.1l-2.671-5.877,1.538-.709,2.663,5.859,38.559,85.5-1.536.714" transform="translate(-331.452 -230.682)" fill="#3f3d56"/>
    <path id="Path_789" data-name="Path 789" d="M619.061,382.1l-2.671-5.877,1.538-.709,2.663,5.859,38.559,85.5-1.536.714" transform="translate(-375.326 -223.567)" fill="#3f3d56"/>
    <path id="Path_790" data-name="Path 790" d="M606.2,231.255,573.945,246.24c-2.054-3.195-8.244-19.566-6.854-24.423l-1.043-4.632,22.27-10.347,2.981,3.667C595.724,211.863,604.338,227.24,606.2,231.255Z" transform="translate(-406.053 -138.583)" fill="#e6e6e6"/>
    <path id="Path_791" data-name="Path 791" d="M584.789,190.74l-22.982,10.678c-.848.394-1.752.249-2.018-.324a.793.793,0,0,1-.07-.262l-1.189-12.689a1.7,1.7,0,0,1,1.124-1.489l15.241-7.081a1.7,1.7,0,0,1,1.863.1l8.93,9.092c.457.465.209,1.261-.554,1.778a2.471,2.471,0,0,1-.345.2Z" transform="translate(-401.594 -122.287)" fill="#e6e6e6"/>
    <path id="Path_792" data-name="Path 792" d="M643.185,385.931a3.106,3.106,0,0,1-.739-.087,2.281,2.281,0,0,1-1.586-1.232l-14.05-30.241a2.842,2.842,0,0,1,1.74-3.569l20.574-9.559a2.841,2.841,0,0,1,3.85.972l14.05,30.242a2.281,2.281,0,0,1-.082,2.007,3.463,3.463,0,0,1-1.659,1.562l-20.574,9.559A3.631,3.631,0,0,1,643.185,385.931Z" transform="translate(-441.964 -218.066)" fill="#3f3d56"/>
    <path id="Path_793" data-name="Path 793" d="M585.424,200.24l-6.981,3.243c-1.347.626-3.164-.417-4.051-2.324s-.511-3.969.836-4.595l6.981-3.243c1.347-.626,3.164.417,4.051,2.324S586.771,199.614,585.424,200.24Z" transform="translate(-410.716 -130.461)" fill="#3f3d56"/>
    <path id="Path_794" data-name="Path 794" d="M616.075,422.821c-4.452,2.073-4.525,11.356-3.129,14.364l2.53,5.445,16.125-7.492-2.53-5.445C627.673,426.686,620.53,420.755,616.075,422.821Z" transform="translate(-433.383 -266.384)" fill="#3f3d56"/>
    <path id="Path_795" data-name="Path 795" d="M436.886,373.995a1.457,1.457,0,0,1-1.579-2.447A1.457,1.457,0,0,1,436.886,373.995Z" transform="translate(-328.145 -236.088)" fill="#e6e6e6"/>
    <path id="Path_796" data-name="Path 796" d="M838.886,285.995a1.457,1.457,0,0,1-1.579-2.447A1.457,1.457,0,0,1,838.886,285.995Z" transform="translate(-566.486 -183.914)" fill="#e6e6e6"/>
    <path id="Path_797" data-name="Path 797" d="M564.886,355.995a1.457,1.457,0,0,1-1.579-2.447A1.457,1.457,0,0,1,564.886,355.995Z" transform="translate(-404.035 -225.416)" fill="#e6e6e6"/>
    <path id="Path_798" data-name="Path 798" d="M436.886,595.995a1.457,1.457,0,0,1-1.579-2.447A1.457,1.457,0,0,1,436.886,595.995Z" transform="translate(-328.145 -367.71)" fill="#e6e6e6"/>
    <path id="Path_799" data-name="Path 799" d="M633.886,94.995a1.457,1.457,0,0,1-1.579-2.447A1.457,1.457,0,0,1,633.886,94.995Z" transform="translate(-444.944 -70.672)" fill="#e6e6e6"/>
    <path id="Path_800" data-name="Path 800" d="M443.886,212.995a1.457,1.457,0,0,1-1.579-2.447A1.457,1.457,0,0,1,443.886,212.995Z" transform="translate(-332.295 -140.633)" fill="#e6e6e6"/>
    <path id="Path_801" data-name="Path 801" d="M567.541,144.21l-1-.219.219-1-.667-.146-.219,1-1-.219-.146.667,1,.219-.219,1,.667.146.219-1,1,.219Z" transform="translate(-344.695 -85.621)" fill="#e6e6e6"/>
    <path id="Path_802" data-name="Path 802" d="M167.443,348.989l-1-.219.219-1-.667-.146-.219,1-1-.219-.146.667,1,.219-.219,1,.667.146.219-1,1,.219Z" transform="translate(-107.482 -207.032)" fill="#e6e6e6"/>
    <path id="Path_803" data-name="Path 803" d="M811.06,469.817a3.464,3.464,0,0,1-4.6-1.68l-4.117-8.861a3.46,3.46,0,0,1,6.277-2.916l4.117,8.861A3.464,3.464,0,0,1,811.06,469.817Z" transform="translate(-545.96 -285.334)" fill="#3f3d56"/>
    <path id="Path_805" data-name="Path 805" d="M759.647,414.466l-27.6,12.825c-1.758-2.734-7.055-16.746-5.866-20.9l.584-4.65,16.482-8.086,3.652,3.055C752.041,394.967,759.605,407.718,759.647,414.466Z" transform="translate(-500.889 -249.343)" fill="#e6e6e6"/>
    <path id="Path_806" data-name="Path 806" d="M759.187,429.068l-6.981,3.243c-1.347.626-3.4-.917-4.568-3.439s-1.029-5.083.318-5.709l6.981-3.243c1.347-.626,3.4.917,4.568,3.439S760.534,428.442,759.187,429.068Z" transform="translate(-513.245 -264.834)" fill="#3f3d56"/>
    <circle id="Ellipse_44" data-name="Ellipse 44" cx="41.932" cy="41.932" r="41.932" transform="translate(17.927 40.532)" fill="#3e53d2"/>
    <path id="Path_810" data-name="Path 810" d="M738.315,240.635,763.8,166.212l-27.981,73.533a1.4,1.4,0,1,0,2.5.891Z" transform="translate(-506.527 -114.496)" fill="#f0f0f0" opacity="0.3"/>
    <path id="Path_811" data-name="Path 811" d="M485.261,188.347q-8.211,2.729-18.206,5.361c-34.464,9.074-80.66,16.152-130.077,19.931s-96.152,3.806-131.595.078c-17.265-1.816-30.921-4.429-40.588-7.765-10.235-3.532-15.613-7.788-15.984-12.649-.724-9.471,17.965-17.807,33.77-23.132l.428,1.27c-21.705,7.313-33.376,15.04-32.862,21.759.654,8.558,20.838,15.55,55.376,19.183,35.365,3.72,82.014,3.692,131.353-.081s95.449-10.837,129.838-19.891c33.583-8.841,52.47-18.821,51.816-27.379-.543-7.105-14.549-13.184-39.438-17.116l.209-1.324c18.084,2.857,39.8,8.358,40.565,18.337.372,4.861-4.3,9.885-13.875,14.932A140,140,0,0,1,485.261,188.347Z" transform="translate(-190.702 -68.842)" fill="#3f3d56"/>
    <circle id="Ellipse_45" data-name="Ellipse 45" cx="4.357" cy="4.357" r="4.357" transform="translate(304.709 147.435)" fill="#3e53d2"/>
    <circle id="Ellipse_46" data-name="Ellipse 46" cx="4.357" cy="4.357" r="4.357" transform="translate(332.393 265.497)" fill="#f2f2f2"/>
    <circle id="Ellipse_47" data-name="Ellipse 47" cx="8.495" cy="8.495" r="8.495" transform="translate(179.659 283.75)" fill="#f2f2f2"/>
    <circle id="Ellipse_48" data-name="Ellipse 48" cx="4.357" cy="4.357" r="4.357" transform="translate(119.066 179.597)" fill="#3f3d56"/>
    <path id="Path_812" data-name="Path 812" d="M687.226,478.768l18.8,4.866,11.53,22.647-19.492.765Z" transform="translate(-417.324 -284.786)" fill="#e6e6e6"/>
    <path id="Path_813" data-name="Path 813" d="M580.645,398.574l10.346,10.352,26.278,56.814-4.838,4.18Z" transform="translate(-354.133 -237.24)" fill="#ccc"/>
    <path id="Path_816" data-name="Path 816" d="M523.244,499.021q-9.425,0-20.66-.712c-38.74-2.46-88.921-11.013-141.3-24.083S260.592,445.13,225.238,429.1c-17.222-7.808-30.44-15.2-39.286-21.969-9.366-7.166-13.462-13.413-12.177-18.565,2.505-10.038,24.686-12.234,42.852-12.309l.006,1.46c-24.947.1-39.665,4.081-41.442,11.2-2.264,9.07,16.2,23.231,50.649,38.851,35.277,15.994,83.5,31.989,135.8,45.038S464.022,494.4,502.677,496.852c37.75,2.4,60.7-1.429,62.964-10.5,1.879-7.531-10.51-18.625-34.884-31.239l.671-1.3c17.711,9.166,38.269,22.312,35.63,32.889-1.286,5.153-7.837,8.742-19.472,10.668A152.491,152.491,0,0,1,523.244,499.021Z" transform="translate(-233.226 -237.668)" fill="#3f3d56"/>
    <rect id="Rectangle_149" data-name="Rectangle 149" width="26.248" height="88.62" transform="translate(180.233 183.502) rotate(-24.92)" fill="#e6e6e6"/>
    <path id="Path_804" data-name="Path 804" d="M639.06,549.817a3.464,3.464,0,0,1-4.6-1.68l-4.117-8.861a3.46,3.46,0,1,1,6.277-2.916l4.117,8.861A3.464,3.464,0,0,1,639.06,549.817Z" transform="translate(-443.983 -332.765)" fill="#3f3d56"/>
    <path id="Path_807" data-name="Path 807" d="M479.061,437.1l-2.671-5.877,1.538-.709,2.663,5.859,38.56,85.5-1.536.714" transform="translate(-292.321 -256.176)" fill="#3f3d56"/>
    <path id="Path_808" data-name="Path 808" d="M645.641,465.669l-27.6,12.825c-4.072-2.1-10.3-15.861-5.866-20.9l.584-4.65,16.482-8.086,3.652,3.055C636.676,449.072,644.049,462.233,645.641,465.669Z" transform="translate(-432.494 -279.701)" fill="#e6e6e6"/>
    <path id="Path_809" data-name="Path 809" d="M646.431,479.019l-6.981,3.243c-1.347.626-3.269-.643-4.284-2.828s-.745-4.472.6-5.1l6.981-3.243c1.347-.626,3.269.643,4.284,2.828S647.778,478.393,646.431,479.019Z" transform="translate(-446.668 -295.162)" fill="#3f3d56"/>
    <path id="Path_814" data-name="Path 814" d="M525.386,421.624l.812,14.614L551,493.711l6.341-.817Z" transform="translate(-321.371 -250.906)" fill="#ccc"/>
    <path id="Path_815" data-name="Path 815" d="M508.978,566.637l-10.124,16.57,7.464,24.292,14.539-13.006Z" transform="translate(-305.64 -336.883)" fill="#e6e6e6"/>
    <path id="Path_780" data-name="Path 780" d="M718.515,658.931l3.53,7.916a5.078,5.078,0,0,0-5.6,5.141c-.06,3.147,2.5,6.422,5.369,6.869-.548,2.444-2.915,3.521-4.97,4.509s-4.269,2.626-4.116,5.229a5.834,5.834,0,0,0,3.687,4.679,12.433,12.433,0,0,0,5.622.5c-2.818,2.947-3.092,8.487-.618,12.462s7.416,5.931,11.116,4.4c-2.614,3.252-2.046,9.208,1.2,12.564,3.271,3.383,8.011,3.711,12.155,3.355A53.835,53.835,0,0,0,774.8,715.1a26.6,26.6,0,0,0,7.934-9.34,17.092,17.092,0,0,0,.656-13.146c.454,5.505,5.964,9.853,10.921,10.1s9.285-2.549,12.963-5.733c4.891-4.234,9.419-10.169,8.748-17.492-.332-3.625-1.916-7.112-3.469-10.489l-3.011-6.547a33.92,33.92,0,0,0-4.288-7.549c-1.829-2.218-4.369-3.935-6.91-3.919a21.28,21.28,0,0,0,.678-8.228c-.487-2.82-2.351-5.74-4.887-6.4-3.227-.841-5.962,2.137-9.207,1.857-3.123-.27-5.7-3.4-8.736-4.646a6.994,6.994,0,0,0-7.547,1.305,8.694,8.694,0,0,0-2.034,8.047c.6,2.628,2.213,4.946,3.189,7.481s1.128,5.794-.747,7.178c-2.262,1.67-5.705-.6-7.473-3.353s-2.782-6.08-5.017-8.392c-2.638-2.73-6.767-3.369-9.483-1.469s-3.755,6.155-2.385,9.772c1.12,2.957,3.684,5.949,2.795,8.734-.94,2.943-5.053,2.571-7.534.49s-4.129-5.213-6.58-7.34a10.193,10.193,0,0,0-8.593-2.5,8.847,8.847,0,0,0-6.34,5.665" transform="translate(-493.015 -391.245)" fill="#e6e6e6"/>
    <path id="Path_781" data-name="Path 781" d="M846.075,623.771l-7.325,3.4a5.623,5.623,0,0,1-3.556.479,2.424,2.424,0,0,1-1.971-1.784l-1.7-7.961c-.322-1.5.922-3.279,2.957-4.224l4.045-1.88c2.035-.946,4.2-.75,5.135.464l4.985,6.437a2.424,2.424,0,0,1,.093,2.657A5.624,5.624,0,0,1,846.075,623.771Z" transform="translate(-563.418 -378.329)" fill="#3f3d56"/>
    <path id="Path_786" data-name="Path 786" d="M791.648,646.465l-7.325,3.4a5.623,5.623,0,0,1-3.556.479,2.424,2.424,0,0,1-1.971-1.784l-1.7-7.961c-.322-1.5.922-3.279,2.957-4.224l4.045-1.879c2.035-.946,4.2-.75,5.135.464l4.985,6.437a2.424,2.424,0,0,1,.093,2.657A5.623,5.623,0,0,1,791.648,646.465Z" transform="translate(-531.148 -391.785)" fill="#3f3d56"/>
    <path id="Path_787" data-name="Path 787" d="M736.329,673.911l-7.325,3.4a5.624,5.624,0,0,1-3.556.479,2.424,2.424,0,0,1-1.971-1.784l-1.7-7.961c-.322-1.5.922-3.279,2.957-4.224l4.045-1.879c2.035-.946,4.2-.75,5.135.464l4.985,6.437a2.424,2.424,0,0,1,.093,2.657,5.623,5.623,0,0,1-2.659,2.408Z" transform="translate(-498.35 -408.057)" fill="#3f3d56"/>
  </g>
</svg>
