<svg id="Group_343" data-name="Group 343" xmlns="http://www.w3.org/2000/svg" width="359.366" height="349.259" viewBox="0 0 359.366 349.259">
  <path id="Path_720" data-name="Path 720" d="M558.94,181.433a170.049,170.049,0,0,0-11.177-17.54q-4.288-5.907-9.063-11.42h-.008a171.279,171.279,0,0,0-18.735-18.544q-2.061-1.75-4.177-3.428A170.163,170.163,0,0,0,473.843,106l.134,22.035,1.443,251.186H350.357L343.323,128.5l.524-21.683A170.615,170.615,0,0,0,245.02,307.169a167.577,167.577,0,0,0,5.65,17.6q1.195,3.136,2.52,6.216c.426,1,.86,1.991,1.31,2.978.577,1.29,1.179,2.576,1.8,3.846q.717,1.5,1.473,2.978.974,1.941,2.011,3.85c.534,1,1.083,1.991,1.641,2.978a171.061,171.061,0,0,0,34.017,42.547q5.788,5.25,12.045,9.955a170.4,170.4,0,0,0,204.725,0q3.4-2.556,6.67-5.284,2.168-1.8,4.265-3.675c.37-.331.741-.661,1.107-1A171.077,171.077,0,0,0,556.129,351.3a167.165,167.165,0,0,0,8.633-16.389q1.021-2.222,1.979-4.484a168.021,168.021,0,0,0,7.4-21.259q.46-1.678.888-3.369v0c.048-.2.1-.394.147-.589.295-1.187.577-2.381.848-3.576v0q1.314-5.776,2.218-11.691c.076-.506.151-1.011.223-1.517.028-.183.056-.366.076-.55v0q.645-4.569,1.047-9.206.621-7.281.625-14.729a169.582,169.582,0,0,0-21.271-82.5Z" transform="translate(-220.845 -85.036)" fill="#f2f2f2"/>
  <path id="Path_721" data-name="Path 721" d="M856.632,630.5c10.084-13.625,13.962-32.817,6.118-47.843a78.1,78.1,0,0,1-36.976,38.831c-6.383,3.129-13.809,5.945-16.763,12.411-1.838,4.023-1.488,8.774-.01,12.943s3.992,7.879,6.479,11.537l.131,1.1C831.268,652.988,846.548,644.129,856.632,630.5Z" transform="translate(-535.268 -348.771)" fill="#e6e6e6"/>
  <path id="Path_722" data-name="Path 722" d="M872.391,582.445A66.753,66.753,0,0,1,858.5,621.1a28.744,28.744,0,0,1-6.443,6.293,16.488,16.488,0,0,1-8.243,2.711c-2.739.2-5.563.08-8.206.938a10.1,10.1,0,0,0-6.04,5.629c-1.464,3.23-1.679,6.794-1.769,10.286-.1,3.877-.141,7.906-1.97,11.431-.222.427.454.746.675.319,3.182-6.132,1.116-13.3,3.012-19.751.885-3.008,2.682-5.768,5.685-6.973,2.626-1.054,5.539-.937,8.313-1.111a17.594,17.594,0,0,0,8.158-2.35,26.576,26.576,0,0,0,6.661-6.022,64.762,64.762,0,0,0,10.145-17.515,67.937,67.937,0,0,0,4.652-22.6C873.151,581.9,872.407,581.969,872.391,582.445Z" transform="translate(-545.244 -348.434)" fill="#fff"/>
  <path id="Path_723" data-name="Path 723" d="M905.439,658.145a10.015,10.015,0,0,0,12.755-2.341c.3-.373-.263-.861-.566-.488a9.274,9.274,0,0,1-11.87,2.154C905.343,657.228,905.026,657.9,905.439,658.145Z" transform="translate(-589.207 -388.896)" fill="#fff"/>
  <path id="Path_724" data-name="Path 724" d="M867.49,671.818a19.3,19.3,0,0,1,1.423-14c.22-.428-.456-.747-.675-.32a20.079,20.079,0,0,0-1.451,14.567C866.917,672.533,867.62,672.279,867.49,671.818Z" transform="translate(-567.513 -390.068)" fill="#fff"/>
  <path id="Path_725" data-name="Path 725" d="M920,612.172a5.669,5.669,0,0,1-3.7-3.9c-.125-.465-.827-.21-.7.252a6.352,6.352,0,0,0,4.087,4.326.386.386,0,0,0,.5-.178A.375.375,0,0,0,920,612.172Z" transform="translate(-594.926 -362.803)" fill="#fff"/>
  <path id="Path_726" data-name="Path 726" d="M789.883,555.891c.07.293.139.585.2.883a74.661,74.661,0,0,1,1.775,11.98c.026.312.047.628.063.94a78.707,78.707,0,0,1-3.755,28.733,76.427,76.427,0,0,1-4.437,10.732c-2.416,4.778-5.415,9.766-6.092,14.911a13.121,13.121,0,0,0-.13,1.618l20.015,19.056c.067.021.13.046.2.066l.764.8c.1-.172.206-.353.308-.525.06-.1.115-.2.175-.3.039-.068.077-.136.116-.195.013-.022.026-.045.034-.063.039-.059.068-.118.1-.172q.866-1.513,1.714-3.043s0,0,0-.013a112.379,112.379,0,0,0,10.271-24.5c.069-.256.143-.516.2-.781a72.925,72.925,0,0,0,2.107-11.714,64.481,64.481,0,0,0,.277-6.518,53.619,53.619,0,0,0-2.787-16.531c-3.57-10.625-10.5-19.99-20.375-24.979C790.388,556.138,790.14,556.014,789.883,555.891Z" transform="translate(-518.533 -333.959)" fill="#e6e6e6"/>
  <path id="Path_727" data-name="Path 727" d="M802.475,555.761a66.753,66.753,0,0,1,12.183,39.222,28.747,28.747,0,0,1-1.356,8.9,16.487,16.487,0,0,1-4.949,7.127c-2.069,1.806-4.394,3.413-5.987,5.69a10.1,10.1,0,0,0-1.434,8.131c.776,3.46,2.75,6.435,4.781,9.278,2.255,3.156,4.647,6.4,5.309,10.314.08.474.812.322.732-.151-1.151-6.812-7.119-11.294-9.486-17.583-1.1-2.935-1.332-6.22.341-8.99,1.462-2.423,3.858-4.082,5.969-5.893a17.593,17.593,0,0,0,5.1-6.789,26.574,26.574,0,0,0,1.693-8.819,64.761,64.761,0,0,0-2.445-20.093,67.935,67.935,0,0,0-9.894-20.847C802.754,554.869,802.2,555.371,802.475,555.761Z" transform="translate(-531.322 -333.532)" fill="#fff"/>
  <path id="Path_728" data-name="Path 728" d="M832.2,621.946a10.015,10.015,0,0,0,8.775-9.549c.017-.48-.729-.529-.746-.048a9.274,9.274,0,0,1-8.18,8.866c-.477.057-.323.788.151.732Z" transform="translate(-548.548 -365.01)" fill="#fff"/>
  <path id="Path_729" data-name="Path 729" d="M810.6,663.245a19.3,19.3,0,0,1-7.29-12.031c-.082-.474-.813-.322-.732.151a20.079,20.079,0,0,0,7.612,12.5c.383.292.792-.334.41-.624Z" transform="translate(-532.397 -386.541)" fill="#fff"/>
  <path id="Path_730" data-name="Path 730" d="M814.5,585.6a5.669,5.669,0,0,1-5.306-.886c-.38-.3-.787.33-.41.624a6.353,6.353,0,0,0,5.867.993.386.386,0,0,0,.29-.441A.375.375,0,0,0,814.5,585.6Z" transform="translate(-535.752 -349.864)" fill="#fff"/>
  <path id="Path_731" data-name="Path 731" d="M205.717,459.257c-8.943-14.4-11.249-33.843-2.21-48.182a78.1,78.1,0,0,0,33.7,41.708c6.108,3.638,13.28,7.048,15.7,13.733,1.505,4.159.77,8.866-1.041,12.9s-4.619,7.528-7.4,10.972l-.22,1.082C229.169,483.728,214.66,473.657,205.717,459.257Z" transform="translate(-197.764 -253.834)" fill="#e6e6e6"/>
  <path id="Path_732" data-name="Path 732" d="M210.332,410.876a66.753,66.753,0,0,0,10.7,39.652,28.746,28.746,0,0,0,5.91,6.8,16.487,16.487,0,0,0,8,3.372c2.714.418,5.538.532,8.1,1.6a10.1,10.1,0,0,1,5.562,6.1c1.2,3.339,1.121,6.908.927,10.4-.216,3.873-.5,7.892,1.035,11.554.186.444-.513.707-.7.264-2.673-6.371-.031-13.351-1.4-19.93-.637-3.07-2.2-5.967-5.1-7.412-2.532-1.264-5.444-1.384-8.2-1.783a17.593,17.593,0,0,1-7.94-3.006,26.575,26.575,0,0,1-6.15-6.544,64.762,64.762,0,0,1-8.688-18.282,67.936,67.936,0,0,1-2.8-22.9c.024-.479.76-.351.737.125Z" transform="translate(-204.265 -253.488)" fill="#fff"/>
  <path id="Path_733" data-name="Path 733" d="M213.692,487.1a10.015,10.015,0,0,1-12.523-3.37c-.272-.4.332-.837.6-.44a9.274,9.274,0,0,0,11.655,3.111C213.862,486.2,214.123,486.9,213.692,487.1Z" transform="translate(-199.61 -293.704)" fill="#fff"/>
  <path id="Path_734" data-name="Path 734" d="M262.9,504.832a19.3,19.3,0,0,0-.281-14.065c-.185-.444.515-.707.7-.264a20.078,20.078,0,0,1,.262,14.636c-.168.452-.848.141-.681-.308Z" transform="translate(-233.63 -297.654)" fill="#fff"/>
  <path id="Path_735" data-name="Path 735" d="M212.87,441.328a5.669,5.669,0,0,0,4.008-3.588c.162-.453.842-.143.681.308a6.353,6.353,0,0,1-4.425,3.979.386.386,0,0,1-.481-.218A.375.375,0,0,1,212.87,441.328Z" transform="translate(-205.988 -268.465)" fill="#fff"/>
  <path id="Path_736" data-name="Path 736" d="M303.973,394.606c-.093.286-.186.572-.276.863a74.651,74.651,0,0,0-2.742,11.8c-.051.309-.1.622-.139.931a78.706,78.706,0,0,0,1.407,28.943,76.428,76.428,0,0,0,3.55,11.057c2.019,4.958,4.6,10.174,4.86,15.357a13.106,13.106,0,0,1,0,1.623l-21.5,17.366c-.069.015-.134.035-.2.05l-.827.733c-.088-.18-.176-.368-.264-.548-.052-.1-.1-.212-.15-.316-.033-.071-.066-.142-.1-.2-.011-.023-.022-.047-.029-.066-.034-.062-.059-.123-.088-.18q-.74-1.578-1.461-3.173s0,0,0-.014a112.382,112.382,0,0,1-8.246-25.258c-.048-.261-.1-.526-.14-.8a72.931,72.931,0,0,1-1.148-11.847,64.482,64.482,0,0,1,.254-6.519,53.617,53.617,0,0,1,4.121-16.25c4.422-10.3,12.088-19.07,22.337-23.24C303.449,394.81,303.706,394.708,303.973,394.606Z" transform="translate(-241.311 -244.722)" fill="#e6e6e6"/>
  <path id="Path_737" data-name="Path 737" d="M318.041,394.48a66.753,66.753,0,0,0-15.331,38.1,28.745,28.745,0,0,0,.627,8.985,16.487,16.487,0,0,0,4.354,7.506c1.915,1.968,4.1,3.759,5.505,6.158a10.1,10.1,0,0,1,.768,8.22c-1.055,3.386-3.264,6.191-5.519,8.859-2.5,2.962-5.152,6-6.13,9.848-.118.466-.835.255-.717-.21,1.7-6.7,8.013-10.678,10.884-16.754,1.339-2.835,1.833-6.091.391-8.988-1.26-2.534-3.514-4.382-5.47-6.358a17.592,17.592,0,0,1-4.53-7.18,26.576,26.576,0,0,1-.971-8.928,64.762,64.762,0,0,1,4.07-19.828,67.936,67.936,0,0,1,11.555-19.974c.307-.368.818.178.513.543Z" transform="translate(-255.208 -244.283)" fill="#fff"/>
  <path id="Path_738" data-name="Path 738" d="M294.333,457.357a10.015,10.015,0,0,1-7.97-10.231.374.374,0,0,1,.747.012,9.274,9.274,0,0,0,7.433,9.5c.471.1.258.812-.21.717Z" transform="translate(-246.78 -273.584)" fill="#fff"/>
  <path id="Path_739" data-name="Path 739" d="M312.567,501.125a19.3,19.3,0,0,0,8.244-11.4c.12-.466.837-.255.717.21a20.078,20.078,0,0,1-8.6,11.844c-.406.259-.762-.4-.358-.656Z" transform="translate(-261.185 -297.206)" fill="#fff"/>
  <path id="Path_740" data-name="Path 740" d="M318.431,423.426a5.669,5.669,0,0,0,5.36-.452c.4-.264.758.393.358.656a6.353,6.353,0,0,1-5.929.513.386.386,0,0,1-.253-.464A.375.375,0,0,1,318.431,423.426Z" transform="translate(-264.264 -260.383)" fill="#fff"/>
  <circle id="Ellipse_36" data-name="Ellipse 36" cx="23.669" cy="23.669" r="23.669" transform="translate(150.297 11.1)" fill="#3e53d2"/>
  <path id="Path_741" data-name="Path 741" d="M653.987,112.035a86.993,86.993,0,0,0-6.745-6.4,51.59,51.59,0,0,0-15.406-9.33,35.527,35.527,0,0,0-6.61-1.74c-.271-.044-.538-.088-.808-.123a.3.3,0,0,0-.06,0,.719.719,0,0,0-.127-.024c-.554-.072-1.107-.127-1.664-.167a28.842,28.842,0,0,0-8.935.8,29.715,29.715,0,0,0-4.937,1.72,44.209,44.209,0,0,0-4.631,2.624,27.819,27.819,0,0,1-2.469,1.334,30.792,30.792,0,0,1-7.765,2.485,34.859,34.859,0,0,1-5.495.542,13.3,13.3,0,0,0-4.627.665,11.088,11.088,0,0,0-6.757,7.319.713.713,0,0,0,.318.784c.41.295.808.629,1.242.892a3.9,3.9,0,0,0,1.21.33q1.027.215,2.059.418,3.793.753,7.617,1.334,7.693,1.165,15.474,1.641a.774.774,0,0,0,.1.008,174.143,174.143,0,0,0,17.6.171c.888-.036,1.772-.08,2.66-.131q5.549-.311,11.07-.98,5.107-.621,10.174-1.541,3.62-.657,7.211-1.465a.705.705,0,0,0,.307-1.167Z" transform="translate(-407.551 -78.502)" fill="#e6e6e6"/>
  <path id="Path_742" data-name="Path 742" d="M543.858,182.685a77.312,77.312,0,0,0-11.273-9.923c-1.35-.948-2.74-1.84-4.169-2.656a44.182,44.182,0,0,0-5.447-2.664c-.418-.171-.84-.334-1.262-.49a35.286,35.286,0,0,0-7.418-1.864c-.02,0-.04,0-.06,0l-.123-.024a27.4,27.4,0,0,0-3.7-.227c-.888,0-1.78.048-2.664.135a29.457,29.457,0,0,0-4.237.733c-.689.171-1.374.37-2.047.6a29.235,29.235,0,0,0-2.887,1.123l-.044.02a43.008,43.008,0,0,0-4.587,2.6l-.1.06a28.936,28.936,0,0,1-5.288,2.477,32.2,32.2,0,0,1-4.85,1.282,34.342,34.342,0,0,1-5.495.538,13.178,13.178,0,0,0-4.623.669,11.094,11.094,0,0,0-6.761,7.319.718.718,0,0,0,.319.784c.41.295.812.625,1.242.888a3.821,3.821,0,0,0,1.211.33c.685.143,1.37.287,2.059.422q3.793.753,7.621,1.33,5.25.794,10.544,1.27,2.509.233,5.021.382,6.445.388,12.9.3,1.332-.018,2.664-.06,7.908-.233,15.768-1.187a173.432,173.432,0,0,0,17.381-3.006.7.7,0,0,0,.307-1.163Z" transform="translate(-346.618 -117.591)" fill="#e6e6e6"/>
  <path id="Path_743" data-name="Path 743" d="M481.4,62.2l20.852,288.153-41.7,3.7V65.864C465.522,61.982,472.656,61.375,481.4,62.2Z" transform="translate(-343.162 -60.626)" fill="#ccc"/>
  <path id="Path_744" data-name="Path 744" d="M711.82,62.2,690.968,350.351l41.7,3.7V65.864C727.7,61.982,720.569,61.375,711.82,62.2Z" transform="translate(-470.648 -60.626)" fill="#ccc"/>
  <path id="Path_745" data-name="Path 745" d="M603.418,64.44a8.034,8.034,0,0,0-7.227-5.363H463.606c-4.424,0-8.02,4.245-8.02,9.467v286.4a10.234,10.234,0,0,0,2.763,7.145,7.6,7.6,0,0,0,3.472,2.082,6.63,6.63,0,0,0,1.784.24H596.191a6.628,6.628,0,0,0,1.784-.24c3.568-.959,6.236-4.729,6.236-9.227V68.544A10.872,10.872,0,0,0,603.418,64.44Zm-1.867,290.5c0,3.488-2.405,6.327-5.36,6.327H463.606a5.586,5.586,0,0,1-5.157-4.607,7.348,7.348,0,0,1-.2-1.72V68.544c0-3.488,2.405-6.322,5.36-6.322H596.191a4.547,4.547,0,0,1,1.593.287,6.3,6.3,0,0,1,3.767,6.036Z" transform="translate(-340.414 -59.077)" fill="#ccc"/>
  <rect id="Rectangle_140" data-name="Rectangle 140" width="145.964" height="2.662" transform="translate(116.503 87.056)" fill="#ccc"/>
  <rect id="Rectangle_141" data-name="Rectangle 141" width="145.964" height="2.662" transform="translate(116.503 32.106)" fill="#ccc"/>
  <rect id="Rectangle_142" data-name="Rectangle 142" width="145.964" height="2.662" transform="translate(116.503 131.422)" fill="#ccc"/>
  <rect id="Rectangle_143" data-name="Rectangle 143" width="2.662" height="167.938" transform="translate(161.208 1.195)" fill="#ccc"/>
  <rect id="Rectangle_144" data-name="Rectangle 144" width="2.662" height="167.938" transform="translate(215.1 1.195)" fill="#ccc"/>
  <path id="Path_746" data-name="Path 746" d="M591.219,705.353h-174.8a11.992,11.992,0,0,0-11.978,11.978,11.858,11.858,0,0,0,.864,4.456,11.978,11.978,0,0,0,11.113,7.526h174.8a11.979,11.979,0,0,0,10.337-5.933,11.58,11.58,0,0,0,.78-1.593,11.857,11.857,0,0,0,.864-4.456,12,12,0,0,0-11.981-11.978Z" transform="translate(-312.116 -416.655)" fill="#ccc"/>
  <rect id="Rectangle_145" data-name="Rectangle 145" width="145.076" height="8.873" transform="translate(117.391 162.921)" fill="#ccc"/>
  <path id="Path_747" data-name="Path 747" d="M416.148,358.755h2.662a4.88,4.88,0,0,1,4.88,4.88H411.268A4.88,4.88,0,0,1,416.148,358.755Z" transform="translate(-227.55 -198.495)" fill="#ccc"/>
  <circle id="ab6171fa-7d69-4734-b81c-8dff60f9761b" cx="27.494" cy="27.494" r="27.494" transform="translate(164.994 132.958)" fill="#ffeac9"/>
  <path id="bf427902-b9bf-4946-b5d7-5c1c7e04535e" d="M555.445,337.731c.208-3.157,2.3-6.388,8.93-8.076,0,0,11.385-14.558,26.855-6.924,0,0,7.5-1.29,13.062,6.491,0,0,5.514-3.252,7.84,2.512,0,0,6.467,11.758,4.086,23.75s-3.6,13.489-3.6,13.489,3.035-24.807-14.444-23.087-31.551-4.427-35.51,9.032c-3.287,11.175-2.873,16.979-2.873,16.979s-10.991-11.148-7.254-19.927A43.384,43.384,0,0,0,555.445,337.731Z" transform="translate(-393.627 -203.729)" fill="#2f2e41"/>
  <path id="Path_748" data-name="Path 748" d="M461.292,616.125H613.369c-1.016-11.6-1.681-55.944-1.681-58.862,0-12.872-10.533-26.92-10.533-26.92l-3.77-2.084L565.9,518.435l-8.148-10.584a9.06,9.06,0,0,0-7.257-3.543l-25.739.193a9.088,9.088,0,0,0-6.1,2.419l-15.938,14.786-23.377,11.163-.04-.04-.244.182-3.469,2.5-2.231,1.613s-5.854,7.024-10.533,28.09C462.116,568.38,461.621,609.4,461.292,616.125Z" transform="translate(-343.571 -305.419)" fill="#3e53d2"/>
  <path id="Path_749" data-name="Path 749" d="M597.124,742.14c-.366.334-.737.665-1.107,1q-2.1,1.869-4.265,3.675-3.267,2.724-6.67,5.284H380.358q-6.254-4.695-12.045-9.955Z" transform="translate(-292.127 -437.009)" fill="#ccc"/>
  <path id="Path_750" data-name="Path 750" d="M421.561,679.041H346.3l1.593-7.565h72.072Z" transform="translate(-191.606 -371.521)" fill="#2f2e41"/>
  <path id="Path_751" data-name="Path 751" d="M831.045,674.4H811.462a3.025,3.025,0,0,0-2.321,1.075,4.391,4.391,0,0,0-.828-.08,4.645,4.645,0,0,0,0,9.29,4.592,4.592,0,0,0,2.022-.47l.327,4.013,1.3,15.864a2.9,2.9,0,0,0,.247.569,3.053,3.053,0,0,0,2.68,1.593h12.734a3.064,3.064,0,0,0,2.684-1.593,3.147,3.147,0,0,0,.243-.569l3.424-25.731a3.062,3.062,0,0,0-2.927-3.962Zm-22.733,8.959a3.319,3.319,0,1,1,0-6.638c.06,0,.115.016.175.02a3.04,3.04,0,0,0,.048,1.621l1.4,4.555a3.264,3.264,0,0,1-1.625.442Z" transform="translate(-533.004 -399.526)" fill="#3f3d56"/>
  <path id="Path_752" data-name="Path 752" d="M607.423,485.931H483.459a4.024,4.024,0,0,0-4.018,4.018V573.6a4.022,4.022,0,0,0,4.018,4.018H607.423a4.022,4.022,0,0,0,4.018-4.018V489.948A4.024,4.024,0,0,0,607.423,485.931Z" transform="translate(-353.613 -295.251)" fill="#3f3d56"/>
  <path id="Path_753" data-name="Path 753" d="M620.607,635.977h-29a1.547,1.547,0,0,0-1.545,1.549v45.812h32.094V637.526a1.548,1.548,0,0,0-1.549-1.549Zm-14.4,26.03a3.44,3.44,0,0,1-3.424-3.424V653.3a3.424,3.424,0,0,1,6.849,0v5.284A3.441,3.441,0,0,1,606.2,662.006Z" transform="translate(-414.818 -378.27)" fill="#2f2e41"/>
  <path id="Path_754" data-name="Path 754" d="M589.839,738.717v4.42a.866.866,0,0,0,.864.864h30.565a.868.868,0,0,0,.864-.864v-4.42Z" transform="translate(-414.695 -435.115)" fill="#3f3d56"/>
  <circle id="Ellipse_37" data-name="Ellipse 37" cx="1.957" cy="1.957" r="1.957" transform="translate(249.217 273.561)" fill="#2f2e41"/>
  <path id="Path_755" data-name="Path 755" d="M522.618,669.493a.685.685,0,0,0-.685.685V673.7a.685.685,0,0,0,1.37,0v-3.524a.685.685,0,0,0-.685-.685Z" transform="translate(-377.123 -396.814)" fill="#2f2e41"/>
  <path id="Path_756" data-name="Path 756" d="M530.944,669.493a.685.685,0,0,0-.685.685V673.7a.685.685,0,0,0,1.37,0v-3.524a.685.685,0,0,0-.685-.685Z" transform="translate(-381.73 -396.814)" fill="#2f2e41"/>
  <path id="Path_757" data-name="Path 757" d="M539.269,669.493a.685.685,0,0,0-.685.685V673.7a.685.685,0,1,0,1.37,0v-3.524a.685.685,0,0,0-.685-.685Z" transform="translate(-386.336 -396.814)" fill="#2f2e41"/>
  <path id="Path_758" data-name="Path 758" d="M547.595,669.493a.685.685,0,0,0-.685.685V673.7a.685.685,0,0,0,1.37,0v-3.524a.685.685,0,0,0-.685-.685Z" transform="translate(-390.943 -396.814)" fill="#2f2e41"/>
  <circle id="Ellipse_38" data-name="Ellipse 38" cx="10.353" cy="10.353" r="10.353" transform="translate(149.266 284.824)" fill="#ffeac9"/>
  <circle id="Ellipse_39" data-name="Ellipse 39" cx="10.353" cy="10.353" r="10.353" transform="translate(221.593 286.815)" fill="#ffeac9"/>
  <path id="Path_759" data-name="Path 759" d="M922.728,439.343c-1.023-1.692-2.235-3.5-4.134-4.051-2.2-.64-4.457.631-6.373,1.885a185.7,185.7,0,0,0-16.527,12.177l.006.066c4.111-.284,7.523,10.647,11.633,10.364,2.97-.2,6.741-11.652,9.366-13.057a7.638,7.638,0,0,1,3.1-1.295,4.976,4.976,0,0,1,3.586,1.941c5.684,6.052,7.328,15.308,13.7,20.625A202.346,202.346,0,0,0,922.728,439.343Z" transform="translate(-583.922 -267.138)" fill="#3f3d56"/>
  <path id="Path_760" data-name="Path 760" d="M916.762,449.15q4.5,8.123,9.541,15.924v0c-.02.183-.048.366-.076.549q-.609-.932-1.206-1.871-4.527-7.1-8.6-14.474-1.935-3.506-3.775-7.068-1.422-2.759-2.783-5.551c-.259-.534-.51-1.067-.761-1.6-.589-1.258-1.171-2.525-1.792-3.767a10.346,10.346,0,0,0-2.875-3.85,3.923,3.923,0,0,0-2.043-.788,5.705,5.705,0,0,0-2.959.848A95.215,95.215,0,0,0,880.7,440.414,97.582,97.582,0,0,0,865.491,457.3c-.135.191-.454.008-.318-.187.538-.757,1.079-1.5,1.637-2.242a98.045,98.045,0,0,1,25.026-23.342q2.431-1.577,4.958-3.006c.848-.482,1.7-.956,2.568-1.4a6.263,6.263,0,0,1,2.724-.844c3.3-.052,5.017,3.691,6.192,6.208q.549,1.189,1.119,2.373,2.144,4.48,4.456,8.888Q915.273,446.465,916.762,449.15Z" transform="translate(-567.016 -262.245)" fill="#3f3d56"/>
  <path id="Path_761" data-name="Path 761" d="M862.493,446.283c-.192-.214-.383-.428-.576-.642a16.977,16.977,0,0,0-5.251-4.317,7.618,7.618,0,0,0-3.192-.74,9.109,9.109,0,0,0-3.314.723c-.5.2-.987.426-1.467.666-.549.276-1.088.571-1.625.868q-1.511.836-2.984,1.746-2.929,1.81-5.675,3.9-1.423,1.082-2.788,2.235-1.269,1.071-2.487,2.2c-.174.16-.433-.1-.259-.259.214-.2.431-.4.647-.593q.917-.829,1.864-1.626,1.726-1.456,3.541-2.8,2.823-2.091,5.84-3.9,1.508-.9,3.057-1.729c.312-.166.627-.329.947-.483a15.088,15.088,0,0,1,2.25-.916,8.005,8.005,0,0,1,3.4-.334,8.848,8.848,0,0,1,3.135,1.085,21.188,21.188,0,0,1,5.2,4.657C862.908,446.2,862.65,446.459,862.493,446.283Z" transform="translate(-549.132 -269.963)" fill="#3f3d56"/>
  <path id="Path_762" data-name="Path 762" d="M862.749,457.722a2.366,2.366,0,0,1-1.468-.42c-1.137-.861-1.107-2.93.091-6.325a7.14,7.14,0,0,1,3.865-4.154,6.616,6.616,0,0,1,5.329-.032q.22.1.435.206h0a15.693,15.693,0,0,1,2.725,1.933,18,18,0,0,0,2.269,1.676l.267.156-.253.178C869.558,455.481,865.185,457.722,862.749,457.722Z" transform="translate(-564.422 -273.294)" fill="#3f3d56"/>
  <path id="Path_763" data-name="Path 763" d="M900.9,402.293a9.16,9.16,0,0,1-8.985-7.383,9.159,9.159,0,1,0,10.8,7.2A9.2,9.2,0,0,1,900.9,402.293Z" transform="translate(-577.766 -244.89)" fill="#3f3d56"/>
  <circle id="Ellipse_40" data-name="Ellipse 40" cx="13.667" cy="13.667" r="13.667" transform="translate(64.308 144.802)" fill="#3f3d56" opacity="0.74"/>
  <circle id="Ellipse_41" data-name="Ellipse 41" cx="13.667" cy="13.667" r="13.667" transform="translate(77.975 144.802)" fill="#3e53d2"/>
  <circle id="Ellipse_42" data-name="Ellipse 42" cx="13.667" cy="13.667" r="13.667" transform="translate(71.257 133.91)" fill="#3e53d2" opacity="0.527"/>
  <rect id="Rectangle_146" data-name="Rectangle 146" width="36.796" height="0.796" transform="translate(85.556 154.689) rotate(-17.441)" fill="#3f3d56"/>
  <circle id="Ellipse_43" data-name="Ellipse 43" cx="1.593" cy="1.593" r="1.593" transform="translate(119.292 142.32)" fill="#3f3d56"/>
  <path id="Path_764" data-name="Path 764" d="M904.272,537.689a54.257,54.257,0,0,0,7.14,4.587c-.048.2-.1.394-.147.589-.315-.147-.621-.3-.928-.462a86.564,86.564,0,0,1-7.279-4.822,15.708,15.708,0,0,0-3.926-1.967,12.953,12.953,0,0,0-4.488-.526c-6.319.311-11.735,4.081-17.608,5.981a17.911,17.911,0,0,1-8.931.844c-3-.585-5.662-2.178-8.31-3.62-2.612-1.426-5.459-2.859-8.509-2.859a7.394,7.394,0,0,0-6.427,3.2.3.3,0,0,1-.514-.3,6.263,6.263,0,0,1,1.087-1.358,8.71,8.71,0,0,1,6.634-2.1c3.034.247,5.8,1.68,8.426,3.122,2.783,1.529,5.634,3.174,8.852,3.508a20.334,20.334,0,0,0,9.27-1.617c5.706-2.17,11.336-5.786,17.684-5.383A15.526,15.526,0,0,1,904.272,537.689Z" transform="translate(-555.49 -322.106)" fill="#3f3d56"/>
  <path id="Path_765" data-name="Path 765" d="M394.28,282.071v.808a4.193,4.193,0,0,0-.812-.08H389.3v8.943a5,5,0,0,1-4.993,4.993h-6.156v1.378a4.174,4.174,0,0,0,.323,1.609h-.852a4.9,4.9,0,0,1-.267-1.609v-1.378h-3.385v-.8h3.385V287A5,5,0,0,1,382.351,282h6.156V280.61h.8V282h4.165A4.979,4.979,0,0,1,394.28,282.071Z" transform="translate(-295.258 -181.649)" fill="#3e53d2"/>
  <path id="Path_766" data-name="Path 766" d="M377.159,269.467H366.041a5,5,0,0,0-4.993,4.993v11.117a5,5,0,0,0,4.993,4.993h11.117a5,5,0,0,0,4.993-4.993V274.445A5,5,0,0,0,377.159,269.467Zm4.2,16.111a4.2,4.2,0,0,1-4.2,4.2H366.041a4.2,4.2,0,0,1-4.2-4.2V274.461a4.2,4.2,0,0,1,4.2-4.2h11.117a4.2,4.2,0,0,1,4.2,4.181Z" transform="translate(-288.107 -175.484)" fill="#3f3d56"/>
  <path id="Path_767" data-name="Path 767" d="M381.55,297.666v.8h.8v-.8Zm0,0v.8h.8v-.8ZM398.473,283.8a4.972,4.972,0,0,0-.812-.068H386.543a5,5,0,0,0-4.993,4.993V299.84a4.9,4.9,0,0,0,.267,1.609,5,5,0,0,0,4.727,3.385H397.66a5,5,0,0,0,4.993-4.993V288.723A4.994,4.994,0,0,0,398.473,283.8Zm3.385,16.043a4.2,4.2,0,0,1-4.2,4.2H386.543a4.2,4.2,0,0,1-4.2-4.2V288.723a4.2,4.2,0,0,1,4.2-4.2H397.66a4.2,4.2,0,0,1,4.2,4.2Zm-20.308-2.174v.8h.8v-.8Z" transform="translate(-299.45 -183.375)" fill="#3f3d56"/>
  <path id="Path_768" data-name="Path 768" d="M303.913,547.3H256.688a1.243,1.243,0,0,0-1.242,1.238v2.8a167.576,167.576,0,0,0,5.65,17.6h42.817a1.237,1.237,0,0,0,1.238-1.238V548.54A1.24,1.24,0,0,0,303.913,547.3Z" transform="translate(-229.679 -329.207)" fill="#3e53d2"/>
  <path id="Path_769" data-name="Path 769" d="M309.534,609.663h-35.8c.426,1,.86,1.991,1.31,2.979h34.487A1.49,1.49,0,0,0,309.534,609.663Z" transform="translate(-239.799 -363.71)" fill="#e4e4e4"/>
  <path id="Path_770" data-name="Path 770" d="M313.381,624.941H280.69q.717,1.5,1.473,2.979h31.218A1.49,1.49,0,0,0,313.381,624.941Z" transform="translate(-243.646 -372.164)" fill="#e4e4e4"/>
  <path id="Path_771" data-name="Path 771" d="M317.7,640.228H288.489c.534,1,1.083,1.991,1.641,2.978H317.7A1.49,1.49,0,0,0,317.7,640.228Z" transform="translate(-247.961 -380.622)" fill="#e4e4e4"/>
  <path id="Path_772" data-name="Path 772" d="M897.7,229.333h-.227a4.559,4.559,0,0,1,2.034.481h-1.033a4.2,4.2,0,0,0-4.2,4.2v11.118a4.2,4.2,0,0,0,4.2,4.2h.658a4.564,4.564,0,0,1-1.66.315h.227a4.6,4.6,0,0,0,4.595-4.595V233.928a4.6,4.6,0,0,0-4.595-4.595Z" transform="translate(-583.139 -153.278)" fill="#3f3d56"/>
  <path id="Path_773" data-name="Path 773" d="M897.7,229.333h-.227a4.559,4.559,0,0,1,2.034.481h-1.033a4.2,4.2,0,0,0-4.2,4.2v11.118a4.2,4.2,0,0,0,4.2,4.2h.658a4.564,4.564,0,0,1-1.66.315h.227a4.6,4.6,0,0,0,4.595-4.595V233.928a4.6,4.6,0,0,0-4.595-4.595Z" transform="translate(-583.139 -153.278)" opacity="0.21"/>
  <path id="Path_774" data-name="Path 774" d="M831.739,229.333h-.227a4.559,4.559,0,0,1,2.034.481h-1.033a4.2,4.2,0,0,0-4.2,4.2v11.118a4.2,4.2,0,0,0,4.2,4.2h.658a4.564,4.564,0,0,1-1.66.315h.227a4.6,4.6,0,0,0,4.595-4.595V233.928a4.6,4.6,0,0,0-4.595-4.595Z" transform="translate(-546.643 -153.278)" fill="#6c63ff"/>
  <path id="Path_775" data-name="Path 775" d="M831.739,229.333h-.227a4.559,4.559,0,0,1,2.034.481h-1.033a4.2,4.2,0,0,0-4.2,4.2v11.118a4.2,4.2,0,0,0,4.2,4.2h.658a4.564,4.564,0,0,1-1.66.315h.227a4.6,4.6,0,0,0,4.595-4.595V233.928a4.6,4.6,0,0,0-4.595-4.595Z" transform="translate(-546.643 -153.278)" fill="#2f42b7"/>
  <path id="Path_776" data-name="Path 776" d="M817.109,249.4a4.2,4.2,0,0,1-4.2-4.2V234.088a4.2,4.2,0,0,1,4.2-4.2h1.033a4.559,4.559,0,0,0-2.035-.481H804.99a4.6,4.6,0,0,0-4.595,4.595v11.118a4.6,4.6,0,0,0,4.595,4.595h11.118a4.563,4.563,0,0,0,1.66-.315Z" transform="translate(-531.193 -153.321)" fill="#3e53d2"/>
  <path id="Path_777" data-name="Path 777" d="M883.072,249.4a4.2,4.2,0,0,1-4.2-4.2V234.088a4.2,4.2,0,0,1,4.2-4.2H884.1a4.559,4.559,0,0,0-2.035-.481H870.952a4.6,4.6,0,0,0-4.595,4.595v11.118a4.6,4.6,0,0,0,4.595,4.595H882.07a4.564,4.564,0,0,0,1.66-.315Z" transform="translate(-567.689 -153.321)" fill="#3f3d56"/>
  <path id="Path_778" data-name="Path 778" d="M932.695,235.6a170.07,170.07,0,0,1,11.177,17.54h-6.96a4.6,4.6,0,0,1-4.6-4.6V237.431A4.589,4.589,0,0,1,932.695,235.6Z" transform="translate(-604.184 -156.747)" fill="#3e53d2"/>
  <path id="Path_779" data-name="Path 779" d="M885.5,274.547l-3.894-5.833-2.847-4.265a1.584,1.584,0,0,0-2.831.41l-1.2,3.854-2.413,7.745a1.587,1.587,0,0,0,2.349,1.82l.856-.53a1.189,1.189,0,0,1,1.808.9l.784,8.561a1.59,1.59,0,0,0,1.577,1.441c.048,0,.1,0,.147-.008l1.2-.107a1.583,1.583,0,0,0,1.433-1.724l-.808-8.84a1.187,1.187,0,0,1,1.68-1.187l.175.08a1.585,1.585,0,0,0,1.979-2.321Z" transform="translate(-570.949 -172.317)" fill="#ccc"/>
</svg>
