<svg id="Group_342" data-name="Group 342" xmlns="http://www.w3.org/2000/svg" width="483.509" height="297.788" viewBox="0 0 483.509 297.788">
  <rect id="Rectangle_136" data-name="Rectangle 136" width="17.763" height="15.673" transform="translate(385.814 282.115)" fill="#f0f0f0"/>
  <path id="Path_698" data-name="Path 698" d="M822.053,296.654A131.636,131.636,0,0,1,753.567,412.2c-1.175.643-2.367,1.27-3.563,1.876a128.646,128.646,0,0,1-13.672,6q-2.79,1.05-5.637,1.954c-.183.063-.371.125-.554.178a131.4,131.4,0,0,1-111.723-15.3q-3.283-2.147-6.431-4.482c-1.186-.883-2.356-1.781-3.511-2.706q-4.9-3.887-9.4-8.239a131.652,131.652,0,1,1,222.981-94.822Z" transform="translate(-338.544 -165)" fill="#f2f2f2"/>
  <path id="Path_699" data-name="Path 699" d="M794.272,465.009,791.3,476.231l11.269,52.886a132.2,132.2,0,0,1-92.157-4.738l8.8-36.889.293-20.009.956-65.978.24-.125a.188.188,0,0,1,.047-.021l22.412-11.509,38.671-.967,28.854,14.054-.219.82Z" transform="translate(-410.976 -271.917)" fill="#3f3d56"/>
  <path id="Path_700" data-name="Path 700" d="M897.757,675.971a9.444,9.444,0,0,1,2.521-14.26L894,628.741l16.1,6.709,3.493,30.28a9.5,9.5,0,0,1-15.835,10.241Z" transform="translate(-498.65 -386.467)" fill="#ffeac9"/>
  <path id="Path_701" data-name="Path 701" d="M881.454,416.515l4.131-1.344s13.1,8.409,11.856,28.74c0,0,.491,10.521.022,17.522-.538,8.031,6.671,87.836,6.671,87.836H880.785L870.779,477Z" transform="translate(-487.56 -284.473)" fill="#3f3d56"/>
  <path id="Path_702" data-name="Path 702" d="M816.28,295.325a26.807,26.807,0,1,1-26.807-26.807h0a26.74,26.74,0,0,1,26.807,26.673Q816.281,295.259,816.28,295.325Z" transform="translate(-435.929 -214.437)" fill="#ffeac9"/>
  <path id="Path_703" data-name="Path 703" d="M761.786,244.267c3.14-6.753,9.217-5.418,14.532-3.129,6.73-1.493,13.131-5.962,20.383-3.319,7.143,10.389,31.126,7.333,26.023,24.246-.007,4.053,7.626,1.694,6.294,8.332,4.043,12.774-14.6,36.967-25.3,31.872,2.646-4.85,8.691-15.866-.477-16.958-19.723,18.352-2.035-34.946-26.817-19.446C768.224,273.374,756.99,251.778,761.786,244.267Z" transform="translate(-434.959 -199.385)" fill="#2f2e41"/>
  <path id="Path_704" data-name="Path 704" d="M802.242,604.117l-42.791-8.475,10.972-55.4q22.711,8.59,42.791,8.475C801.515,565.875,796.2,584.3,802.242,604.117Z" transform="translate(-434.394 -344.203)" fill="#e4e4e4"/>
  <path id="Path_705" data-name="Path 705" d="M789.093,610.345,746.3,601.87c-3.513-25.1-.32-43.993,10.972-55.4q22.711,8.59,42.791,8.475A152.6,152.6,0,0,0,789.093,610.345Z" transform="translate(-427.467 -347.178)" fill="#3e53d2"/>
  <path id="Path_706" data-name="Path 706" d="M740.37,607.285a9.444,9.444,0,0,0-12.161-7.863l-19.873-27.045-6.047,16.358,19.8,23.175a9.5,9.5,0,0,0,18.282-4.625Z" transform="translate(-407.095 -359.549)" fill="#ffeac9"/>
  <path id="Path_707" data-name="Path 707" d="M699.9,413.549l-3.6-2.431s-21.42,1.994-25.828,21.881c0,0-3.222,11.948-4.7,18.808-.761,3.528-10.911,37.615-10.911,37.615l34.421,37.615,9.4-14.106-9.4-23.51Z" transform="translate(-384.445 -282.537)" fill="#3f3d56"/>
  <rect id="Rectangle_137" data-name="Rectangle 137" width="17.763" height="15.673" transform="translate(0 66.098)" fill="#3e53d2"/>
  <rect id="Rectangle_138" data-name="Rectangle 138" width="17.763" height="15.673" transform="translate(38.138 128.79)" fill="#3e53d2"/>
  <rect id="Rectangle_139" data-name="Rectangle 139" width="17.763" height="15.673" transform="translate(65.827 235.889)" fill="#3e53d2"/>
  <path id="Path_708" data-name="Path 708" d="M261.686,222.649a1.985,1.985,0,1,0,0,3.971H406.637a1.985,1.985,0,1,0,0-3.971Z" transform="translate(-195.73 -192.531)" fill="#e4e4e4"/>
  <path id="Path_709" data-name="Path 709" d="M261.683,245.449a1.985,1.985,0,0,0-.008,3.971h91.639a1.985,1.985,0,0,0,0-3.971Z" transform="translate(-195.727 -203.42)" fill="#e4e4e4"/>
  <path id="Path_710" data-name="Path 710" d="M225.686,495.649a1.985,1.985,0,0,0,0,3.971H370.637a1.985,1.985,0,1,0,0-3.971Z" transform="translate(-178.538 -322.906)" fill="#e4e4e4"/>
  <path id="Path_711" data-name="Path 711" d="M225.682,518.45a1.985,1.985,0,0,0-.008,3.971h91.639a1.985,1.985,0,0,0,0-3.971Z" transform="translate(-178.534 -333.795)" fill="#e4e4e4"/>
  <path id="Path_712" data-name="Path 712" d="M383.686,690.649a1.985,1.985,0,1,0,0,3.971H528.637a1.985,1.985,0,0,0,0-3.971Z" transform="translate(-253.993 -416.031)" fill="#e4e4e4"/>
  <path id="Path_713" data-name="Path 713" d="M383.683,713.45a1.985,1.985,0,1,0-.008,3.971h91.639a1.985,1.985,0,1,0,0-3.971Z" transform="translate(-253.99 -426.92)" fill="#e4e4e4"/>
  <path id="Path_714" data-name="Path 714" d="M152.416,286.228A32.681,32.681,0,0,0,173.141,271.6a31.319,31.319,0,0,0,3.141-6.7.784.784,0,0,0-1.484-.505,31.1,31.1,0,0,1-16.053,18.057,29.446,29.446,0,0,1-6.622,2.244.784.784,0,0,0,.293,1.54Z" transform="translate(-144.064 -212.222)" fill="#3f3d56"/>
  <path id="Path_715" data-name="Path 715" d="M181.481,265.479l8.476-4.773c.131-.073.5-.351.634-.318-.11-.027-.01.055-.007.154,0,.134.021.269.026.4.031.825.046,1.651.069,2.476l.131,4.746c.028,1,1.592,1.118,1.564.107l-.154-5.572c-.035-1.277.284-4.109-1.785-3.864a6.051,6.051,0,0,0-2.074.97l-2.58,1.453-4.975,2.8c-.876.493-.206,1.911.674,1.415Z" transform="translate(-157.857 -209.807)" fill="#3f3d56"/>
  <path id="Path_716" data-name="Path 716" d="M206.54,426.388a32.677,32.677,0,0,0-20.108,15.451,31.269,31.269,0,0,0-2.868,6.819.784.784,0,0,0,1.511.417A31.113,31.113,0,0,1,200.426,430.4a29.423,29.423,0,0,1,6.53-2.5.784.784,0,0,0-.417-1.511Z" transform="translate(-159.36 -289.817)" fill="#3f3d56"/>
  <path id="Path_717" data-name="Path 717" d="M189.72,459.808l-8.19,5.049c-.14.087-.278.181-.424.258s-.294.074-.2.166c-.126-.124-.094-.585-.1-.725l-.16-2.369-.319-4.737c-.067-1-1.635-1.008-1.567,0l.375,5.561c.085,1.266-.151,3.887,1.788,3.781a5.783,5.783,0,0,0,2.393-1.192l2.34-1.443,4.86-3c.857-.528.071-1.885-.791-1.353Z" transform="translate(-157.073 -304.304)" fill="#3f3d56"/>
  <path id="Path_718" data-name="Path 718" d="M278.639,628.9a31.11,31.11,0,0,1,19.172,14.73,29.409,29.409,0,0,1,2.709,6.445.784.784,0,0,0,1.511-.417,32.674,32.674,0,0,0-16.071-19.616,31.254,31.254,0,0,0-6.9-2.654.784.784,0,0,0-.417,1.511Z" transform="translate(-204.508 -385.808)" fill="#3f3d56"/>
  <path id="Path_719" data-name="Path 719" d="M305.911,662.162l4.86,3,2.34,1.443a5.774,5.774,0,0,0,2.393,1.192c1.938.106,1.7-2.514,1.788-3.781l.375-5.561c.068-1.007-1.5-1-1.567,0l-.319,4.737-.153,2.266c-.012.173.034.684-.111.828.1-.1,0-.054-.119-.124-.167-.1-.339-.2-.505-.3l-8.19-5.049C305.841,660.277,305.053,661.633,305.911,662.162Z" transform="translate(-217.622 -400.295)" fill="#3f3d56"/>
  <circle id="Ellipse_33" data-name="Ellipse 33" cx="7.314" cy="7.314" r="7.314" transform="translate(28.211 30.05)" fill="#3e53d2"/>
  <circle id="Ellipse_34" data-name="Ellipse 34" cx="7.314" cy="7.314" r="7.314" transform="translate(15.673 173.37)" fill="#3e53d2"/>
  <circle id="Ellipse_35" data-name="Ellipse 35" cx="7.314" cy="7.314" r="7.314" transform="translate(94.561 275.072)" fill="#3e53d2"/>
</svg>
