<svg id="Group_345" data-name="Group 345" xmlns="http://www.w3.org/2000/svg" width="342.175" height="309.748" viewBox="0 0 342.175 309.748">
  <path id="Path_818" data-name="Path 818" d="M578.041,221.628H463.606a7.418,7.418,0,0,1-7.409-7.409V124.34a5.434,5.434,0,0,1,5.428-5.428h118.3a5.528,5.528,0,0,1,5.522,5.522v89.785A7.418,7.418,0,0,1,578.041,221.628Z" transform="translate(-349.684 -112.713)" fill="#f2f2f2"/>
  <path id="Path_819" data-name="Path 819" d="M479.881,228.926H579.947a7.185,7.185,0,0,0,7.185-7.185v-68.95a7.185,7.185,0,0,0-7.185-7.185H479.881a7.185,7.185,0,0,0-7.185,7.185v68.95A7.185,7.185,0,0,0,479.881,228.926Z" transform="translate(-358.774 -127.42)" fill="#fff"/>
  <path id="Path_820" data-name="Path 820" d="M585.219,116.31H455.965v-3.772a7.442,7.442,0,0,1,7.436-7.432H577.783a7.442,7.442,0,0,1,7.436,7.432Z" transform="translate(-349.556 -105.106)" fill="#ccc"/>
  <circle id="Ellipse_49" data-name="Ellipse 49" cx="1.923" cy="1.923" r="1.923" transform="translate(118 3.69)" fill="#fff"/>
  <circle id="Ellipse_50" data-name="Ellipse 50" cx="1.923" cy="1.923" r="1.923" transform="translate(125.301 3.69)" fill="#fff"/>
  <circle id="Ellipse_51" data-name="Ellipse 51" cx="1.923" cy="1.923" r="1.923" transform="translate(132.602 3.69)" fill="#fff"/>
  <path id="Path_821" data-name="Path 821" d="M497.771,208.995h-4.956a1.015,1.015,0,0,1-1.014-1.014v-4.956a1.015,1.015,0,0,1,1.014-1.014h4.956a1.015,1.015,0,0,1,1.014,1.014v4.956A1.015,1.015,0,0,1,497.771,208.995Z" transform="translate(-369.3 -158.496)" fill="#3e53d2"/>
  <path id="Path_822" data-name="Path 822" d="M497.771,237.588h-4.956a1.015,1.015,0,0,1-1.014-1.014v-4.956a1.015,1.015,0,0,1,1.014-1.014h4.956a1.015,1.015,0,0,1,1.014,1.014v4.956a1.015,1.015,0,0,1-1.014,1.014Z" transform="translate(-369.3 -174.25)" fill="#3f3d56"/>
  <path id="Path_823" data-name="Path 823" d="M497.771,266.181h-4.956a1.015,1.015,0,0,1-1.014-1.014v-4.956a1.015,1.015,0,0,1,1.014-1.014h4.956a1.015,1.015,0,0,1,1.014,1.014v4.956A1.015,1.015,0,0,1,497.771,266.181Z" transform="translate(-369.3 -190.003)" fill="#ccc"/>
  <path id="Path_824" data-name="Path 824" d="M546.791,209.557H522.913a1.014,1.014,0,1,1,0-2.027h23.878a1.014,1.014,0,1,1,0,2.027Z" transform="translate(-385.883 -161.537)" fill="#ccc"/>
  <path id="Path_825" data-name="Path 825" d="M546.791,238.15H522.913a1.014,1.014,0,1,1,0-2.027h23.878a1.014,1.014,0,1,1,0,2.027Z" transform="translate(-385.883 -177.29)" fill="#ccc"/>
  <path id="Path_826" data-name="Path 826" d="M546.791,266.744H522.913a1.014,1.014,0,0,1,0-2.027h23.878a1.014,1.014,0,1,1,0,2.027Z" transform="translate(-385.883 -193.044)" fill="#ccc"/>
  <path id="Path_827" data-name="Path 827" d="M682.32,211.448c.025-.426.04-.855.04-1.288a21.248,21.248,0,0,0-21.248-21.248v22.536Z" transform="translate(-462.582 -151.279)" fill="#3e53d2"/>
  <path id="Path_828" data-name="Path 828" d="M631.457,215.749V193.213a21.248,21.248,0,1,0,21.208,22.536Z" transform="translate(-434.536 -153.649)" fill="#3f3d56"/>
  <path id="Path_829" data-name="Path 829" d="M560.726,793.792H219.449a.449.449,0,0,1,0-.9H560.726a.449.449,0,0,1,0,.9Z" transform="translate(-219 -484.044)" fill="#ccc"/>
  <path id="Path_830" data-name="Path 830" d="M713.1,515.671a4.8,4.8,0,0,1,.4.643l22.5,2.53,3.273-4.422,7.319,4.067-6.443,10.741L712.582,522a4.793,4.793,0,1,1,.518-6.324Z" transform="translate(-486.469 -330.248)" fill="#ffeac9"/>
  <path id="Path_831" data-name="Path 831" d="M440.3,494a4.516,4.516,0,0,1-6.522-2.324l-16.043.335,4.444-7.055,14.554.764A4.54,4.54,0,0,1,440.3,494Z" transform="translate(-328.493 -314.383)" fill="#ffeac9"/>
  <path id="Path_832" data-name="Path 832" d="M376.239,477.988a2.025,2.025,0,0,1-1.989,1.443l-29.362-.746L318.3,470.813a5.756,5.756,0,1,1,3.428-10.99l24.02,7.876,28.829,2.782a2.031,2.031,0,0,1,1.826,2.046l-.083,4.917A2.03,2.03,0,0,1,376.239,477.988Z" transform="translate(-271.482 -300.393)" fill="#3f3d56"/>
  <path id="Path_833" data-name="Path 833" d="M138.46,650.547h5.5l2.619-21.235h-8.125Z" transform="translate(-76.284 -346.72)" fill="#ffeac9"/>
  <path id="Path_834" data-name="Path 834" d="M354.333,777.7h10.842a6.909,6.909,0,0,1,6.909,6.909v.224H354.334Z" transform="translate(-293.562 -475.674)" fill="#2f2e41"/>
  <path id="Path_835" data-name="Path 835" d="M102.46,650.547h5.5l2.619-21.235h-8.125Z" transform="translate(-56.45 -346.72)" fill="#ffeac9"/>
  <path id="Path_836" data-name="Path 836" d="M318.333,777.7h10.842a6.909,6.909,0,0,1,6.909,6.909v.224H318.334Z" transform="translate(-273.728 -475.674)" fill="#2f2e41"/>
  <path id="Path_837" data-name="Path 837" d="M313.233,581.233l1.315,78a1.8,1.8,0,0,0,1.959,1.759l6.442-.586a1.8,1.8,0,0,0,1.628-1.65l3.771-48.652a.449.449,0,0,1,.9.018l1.885,49.766a1.8,1.8,0,0,0,1.795,1.728h6.909a1.8,1.8,0,0,0,1.793-1.687l4.836-79.142L317.723,573.6Z" transform="translate(-270.918 -363.223)" fill="#2f2e41"/>
  <circle id="Ellipse_52" data-name="Ellipse 52" cx="11.029" cy="11.029" r="11.029" transform="translate(52.132 122.714)" fill="#ffeac9"/>
  <path id="Path_838" data-name="Path 838" d="M343.723,507.827h-.032l-25.789-.4a2.02,2.02,0,0,1-1.98-1.819l-.292-2.92a.225.225,0,0,0-.447,0l-.3,3.016a2.018,2.018,0,0,1-1.856,1.813l-1.823.14a2.02,2.02,0,0,1-2.11-2.527l1.569-5.983a81.521,81.521,0,0,0,.762-38.017l-.78-3.547a12.81,12.81,0,0,1,6.049-13.838l5.065-2.969,2.3-3.447a4.978,4.978,0,0,1,4.031-2.211c3.206-.07,8.705.517,9.739,5.2a12.8,12.8,0,0,1,8.659,12.323l-.744,53.186A2.021,2.021,0,0,1,343.723,507.827Z" transform="translate(-268.601 -286.925)" fill="#3f3d56"/>
  <path id="Path_839" data-name="Path 839" d="M343.767,393.991c-.045,1.559-1.128,2.461-2.457,3.278a14.212,14.212,0,0,1-4.4,1.512,1.347,1.347,0,0,1-1.978-1.179l-1.4-5.309a33.608,33.608,0,0,1-1.075-5.181,11.9,11.9,0,0,1,2.817-9.437c2.354-2.438,6.435-3.3,9.256-1.426,3.347-4.275,18.646,5.17,14.872,8.143-.671.529-1.7-.14-2.55-.205a2.721,2.721,0,0,0-2.349.746c-.707.864-.4,2.151-.691,3.229a3.015,3.015,0,0,1-3.81,1.953,10.369,10.369,0,0,1-1.976-1.27,2.542,2.542,0,0,0-2.215-.483c-.97.362-1.314,1.549-1.4,2.581A23.907,23.907,0,0,1,343.767,393.991Z" transform="translate(-281.469 -253.891)" fill="#2f2e41"/>
  <path id="Path_840" data-name="Path 840" d="M141.163,377.819l1.8,22,9.43,22.9-13.921-22.452Z" transform="translate(-76.29 -208.16)" opacity="0.2"/>
  <path id="Path_841" data-name="Path 841" d="M496.617,569.057,398.2,510.669a7.418,7.418,0,0,1-2.592-10.153l45.859-77.3a5.434,5.434,0,0,1,7.438-1.9L550.649,481.68a5.528,5.528,0,0,1,1.932,7.567L506.77,566.465A7.418,7.418,0,0,1,496.617,569.057Z" transform="translate(-315.731 -278.906)" fill="#f2f2f2"/>
  <path id="Path_842" data-name="Path 842" d="M420.509,526.044l86.06,51.057a7.185,7.185,0,0,0,9.845-2.513l35.181-59.3a7.185,7.185,0,0,0-2.513-9.845l-86.06-51.057a7.185,7.185,0,0,0-9.845,2.513L418,516.2A7.185,7.185,0,0,0,420.509,526.044Z" transform="translate(-328.082 -296.988)" fill="#fff"/>
  <path id="Path_843" data-name="Path 843" d="M610.448,483.054,499.284,417.1l1.925-3.244a7.442,7.442,0,0,1,10.187-2.6l98.373,58.361a7.442,7.442,0,0,1,2.6,10.186Z" transform="translate(-373.423 -273.211)" fill="#ccc"/>
  <circle id="Ellipse_53" data-name="Ellipse 53" cx="1.923" cy="1.923" r="1.923" transform="translate(138.413 144.057)" fill="#fff"/>
  <circle id="Ellipse_54" data-name="Ellipse 54" cx="1.923" cy="1.923" r="1.923" transform="translate(144.692 147.782)" fill="#fff"/>
  <circle id="Ellipse_55" data-name="Ellipse 55" cx="1.923" cy="1.923" r="1.923" transform="translate(150.971 151.508)" fill="#fff"/>
  <rect id="Rectangle_150" data-name="Rectangle 150" width="0.245" height="1.471" transform="matrix(0.51, -0.86, 0.86, 0.51, 212.166, 221.31)" fill="#e6e6e6"/>
  <path id="Path_844" data-name="Path 844" d="M588.566,536.639l-2.556-1.516.125-.211,2.556,1.516Zm-5.112-3.033L580.9,532.09l.125-.211,2.556,1.516Zm-5.112-3.033-2.556-1.516.125-.211,2.556,1.516Zm-5.112-3.033-2.556-1.516.125-.211,2.556,1.516Zm-5.112-3.033-2.556-1.516.125-.211,2.556,1.516Zm-5.112-3.033-2.556-1.516.125-.211,2.556,1.516Zm-5.112-3.033-2.556-1.516.125-.211,2.556,1.516Zm-5.112-3.033-2.556-1.516.125-.211,2.556,1.516Zm-5.112-3.033-2.556-1.516.125-.211,2.556,1.516Zm-5.112-3.033L540,507.827l.125-.211,2.556,1.516Zm-5.112-3.033-2.556-1.516.125-.211,2.556,1.516Zm-5.112-3.033-2.556-1.516.125-.211,2.556,1.516Zm-5.112-3.033-2.556-1.516.125-.211,2.556,1.516Zm-5.112-3.033-2.556-1.516.125-.211L522.233,497ZM517,494.179l-2.556-1.516.125-.211,2.556,1.516Zm-5.112-3.033-2.556-1.516.125-.211,2.556,1.516Z" transform="translate(-378.956 -316.844)" fill="#e6e6e6"/>
  <rect id="Rectangle_151" data-name="Rectangle 151" width="0.245" height="1.471" transform="matrix(0.51, -0.86, 0.86, 0.51, 126.55, 170.518)" fill="#e6e6e6"/>
  <rect id="Rectangle_152" data-name="Rectangle 152" width="0.245" height="1.471" transform="matrix(0.51, -0.86, 0.86, 0.51, 158.989, 216.276)" fill="#e6e6e6"/>
  <path id="Path_845" data-name="Path 845" d="M521.1,555.661l-2.518-1.494.125-.211,2.518,1.494Zm-5.036-2.988-2.518-1.494.125-.211,2.518,1.494Zm-5.036-2.988-2.518-1.494.125-.211,2.518,1.494ZM506,546.7l-2.518-1.494.125-.211,2.518,1.494Zm-5.036-2.988-2.518-1.494.125-.211,2.518,1.494Zm-5.036-2.988-2.518-1.494.125-.211,2.518,1.494Zm-5.036-2.988-2.518-1.494.125-.211,2.518,1.494Zm-5.036-2.988-2.518-1.494.125-.211,2.518,1.494Z" transform="translate(-364.634 -340.878)" fill="#e6e6e6"/>
  <rect id="Rectangle_153" data-name="Rectangle 153" width="0.245" height="1.471" transform="matrix(0.51, -0.86, 0.86, 0.51, 114.915, 190.129)" fill="#e6e6e6"/>
  <rect id="Rectangle_154" data-name="Rectangle 154" width="0.245" height="1.471" transform="matrix(0.51, -0.86, 0.86, 0.51, 128.811, 210.917)" fill="#e6e6e6"/>
  <path id="Path_846" data-name="Path 846" d="M484.19,561.7,481.6,560.16l.125-.211,2.591,1.537Zm-5.182-3.074-2.591-1.537.125-.211,2.591,1.537Zm-5.181-3.074-2.591-1.537.125-.211,2.591,1.537Z" transform="translate(-357.97 -352.315)" fill="#e6e6e6"/>
  <rect id="Rectangle_155" data-name="Rectangle 155" width="0.245" height="1.471" transform="matrix(0.51, -0.86, 0.86, 0.51, 109.411, 199.408)" fill="#e6e6e6"/>
  <rect id="Rectangle_156" data-name="Rectangle 156" width="0.245" height="1.471" transform="matrix(0.51, -0.86, 0.86, 0.51, 119.418, 226.752)" fill="#e6e6e6"/>
  <path id="Path_847" data-name="Path 847" d="M463.27,596.958l-2.591-1.537.125-.211,2.591,1.537Zm-5.182-3.074-2.591-1.537.125-.211,2.591,1.537Zm-5.181-3.074-2.591-1.537.125-.211,2.591,1.537Z" transform="translate(-346.444 -371.742)" fill="#e6e6e6"/>
  <rect id="Rectangle_157" data-name="Rectangle 157" width="0.245" height="1.471" transform="matrix(0.51, -0.86, 0.86, 0.51, 100.017, 215.242)" fill="#e6e6e6"/>
  <path id="Path_848" data-name="Path 848" d="M457.4,587.7l72.93,43.267a7.753,7.753,0,0,0,10.612-2.709l21.309-35.918-.147-.081L513.759,604.6l-3.83-15a1.851,1.851,0,0,0-1.072-1.251,1.973,1.973,0,0,0-1.265-.071l-25.336,6.466-2.8-10.963a1.859,1.859,0,0,0-2.262-1.342C477.022,582.487,460.536,586.856,457.4,587.7Z" transform="translate(-350.348 -368.063)" fill="#3e53d2"/>
  <path id="Path_849" data-name="Path 849" d="M456.356,587.559l-.061-.238,20.274-5.176a2.086,2.086,0,0,1,2.535,1.5l2.744,10.748,25.2-6.432a2.086,2.086,0,0,1,2.535,1.5l3.773,14.78,48.6-12.406.061.238-48.836,12.467-3.834-15.017A1.839,1.839,0,0,0,507.1,588.2L481.672,594.7l-2.8-10.986a1.841,1.841,0,0,0-2.237-1.327Z" transform="translate(-349.738 -367.896)" fill="#3f3d56"/>
  <circle id="Ellipse_56" data-name="Ellipse 56" cx="1.716" cy="1.716" r="1.716" transform="translate(128.422 209.847)" fill="#3f3d56"/>
  <circle id="Ellipse_57" data-name="Ellipse 57" cx="1.716" cy="1.716" r="1.716" transform="translate(158.6 215.206)" fill="#3f3d56"/>
  <circle id="Ellipse_58" data-name="Ellipse 58" cx="1.716" cy="1.716" r="1.716" transform="translate(211.174 219.34)" fill="#3f3d56"/>
  <path id="Path_850" data-name="Path 850" d="M385.834,575.168a4.516,4.516,0,0,1-.143-6.923l-6.008-14.88,8.174,1.651,4.452,13.877a4.54,4.54,0,0,1-6.475,6.275Z" transform="translate(-307.529 -352.075)" fill="#ffeac9"/>
  <path id="Path_851" data-name="Path 851" d="M376.141,510.49a2.025,2.025,0,0,1-2.055-1.347l-9.725-27.715-2.078-27.649a5.756,5.756,0,1,1,11.491-.7l1.163,25.251,7.633,27.94a2.031,2.031,0,0,1-1.264,2.434l-4.627,1.668A2.031,2.031,0,0,1,376.141,510.49Z" transform="translate(-297.936 -293.845)" fill="#3f3d56"/>
  <path id="Path_852" data-name="Path 852" d="M782.11,508.579a2.062,2.062,0,0,1-.5-.313l-9.044-7.619a2.055,2.055,0,0,1-.132-3.021l8.207-8.241a2.044,2.044,0,0,1,2.663-.212l6.207,4.507a2.056,2.056,0,0,1,.65,2.541l-5.369,11.353a2.057,2.057,0,0,1-2.68,1.006Z" transform="translate(-523.584 -316.49)" fill="#6c63ff"/>
  <path id="Path_853" data-name="Path 853" d="M637.539,642.167l-5.4,1.47L623.9,623.5l7.972-2.169Z" transform="translate(-343.737 -342.323)" fill="#ffeac9"/>
  <path id="Path_854" data-name="Path 854" d="M6.685,0H17.594V6.8H0V6.685A6.685,6.685,0,0,1,6.685,0Z" transform="translate(277.563 302.602) rotate(-15.221)" fill="#2f2e41"/>
  <path id="Path_855" data-name="Path 855" d="M541.305,650.416h-5.6l-2.663-21.593h8.263Z" transform="translate(-293.681 -346.451)" fill="#ffeac9"/>
  <path id="Path_856" data-name="Path 856" d="M521.617,673.346h10.909v6.8H514.933v-.113A6.685,6.685,0,0,1,521.617,673.346Z" transform="translate(-283.703 -370.981)" fill="#2f2e41"/>
  <circle id="Ellipse_59" data-name="Ellipse 59" cx="11.215" cy="11.215" r="11.215" transform="translate(244.842 138.971)" fill="#ffeac9"/>
  <path id="Path_857" data-name="Path 857" d="M756.458,641.846h-7.65a2.061,2.061,0,0,1-2.053-1.928c-2.279-36.238-.946-62.232,4.2-81.8a2.128,2.128,0,0,1,.083-.252l.41-1.024a2.045,2.045,0,0,1,1.908-1.292h15.731a2.052,2.052,0,0,1,1.56.718l2.137,2.493c.042.049.081.1.118.15,9.635,13.436,18.27,39.7,28.27,75.012a2.048,2.048,0,0,1-1.351,2.519l-8.221,2.631A2.066,2.066,0,0,1,789.119,638l-21.334-44.249a1.6,1.6,0,0,0-3.023.478l-6.269,45.838A2.063,2.063,0,0,1,756.458,641.846Z" transform="translate(-509.176 -353.276)" fill="#2f2e41"/>
  <path id="Path_858" data-name="Path 858" d="M777.518,512.146h-.065l-19.109-.6a2.048,2.048,0,0,1-1.977-1.806c-2.422-19.608,4.221-24.861,7.19-26.209a1.58,1.58,0,0,0,.919-1.253l.257-2.055a2.048,2.048,0,0,1,.406-1,23.482,23.482,0,0,1,14.385-8.575,2.052,2.052,0,0,1,2.4,1.758l.385,2.951a1.626,1.626,0,0,0,.326.772c9.707,12.69-1.107,31.428-3.374,35.055h0A2.059,2.059,0,0,1,777.518,512.146Z" transform="translate(-514.777 -306.484)" fill="#3e53d2"/>
  <path id="Path_859" data-name="Path 859" d="M814.419,407.976a46.508,46.508,0,0,1-1.838-7.747,5.247,5.247,0,0,1,1.385-4.235c2.087-1.977,5.633-1.036,7.815.836,3.154,2.7,4.727,6.861,5.322,10.973s.333,8.294.476,12.446.737,8.422,2.854,12,6.045,6.319,10.189,6.015a7.171,7.171,0,0,0,4.489-1.9,5.205,5.205,0,0,0,1.563-4.52c2.118,3.792,1.044,8.932-2.115,11.914a12.621,12.621,0,0,1-12.171,2.551,16.822,16.822,0,0,1-9.613-8.3,25.478,25.478,0,0,1-2.681-12.605c.083-3.335.65-6.7.087-9.984s-2.621-6.626-5.866-7.4Z" transform="translate(-546.022 -264.765)" fill="#2f2e41"/>
  <path id="Path_860" data-name="Path 860" d="M773.333,418.947a4.151,4.151,0,0,1-4.573,2.675,5.362,5.362,0,0,1-4.047-3.72,7.659,7.659,0,0,1,.6-5.615,8.744,8.744,0,0,1,5-4.456,7.179,7.179,0,0,1,6.528,1.043,2.4,2.4,0,0,1,1.678-1.754,4.588,4.588,0,0,1,2.518.037,10.373,10.373,0,0,1,5.773,4.2,16.88,16.88,0,0,1,2.617,6.745c.644,3.616.407,7.567-1.624,10.627s-6.185,4.867-9.556,3.408a4.453,4.453,0,0,1,.864-3.087,9.414,9.414,0,0,0,1.48-2.91,2.35,2.35,0,0,0-1.24-2.734c-.885-.3-1.828.185-2.76.244a3.025,3.025,0,0,1-2.9-4.358Z" transform="translate(-519.507 -271.414)" fill="#2f2e41"/>
  <path id="Path_861" data-name="Path 861" d="M711.113,528.981a4.8,4.8,0,0,1,.514.556L734.2,527.78l2.381-4.96,7.954,2.614-4.3,11.763L711.8,535.289a4.793,4.793,0,1,1-.684-6.308Z" transform="translate(-485.711 -335.246)" fill="#ffeac9"/>
  <path id="Path_862" data-name="Path 862" d="M781.016,522a2.059,2.059,0,0,1-.539-.241l-10-6.315a2.054,2.054,0,0,1-.543-2.975l7.008-9.283a2.044,2.044,0,0,1,2.609-.573l6.763,3.619a2.056,2.056,0,0,1,.99,2.428l-3.772,11.978A2.057,2.057,0,0,1,781.016,522Z" transform="translate(-522.31 -323.977)" fill="#3e53d2"/>
</svg>
