<svg xmlns="http://www.w3.org/2000/svg" width="42.711" height="48.697" viewBox="0 0 42.711 48.697">
  <g id="Group_277" data-name="Group 277" transform="translate(-1271.713 -1371.533)">
    <path id="Icon_simple-tiktok" data-name="Icon simple-tiktok" d="M23.379.038C25.893,0,28.387.019,30.881,0a11.929,11.929,0,0,0,3.358,7.991,13.539,13.539,0,0,0,8.135,3.43v7.723a20.557,20.557,0,0,1-8.058-1.859A23.713,23.713,0,0,1,31.207,15.5c-.019,5.6.019,11.191-.038,16.767a14.625,14.625,0,0,1-2.59,7.55A14.3,14.3,0,0,1,17.24,45.972,14,14,0,0,1,9.412,44a14.449,14.449,0,0,1-7-10.942C2.37,32.1,2.351,31.14,2.39,30.2a14.44,14.44,0,0,1,16.75-12.8c.038,2.836-.077,5.672-.077,8.508a6.584,6.584,0,0,0-8.4,4.063,7.593,7.593,0,0,0-.269,3.085,6.528,6.528,0,0,0,6.715,5.5A6.447,6.447,0,0,0,22.42,35.47a4.418,4.418,0,0,0,.787-2.031c.192-3.43.115-6.841.134-10.271.019-7.723-.019-15.426.038-23.129Z" transform="translate(1272.05 1374.239)" fill="#ee1d52"/>
    <path id="Icon_simple-tiktok-2" data-name="Icon simple-tiktok" d="M23.379.038C25.893,0,28.387.019,30.881,0a11.929,11.929,0,0,0,3.358,7.991,13.539,13.539,0,0,0,8.135,3.43v7.723a20.557,20.557,0,0,1-8.058-1.859A23.713,23.713,0,0,1,31.207,15.5c-.019,5.6.019,11.191-.038,16.767a14.625,14.625,0,0,1-2.59,7.55A14.3,14.3,0,0,1,17.24,45.972,14,14,0,0,1,9.412,44a14.449,14.449,0,0,1-7-10.942C2.37,32.1,2.351,31.14,2.39,30.2a14.44,14.44,0,0,1,16.75-12.8c.038,2.836-.077,5.672-.077,8.508a6.584,6.584,0,0,0-8.4,4.063,7.593,7.593,0,0,0-.269,3.085,6.528,6.528,0,0,0,6.715,5.5A6.447,6.447,0,0,0,22.42,35.47a4.418,4.418,0,0,0,.787-2.031c.192-3.43.115-6.841.134-10.271.019-7.723-.019-15.426.038-23.129Z" transform="translate(1269.345 1371.533)" fill="#69c9d0"/>
    <path id="Icon_simple-tiktok-3" data-name="Icon simple-tiktok" d="M23.379.038C25.893,0,28.387.019,30.881,0a11.929,11.929,0,0,0,3.358,7.991,13.539,13.539,0,0,0,8.135,3.43v7.723a20.557,20.557,0,0,1-8.058-1.859A23.713,23.713,0,0,1,31.207,15.5c-.019,5.6.019,11.191-.038,16.767a14.625,14.625,0,0,1-2.59,7.55A14.3,14.3,0,0,1,17.24,45.972,14,14,0,0,1,9.412,44a14.449,14.449,0,0,1-7-10.942C2.37,32.1,2.351,31.14,2.39,30.2a14.44,14.44,0,0,1,16.75-12.8c.038,2.836-.077,5.672-.077,8.508a6.584,6.584,0,0,0-8.4,4.063,7.593,7.593,0,0,0-.269,3.085,6.528,6.528,0,0,0,6.715,5.5A6.447,6.447,0,0,0,22.42,35.47a4.418,4.418,0,0,0,.787-2.031c.192-3.43.115-6.841.134-10.271.019-7.723-.019-15.426.038-23.129Z" transform="translate(1270.247 1373.337)" fill="#fff"/>
  </g>
</svg>
