<svg width="22" height="23" viewBox="0 0 22 23" fill="none" xmlns="http://www.w3.org/2000/svg">
<path fill-rule="evenodd" clip-rule="evenodd" d="M9.74754 7.6544C10.3174 6.88638 10.5218 6.07694 9.87726 5.36245C8.43081 3.33848 7.45803 2.08686 6.84786 1.48411C5.68785 0.338199 3.7796 0.493201 2.77494 1.48313C2.23533 2.01483 2.05265 2.19741 1.49858 2.76018C-1.58763 5.84806 0.294502 12.3757 5.2979 17.384C10.3002 22.3912 16.8272 24.2743 19.9199 21.1799C20.4312 20.6871 20.8641 20.2539 21.2055 19.8931C22.19 18.8525 22.3395 17.0284 21.199 15.8434C20.6143 15.2358 19.4207 14.31 17.3116 12.8013C16.6656 12.2237 15.8997 12.3489 15.1975 12.8096C14.8597 13.0312 14.6139 13.2554 14.1498 13.72L13.3069 14.5633C13.1959 14.6744 11.6885 13.9195 10.2252 12.4547C8.76106 10.9892 8.00666 9.48168 8.11715 9.37119C8.34501 9.14335 8.62616 8.86205 8.9606 8.52728C9.10787 8.37987 9.17827 8.30851 9.26856 8.21361C9.45667 8.01591 9.61241 7.8365 9.74754 7.6544ZM14.8617 16.1198L15.7047 15.2763C15.9602 15.0206 16.1257 14.8634 16.2604 14.755C18.108 16.0818 19.1781 16.9161 19.6151 17.3703C19.8775 17.6429 19.8368 18.1404 19.6087 18.3815C19.293 18.7152 18.8828 19.1256 18.3795 19.6111C16.3796 21.6118 11.1109 20.0916 6.85301 15.8296C2.59382 11.5662 1.07444 6.29666 3.05918 4.31083C3.61101 3.75037 3.78585 3.57562 4.31775 3.05151C4.51719 2.855 5.06044 2.81087 5.30305 3.05053C5.77282 3.51459 6.64424 4.63038 7.92614 6.41606C7.85978 6.49845 7.7769 6.59155 7.67603 6.69756C7.602 6.77537 7.54032 6.83789 7.40548 6.97286C7.07129 7.30738 6.79041 7.58841 6.56286 7.81595C5.1294 9.24929 6.35019 11.6888 8.67003 14.0109C10.9883 16.3314 13.4287 17.5536 14.8617 16.1198Z" fill="black"/>
</svg>
