<svg xmlns="http://www.w3.org/2000/svg" xmlns:xlink="http://www.w3.org/1999/xlink" width="239.22" height="143.11" viewBox="0 0 239.22 143.11">
  <defs>
    <radialGradient id="radial-gradient" cx="0.085" cy="0.287" r="0.797" gradientTransform="translate(0 -0.027) scale(1 1.161)" gradientUnits="objectBoundingBox">
      <stop offset="0" stop-color="#ecedf1"/>
      <stop offset="1" stop-color="#d0d3db"/>
    </radialGradient>
  </defs>
  <g id="Group_9" data-name="Group 9" transform="translate(-1323 -323)">
    <g id="Group_3" data-name="Group 3" transform="translate(-125 11)">
      <circle id="Ellipse_1" data-name="Ellipse 1" cx="5" cy="5" r="5" transform="translate(1448 441)" fill="url(#radial-gradient)"/>
      <circle id="Ellipse_14" data-name="Ellipse 14" cx="5" cy="5" r="5" transform="translate(1448 419)" fill="url(#radial-gradient)"/>
      <circle id="Ellipse_21" data-name="Ellipse 21" cx="5" cy="5" r="5" transform="translate(1448 398)" fill="url(#radial-gradient)"/>
      <circle id="Ellipse_28" data-name="Ellipse 28" cx="5" cy="5" r="5" transform="translate(1448 376)" fill="url(#radial-gradient)"/>
      <circle id="Ellipse_35" data-name="Ellipse 35" cx="5" cy="5" r="5" transform="translate(1448 355)" fill="url(#radial-gradient)"/>
      <circle id="Ellipse_42" data-name="Ellipse 42" cx="5" cy="5" r="5" transform="translate(1448 333)" fill="url(#radial-gradient)"/>
      <circle id="Ellipse_49" data-name="Ellipse 49" cx="5" cy="5" r="5" transform="translate(1448 312)" fill="url(#radial-gradient)"/>
      <circle id="Ellipse_2" data-name="Ellipse 2" cx="5" cy="5" r="5" transform="translate(1469 441)" fill="url(#radial-gradient)"/>
      <circle id="Ellipse_13" data-name="Ellipse 13" cx="5" cy="5" r="5" transform="translate(1469 419)" fill="url(#radial-gradient)"/>
      <circle id="Ellipse_20" data-name="Ellipse 20" cx="5" cy="5" r="5" transform="translate(1469 398)" fill="url(#radial-gradient)"/>
      <circle id="Ellipse_27" data-name="Ellipse 27" cx="5" cy="5" r="5" transform="translate(1469 376)" fill="url(#radial-gradient)"/>
      <circle id="Ellipse_34" data-name="Ellipse 34" cx="5" cy="5" r="5" transform="translate(1469 355)" fill="url(#radial-gradient)"/>
      <circle id="Ellipse_41" data-name="Ellipse 41" cx="5" cy="5" r="5" transform="translate(1469 333)" fill="url(#radial-gradient)"/>
      <circle id="Ellipse_48" data-name="Ellipse 48" cx="5" cy="5" r="5" transform="translate(1469 312)" fill="url(#radial-gradient)"/>
      <circle id="Ellipse_7" data-name="Ellipse 7" cx="5" cy="5" r="5" transform="translate(1534 441)" fill="url(#radial-gradient)"/>
      <circle id="Ellipse_10" data-name="Ellipse 10" cx="5" cy="5" r="5" transform="translate(1534 419)" fill="url(#radial-gradient)"/>
      <circle id="Ellipse_17" data-name="Ellipse 17" cx="5" cy="5" r="5" transform="translate(1534 398)" fill="url(#radial-gradient)"/>
      <circle id="Ellipse_24" data-name="Ellipse 24" cx="5" cy="5" r="5" transform="translate(1534 376)" fill="url(#radial-gradient)"/>
      <circle id="Ellipse_31" data-name="Ellipse 31" cx="5" cy="5" r="5" transform="translate(1534 355)" fill="url(#radial-gradient)"/>
      <circle id="Ellipse_38" data-name="Ellipse 38" cx="5" cy="5" r="5" transform="translate(1534 333)" fill="url(#radial-gradient)"/>
      <circle id="Ellipse_45" data-name="Ellipse 45" cx="5" cy="5" r="5" transform="translate(1534 312)" fill="url(#radial-gradient)"/>
      <circle id="Ellipse_3" data-name="Ellipse 3" cx="5" cy="5" r="5" transform="translate(1491 441)" fill="url(#radial-gradient)"/>
      <circle id="Ellipse_12" data-name="Ellipse 12" cx="5" cy="5" r="5" transform="translate(1491 419)" fill="url(#radial-gradient)"/>
      <circle id="Ellipse_19" data-name="Ellipse 19" cx="5" cy="5" r="5" transform="translate(1491 398)" fill="url(#radial-gradient)"/>
      <circle id="Ellipse_26" data-name="Ellipse 26" cx="5" cy="5" r="5" transform="translate(1491 376)" fill="url(#radial-gradient)"/>
      <circle id="Ellipse_33" data-name="Ellipse 33" cx="5" cy="5" r="5" transform="translate(1491 355)" fill="url(#radial-gradient)"/>
      <circle id="Ellipse_40" data-name="Ellipse 40" cx="5" cy="5" r="5" transform="translate(1491 333)" fill="url(#radial-gradient)"/>
      <circle id="Ellipse_47" data-name="Ellipse 47" cx="5" cy="5" r="5" transform="translate(1491 312)" fill="url(#radial-gradient)"/>
      <circle id="Ellipse_6" data-name="Ellipse 6" cx="5" cy="5" r="5" transform="translate(1555 441)" fill="url(#radial-gradient)"/>
      <circle id="Ellipse_9" data-name="Ellipse 9" cx="5" cy="5" r="5" transform="translate(1555 419)" fill="url(#radial-gradient)"/>
      <circle id="Ellipse_16" data-name="Ellipse 16" cx="5" cy="5" r="5" transform="translate(1555 398)" fill="url(#radial-gradient)"/>
      <circle id="Ellipse_23" data-name="Ellipse 23" cx="5" cy="5" r="5" transform="translate(1555 376)" fill="url(#radial-gradient)"/>
      <circle id="Ellipse_30" data-name="Ellipse 30" cx="5" cy="5" r="5" transform="translate(1555 355)" fill="url(#radial-gradient)"/>
      <circle id="Ellipse_37" data-name="Ellipse 37" cx="5" cy="5" r="5" transform="translate(1555 333)" fill="url(#radial-gradient)"/>
      <circle id="Ellipse_44" data-name="Ellipse 44" cx="5" cy="5" r="5" transform="translate(1555 312)" fill="url(#radial-gradient)"/>
      <circle id="Ellipse_4" data-name="Ellipse 4" cx="5" cy="5" r="5" transform="translate(1512 441)" fill="url(#radial-gradient)"/>
      <circle id="Ellipse_11" data-name="Ellipse 11" cx="5" cy="5" r="5" transform="translate(1512 419)" fill="url(#radial-gradient)"/>
      <circle id="Ellipse_18" data-name="Ellipse 18" cx="5" cy="5" r="5" transform="translate(1512 398)" fill="url(#radial-gradient)"/>
      <circle id="Ellipse_25" data-name="Ellipse 25" cx="5" cy="5" r="5" transform="translate(1512 376)" fill="url(#radial-gradient)"/>
      <circle id="Ellipse_32" data-name="Ellipse 32" cx="5" cy="5" r="5" transform="translate(1512 355)" fill="url(#radial-gradient)"/>
      <circle id="Ellipse_39" data-name="Ellipse 39" cx="5" cy="5" r="5" transform="translate(1512 333)" fill="url(#radial-gradient)"/>
      <circle id="Ellipse_46" data-name="Ellipse 46" cx="5" cy="5" r="5" transform="translate(1512 312)" fill="url(#radial-gradient)"/>
      <circle id="Ellipse_5" data-name="Ellipse 5" cx="5" cy="5" r="5" transform="translate(1576 441)" fill="url(#radial-gradient)"/>
      <circle id="Ellipse_8" data-name="Ellipse 8" cx="5" cy="5" r="5" transform="translate(1576 419)" fill="url(#radial-gradient)"/>
      <circle id="Ellipse_15" data-name="Ellipse 15" cx="5" cy="5" r="5" transform="translate(1576 398)" fill="url(#radial-gradient)"/>
      <circle id="Ellipse_22" data-name="Ellipse 22" cx="5" cy="5" r="5" transform="translate(1576 376)" fill="url(#radial-gradient)"/>
      <circle id="Ellipse_29" data-name="Ellipse 29" cx="5" cy="5" r="5" transform="translate(1576 355)" fill="url(#radial-gradient)"/>
      <circle id="Ellipse_36" data-name="Ellipse 36" cx="5" cy="5" r="5" transform="translate(1576 333)" fill="url(#radial-gradient)"/>
      <circle id="Ellipse_43" data-name="Ellipse 43" cx="5" cy="5" r="5" transform="translate(1576 312)" fill="url(#radial-gradient)"/>
    </g>
    <path id="Icon_material-question-answer" data-name="Icon material-question-answer" d="M125.759,28.844H112.837V86.993H28.844V99.915a6.48,6.48,0,0,0,6.461,6.461h71.071L132.22,132.22V35.305A6.48,6.48,0,0,0,125.759,28.844ZM99.915,67.61V9.461A6.48,6.48,0,0,0,93.454,3H9.461A6.48,6.48,0,0,0,3,9.461V99.915L28.844,74.071h64.61A6.48,6.48,0,0,0,99.915,67.61Z" transform="translate(1430 329)" fill="#638dff"/>
    <path id="Icon_material-question-answer-2" data-name="Icon material-question-answer" d="M125.759,28.844H112.837V86.993H28.844V99.915a6.48,6.48,0,0,0,6.461,6.461h71.071L132.22,132.22V35.305A6.48,6.48,0,0,0,125.759,28.844ZM99.915,67.61V9.461A6.48,6.48,0,0,0,93.454,3H9.461A6.48,6.48,0,0,0,3,9.461V99.915L28.844,74.071h64.61A6.48,6.48,0,0,0,99.915,67.61Z" transform="translate(1430 333.89)" fill="#3d71ff"/>
  </g>
</svg>
