<?xml version="1.0" encoding="UTF-8" standalone="no"?>
<svg
   xmlns:dc="http://purl.org/dc/elements/1.1/"
   xmlns:cc="http://creativecommons.org/ns#"
   xmlns:rdf="http://www.w3.org/1999/02/22-rdf-syntax-ns#"
   xmlns:svg="http://www.w3.org/2000/svg"
   xmlns="http://www.w3.org/2000/svg"
   xmlns:sodipodi="http://sodipodi.sourceforge.net/DTD/sodipodi-0.dtd"
   xmlns:inkscape="http://www.inkscape.org/namespaces/inkscape"
   xml:space="preserve"
   width="59.307899"
   height="42.479523"
   style="clip-rule:evenodd;fill-rule:evenodd;image-rendering:optimizeQuality;shape-rendering:geometricPrecision;text-rendering:geometricPrecision"
   viewBox="0 0 59.307899 42.479523"
   version="1.1"
   id="svg19"
   sodipodi:docname="logo-avallon.svg"
   inkscape:version="1.0.1 (3bc2e813f5, 2020-09-07)"><metadata
   id="metadata23"><rdf:RDF><cc:Work
       rdf:about=""><dc:format>image/svg+xml</dc:format><dc:type
         rdf:resource="http://purl.org/dc/dcmitype/StillImage" /><dc:title></dc:title></cc:Work></rdf:RDF></metadata><sodipodi:namedview
   pagecolor="#ffffff"
   bordercolor="#666666"
   borderopacity="1"
   objecttolerance="10"
   gridtolerance="10"
   guidetolerance="10"
   inkscape:pageopacity="0"
   inkscape:pageshadow="2"
   inkscape:window-width="1920"
   inkscape:window-height="1027"
   id="namedview21"
   showgrid="false"
   inkscape:zoom="5.7888889"
   inkscape:cx="90"
   inkscape:cy="21.2398"
   inkscape:window-x="-8"
   inkscape:window-y="-8"
   inkscape:window-maximized="1"
   inkscape:current-layer="svg19" />
 <defs
   id="defs4">
  <style
   type="text/css"
   id="style2">
   <![CDATA[
    .fil3 {fill:#bd8f53}
    .fil1 {fill:#bd8f53}
    .fil2 {fill:#bd8f53;fill-rule:nonzero}
    .fil0 {fill:#bd8f53;fill-rule:nonzero}
   ]]>
  </style>
 </defs>
 <g
   id="Warstwa_x0020_1"
   transform="translate(0,0.2398)">
  <metadata
   id="CorelCorpID_0Corel-Layer" />
  <g
   id="_41695480">
   <path
   id="_41697208"
   class="fil0"
   d="m 44.322,33.4228 c 0.708661,0 1.38425,0.09803 1.99606,0.34252 0.611811,0.200787 1.18465,0.50315 1.69724,0.912992 0.542126,0.405118 0.915354,0.885827 1.18465,1.42205 0.271654,0.510236 0.406299,1.08543 0.406299,1.69724 0,0.608268 -0.134646,1.15039 -0.337795,1.66181 -0.237402,0.509055 -0.575197,0.947244 -1.01575,1.35236 -0.538583,0.473622 -1.1563,0.849213 -1.83425,1.08307 -0.641339,0.238583 -1.35,0.344882 -2.09646,0.344882 h -0.04016 c -0.775984,0 -1.48701,-0.106299 -2.16732,-0.377953 -0.643701,-0.237402 -1.2189,-0.576378 -1.75984,-1.08071 -0.444094,-0.374409 -0.783071,-0.850394 -0.985039,-1.35827 -0.201969,-0.510236 -0.309449,-1.05354 -0.309449,-1.6252 0,-0.611811 0.142913,-1.15157 0.380315,-1.69724 0.26811,-0.53622 0.677953,-1.01693 1.22008,-1.42205 0.472441,-0.409843 1.05,-0.712205 1.65827,-0.912992 0.612992,-0.244488 1.28858,-0.34252 1.96299,-0.34252 h 0.04016 z m 0,7.59331 c 1.04646,0 1.92992,-0.305906 2.64331,-0.917717 0.748819,-0.605906 1.08307,-1.39016 1.08307,-2.3374 0,-0.373228 -0.07087,-0.746457 -0.238583,-1.11496 -0.204331,-0.340157 -0.441732,-0.681496 -0.773622,-0.985039 -0.375591,-0.341339 -0.817323,-0.577559 -1.25906,-0.745276 -0.440551,-0.174803 -0.916535,-0.237402 -1.45512,-0.237402 h -0.04016 c -0.470079,0 -0.942521,0.0626 -1.3878,0.200787 -0.437008,0.168898 -0.845669,0.372047 -1.18346,0.685039 -0.340157,0.302362 -0.608268,0.640157 -0.814961,1.00984 -0.206693,0.408661 -0.303543,0.81378 -0.303543,1.22362 0,0.43937 0.09685,0.877559 0.272835,1.24961 0.166535,0.412205 0.438189,0.748819 0.772441,1.01693 0.343701,0.309449 0.752362,0.543307 1.22835,0.716929 0.473622,0.166535 0.946063,0.235039 1.41614,0.235039 h 0.04016 z" />
   <polygon
   id="_41697280"
   class="fil0"
   points="50.8358,33.5953 52.4409,33.5953 57.8409,40.0323 57.7358,33.5953 59.3079,33.5953 59.3079,42.0673 57.8138,42.0673 52.3004,35.4898 52.4008,42.0673 50.8358,42.0673 " />
   <polygon
   id="_41697520"
   class="fil0"
   points="26.9681,33.5953 28.4917,33.5953 28.4917,40.9157 31.8815,40.9157 31.8815,42.0673 26.9681,42.0673 " />
   <polygon
   id="_41697376"
   class="fil0"
   points="33.6697,33.5953 35.1543,33.5953 35.1543,40.9157 38.5417,40.9157 38.5417,42.0673 33.6697,42.0673 " />
   <path
   id="_41697736"
   class="fil0"
   d="m 21.5138,33.5953 4.06654,8.47205 h -1.65945 l -1.12087,-2.43898 h -4.06417 l -1.12205,2.43898 h -1.65827 l 4.06654,-8.47205 z m 0.746457,4.81063 -1.49173,-3.25748 -1.49291,3.25748 h 2.98465 z" />
   <path
   id="_124506144"
   class="fil0"
   d="m 5.55827,33.5953 4.06772,8.47205 H 7.96654 L 6.84449,39.62837 H 2.78032 L 1.65945,42.06735 H 0 L 4.06772,33.5953 Z m 0.746457,4.81063 -1.49173,-3.25748 -1.49173,3.25748 z" />
   <polygon
   id="_124505832"
   class="fil0"
   points="13.4244,42.0673 17.387,33.5953 15.8327,33.5953 12.9839,39.9307 10.1327,33.5953 8.54055,33.5953 12.5386,42.0673 " />
   <path
   id="_124257392"
   class="fil1"
   d="M 29.6539,29.3587 H 12.7086 v -2.11772 h 9.87756 c 2.15079,0 4.80591,-0.722835 4.95,-3.51378 -10.1067,0 -14.8063,-4.37126 -14.8063,-11.315 0,-10.2366 8.45079,-12.652 16.924,-12.652 8.47323,0 16.924,2.41535 16.924,12.652 0,6.9437 -4.69843,11.315 -14.8063,11.315 0.144094,2.79094 2.80039,3.51378 4.95,3.51378 h 9.87756 v 2.11772 h -16.9453 z m 0,-27.9886 c -8.47323,0 -11.824,4.64528 -11.713,11.0421 0.124016,7.18228 3.58583,9.15827 9.59528,9.07323 v -9.07205 h 2.11772 2.11772 v 9.07205 C 37.78107,21.57047 41.24288,19.59449 41.3669,12.4122 41.477924,6.01535 38.12714,1.3701 29.6539,1.3701 Z" />
   
   
  </g>
 </g>
</svg>
